<svg id="svg" version="1.1" width="400" height="128.88888888888889" xmlns="http://www.w3.org/2000/svg" xmlns:xlink="http://www.w3.org/1999/xlink" style="display: block;"><g id="svgg"><path id="path0" d="M175.375 38.610 C 175.260 38.657,175.167 38.866,175.167 39.076 C 175.167 39.413,175.068 39.467,174.321 39.539 C 172.775 39.687,172.923 37.653,172.867 59.548 C 172.813 80.828,172.797 80.301,173.504 80.442 C 173.965 80.535,173.987 80.582,174.034 81.561 C 174.081 82.538,174.104 82.586,174.542 82.636 C 174.894 82.677,175.000 82.778,175.000 83.074 C 175.000 83.627,175.304 83.806,176.338 83.865 C 177.185 83.913,177.254 83.948,177.301 84.358 C 177.366 84.922,177.648 84.995,179.781 84.998 C 182.589 85.001,182.833 84.750,182.833 81.855 C 182.833 79.449,182.861 79.500,181.577 79.500 C 180.550 79.500,180.521 79.488,180.469 79.042 C 180.428 78.683,180.318 78.572,179.962 78.531 L 179.507 78.479 179.462 59.948 C 179.414 40.336,179.428 40.667,178.661 40.667 C 178.398 40.667,178.333 40.552,178.333 40.083 C 178.333 39.528,178.306 39.500,177.750 39.500 C 177.246 39.500,177.167 39.446,177.167 39.101 C 177.167 38.566,176.165 38.291,175.375 38.610 M267.533 38.700 C 267.423 38.810,267.333 39.035,267.333 39.200 C 267.333 39.456,267.185 39.500,266.329 39.500 C 264.940 39.500,265.000 39.117,265.000 47.948 C 265.000 54.515,264.968 55.514,264.762 55.343 C 264.630 55.234,264.113 55.103,263.611 55.051 C 262.770 54.964,262.692 54.920,262.604 54.478 L 262.508 54.000 257.447 54.000 C 252.100 54.000,251.833 54.038,251.833 54.805 C 251.833 54.916,251.565 55.007,251.208 55.017 C 250.197 55.043,249.771 55.225,249.666 55.673 C 249.595 55.976,249.441 56.098,249.077 56.140 C 248.525 56.204,248.340 56.408,248.336 56.958 C 248.334 57.263,248.240 57.333,247.833 57.333 C 247.373 57.333,247.333 57.380,247.333 57.917 C 247.333 58.376,247.267 58.500,247.020 58.500 C 246.555 58.500,246.333 58.866,246.220 59.821 C 246.143 60.477,245.988 60.819,245.560 61.288 L 245.000 61.898 245.000 64.688 C 245.000 67.316,244.981 67.484,244.672 67.582 C 243.760 67.871,243.906 71.167,244.831 71.167 C 244.938 71.167,245.000 72.163,245.000 73.903 C 245.000 77.041,245.026 77.167,245.684 77.167 L 246.167 77.167 246.167 78.250 C 246.167 78.932,246.235 79.333,246.352 79.333 C 246.816 79.333,247.328 80.089,247.330 80.778 C 247.333 81.403,247.381 81.484,247.799 81.576 C 248.114 81.645,248.325 81.838,248.451 82.172 C 248.601 82.570,248.736 82.667,249.141 82.667 C 249.499 82.667,249.675 82.764,249.751 83.002 C 249.914 83.516,250.706 83.833,251.825 83.833 C 252.833 83.833,252.833 83.834,252.833 84.330 C 252.833 85.023,252.902 85.031,258.449 84.970 C 263.537 84.914,263.833 84.869,263.833 84.146 C 263.833 83.911,263.955 83.833,264.322 83.833 C 265.079 83.833,265.657 83.547,265.832 83.086 C 265.961 82.747,266.105 82.667,266.579 82.667 C 267.118 82.667,267.167 82.626,267.167 82.177 C 267.167 81.747,267.232 81.681,267.708 81.636 C 268.176 81.590,268.257 81.514,268.300 81.075 C 268.337 80.691,268.466 80.523,268.827 80.387 C 269.249 80.227,269.318 80.100,269.419 79.287 C 269.525 78.443,269.573 78.360,270.017 78.272 L 270.500 78.175 270.500 58.837 L 270.500 39.500 269.917 39.500 C 269.466 39.500,269.333 39.432,269.333 39.200 C 269.333 38.739,268.993 38.500,268.333 38.500 C 268.003 38.500,267.643 38.590,267.533 38.700 M141.727 41.157 C 141.652 41.532,141.525 41.660,141.189 41.699 L 140.750 41.750 140.750 62.750 L 140.750 83.750 141.208 83.803 C 141.525 83.839,141.667 83.951,141.667 84.166 C 141.667 84.799,142.113 85.001,143.470 84.983 C 145.508 84.957,146.124 84.552,146.154 83.219 C 146.165 82.768,146.235 82.681,146.625 82.636 L 147.083 82.583 147.127 75.469 L 147.170 68.354 147.710 68.302 C 148.182 68.257,148.256 68.183,148.301 67.718 C 148.346 67.255,148.422 67.180,148.885 67.135 C 149.350 67.090,149.423 67.016,149.469 66.542 C 149.515 66.065,149.580 66.000,150.011 66.000 C 150.443 66.000,150.500 65.942,150.500 65.500 C 150.500 65.040,150.546 65.000,151.083 65.000 C 151.608 65.000,151.667 65.046,151.667 65.458 C 151.668 66.030,152.243 67.000,152.581 67.000 C 152.746 67.000,152.833 67.161,152.833 67.467 C 152.833 68.033,153.104 68.333,153.617 68.333 C 153.931 68.333,154.000 68.423,154.000 68.833 C 154.000 69.278,154.056 69.333,154.500 69.333 C 154.977 69.333,155.000 69.366,155.002 70.042 C 155.006 71.145,155.147 71.469,155.674 71.585 C 156.030 71.663,156.159 71.799,156.198 72.136 C 156.241 72.506,156.344 72.592,156.792 72.636 C 157.308 72.685,157.333 72.721,157.336 73.386 C 157.339 74.474,157.485 74.833,157.926 74.833 C 158.240 74.833,158.322 74.935,158.364 75.375 C 158.410 75.851,158.482 75.923,158.958 75.969 C 159.439 76.015,159.500 76.078,159.500 76.527 C 159.500 77.130,159.958 77.964,160.359 78.092 C 160.535 78.147,160.667 78.389,160.698 78.716 C 160.741 79.156,160.829 79.259,161.199 79.302 C 161.568 79.344,161.656 79.448,161.699 79.885 C 161.744 80.350,161.818 80.423,162.292 80.469 C 162.783 80.516,162.833 80.572,162.833 81.073 C 162.833 82.272,163.003 82.667,163.521 82.667 C 163.957 82.667,164.000 82.719,164.000 83.250 C 164.000 83.787,164.040 83.833,164.500 83.833 C 164.920 83.833,165.000 83.899,165.000 84.244 C 165.000 84.813,165.445 85.000,166.802 85.000 C 168.973 85.000,169.500 84.645,169.500 83.183 C 169.500 82.768,169.573 82.680,169.958 82.636 C 170.396 82.586,170.417 82.543,170.417 81.667 C 170.417 80.791,170.396 80.748,169.958 80.697 C 169.518 80.647,169.500 80.608,169.500 79.689 C 169.500 78.655,169.314 78.333,168.717 78.333 C 168.404 78.333,168.333 78.244,168.333 77.844 C 168.333 77.414,168.268 77.348,167.792 77.302 C 167.251 77.250,167.250 77.249,167.201 76.220 C 167.154 75.235,167.130 75.185,166.669 75.084 C 166.303 75.003,166.174 74.870,166.135 74.531 C 166.092 74.161,165.989 74.074,165.542 74.031 C 165.018 73.981,165.000 73.953,165.000 73.228 C 165.000 72.267,164.765 71.833,164.244 71.833 C 163.886 71.833,163.833 71.759,163.833 71.250 C 163.833 70.713,163.794 70.667,163.333 70.667 C 162.886 70.667,162.833 70.612,162.833 70.155 C 162.833 69.789,162.671 69.492,162.263 69.107 C 161.871 68.737,161.676 68.389,161.638 67.993 C 161.589 67.478,161.525 67.411,161.042 67.364 C 160.546 67.317,160.500 67.264,160.500 66.739 C 160.500 66.214,160.459 66.167,160.000 66.167 C 159.566 66.167,159.500 66.106,159.499 65.708 C 159.497 64.731,159.178 64.000,158.753 64.000 C 158.425 64.000,158.345 63.904,158.302 63.458 C 158.256 62.982,158.185 62.910,157.708 62.864 C 157.210 62.816,157.167 62.765,157.167 62.227 C 157.167 61.801,157.033 61.507,156.678 61.152 C 155.863 60.338,155.855 58.333,156.667 58.333 C 157.127 58.333,157.167 58.287,157.167 57.750 C 157.167 57.194,157.194 57.167,157.750 57.167 C 158.287 57.167,158.333 57.127,158.333 56.667 C 158.333 56.256,158.402 56.167,158.717 56.167 C 159.198 56.167,159.500 55.873,159.500 55.404 C 159.500 55.135,159.628 55.016,160.000 54.942 C 160.423 54.857,160.500 54.764,160.500 54.337 C 160.500 53.952,160.575 53.833,160.820 53.833 C 161.426 53.833,161.667 53.639,161.667 53.149 C 161.667 52.744,161.734 52.667,162.087 52.667 C 162.424 52.667,162.529 52.564,162.611 52.152 C 162.668 51.869,162.835 51.596,162.982 51.544 C 163.489 51.365,163.833 50.948,163.833 50.511 C 163.833 50.050,164.333 49.500,164.752 49.500 C 164.923 49.500,165.000 49.323,165.000 48.927 C 165.000 48.403,165.046 48.350,165.542 48.302 C 166.018 48.256,166.090 48.185,166.136 47.708 C 166.181 47.232,166.247 47.167,166.677 47.167 C 167.102 47.167,167.167 47.105,167.167 46.701 C 167.167 46.320,167.265 46.207,167.708 46.076 L 168.250 45.917 168.297 44.024 C 168.348 41.996,168.247 41.667,167.574 41.667 C 167.278 41.667,167.177 41.561,167.136 41.208 L 167.083 40.750 165.056 40.703 L 163.029 40.657 162.922 41.143 C 162.841 41.512,162.696 41.652,162.321 41.728 C 161.937 41.804,161.804 41.939,161.726 42.330 C 161.662 42.650,161.523 42.833,161.346 42.833 C 160.960 42.833,160.667 43.163,160.667 43.599 C 160.667 43.848,160.536 43.997,160.256 44.067 C 159.953 44.143,159.791 44.353,159.635 44.873 C 159.406 45.638,158.976 46.167,158.583 46.167 C 158.409 46.167,158.333 46.343,158.333 46.750 C 158.333 47.287,158.294 47.333,157.833 47.333 C 157.389 47.333,157.333 47.389,157.333 47.833 C 157.333 48.274,157.276 48.333,156.851 48.333 C 156.361 48.333,156.167 48.574,156.167 49.180 C 156.167 49.422,156.049 49.500,155.684 49.500 C 155.197 49.500,155.000 49.741,155.000 50.336 C 155.000 50.549,154.858 50.661,154.542 50.697 C 154.183 50.739,154.067 50.855,154.000 51.243 C 153.941 51.592,153.798 51.763,153.509 51.831 C 153.229 51.897,153.059 52.091,152.966 52.452 C 152.872 52.814,152.715 52.994,152.461 53.030 C 152.202 53.067,152.016 53.288,151.837 53.768 C 151.537 54.576,151.214 55.000,150.896 55.000 C 150.746 55.000,150.667 55.197,150.667 55.573 C 150.667 56.097,150.621 56.150,150.125 56.198 C 149.651 56.243,149.577 56.316,149.532 56.782 C 149.487 57.245,149.412 57.320,148.949 57.365 C 148.511 57.408,148.407 57.496,148.365 57.865 C 148.325 58.211,148.211 58.325,147.865 58.365 C 147.493 58.408,147.402 58.516,147.333 59.000 C 147.287 59.321,147.212 55.833,147.167 51.250 L 147.083 42.917 146.625 42.864 C 146.246 42.820,146.167 42.730,146.167 42.341 C 146.167 41.001,145.649 40.672,143.537 40.669 L 141.825 40.667 141.727 41.157 M288.392 41.167 L 288.292 41.667 286.908 41.667 C 285.437 41.667,285.000 41.860,285.000 42.512 C 285.000 42.793,284.877 42.833,284.008 42.833 L 283.015 42.833 282.907 43.407 C 282.815 43.902,282.727 43.988,282.275 44.032 C 281.845 44.074,281.741 44.164,281.698 44.532 C 281.658 44.878,281.545 44.992,281.198 45.032 C 280.829 45.074,280.741 45.178,280.699 45.615 C 280.654 46.078,280.578 46.154,280.115 46.199 C 279.650 46.244,279.577 46.318,279.531 46.792 C 279.486 47.263,279.418 47.333,279.007 47.333 C 278.510 47.333,278.333 47.577,278.333 48.262 C 278.333 48.491,278.118 48.869,277.833 49.142 C 277.384 49.571,277.333 49.723,277.333 50.643 C 277.333 51.600,277.308 51.667,276.950 51.667 C 276.275 51.667,276.167 51.959,276.167 53.783 C 276.167 55.493,275.936 56.167,275.351 56.167 C 275.037 56.167,275.000 56.875,275.000 62.843 L 275.000 68.992 275.583 69.523 L 276.167 70.054 276.167 71.680 C 276.167 73.646,276.226 73.833,276.851 73.833 L 277.333 73.833 277.333 74.917 C 277.333 75.685,277.395 76.000,277.546 76.000 C 277.920 76.000,278.333 76.652,278.333 77.240 C 278.333 77.873,278.689 78.333,279.179 78.333 C 279.425 78.333,279.500 78.451,279.500 78.833 C 279.500 79.294,279.546 79.333,280.083 79.333 C 280.639 79.333,280.667 79.361,280.667 79.917 C 280.667 80.454,280.706 80.500,281.167 80.500 C 281.607 80.500,281.667 80.558,281.667 80.982 C 281.667 81.467,281.907 81.667,282.493 81.667 C 282.692 81.667,282.825 81.834,282.892 82.167 C 282.989 82.653,283.017 82.667,283.961 82.667 C 284.912 82.667,284.934 82.678,285.091 83.208 L 285.250 83.750 286.792 83.798 C 288.176 83.841,288.333 83.878,288.333 84.161 C 288.333 84.990,288.416 85.000,294.998 85.000 C 301.736 85.000,301.667 85.007,301.667 84.322 L 301.667 83.845 303.292 83.798 L 304.917 83.750 304.969 83.208 L 305.021 82.667 306.094 82.667 L 307.167 82.667 307.167 82.177 C 307.167 81.747,307.232 81.681,307.708 81.636 C 308.185 81.590,308.256 81.518,308.302 81.042 C 308.350 80.546,308.403 80.500,308.927 80.500 C 309.271 80.500,309.502 80.417,309.506 80.292 C 309.513 80.014,310.090 79.333,310.318 79.333 C 310.418 79.333,310.500 79.113,310.500 78.844 C 310.500 78.414,310.565 78.348,311.042 78.302 C 311.518 78.256,311.590 78.185,311.636 77.708 C 311.673 77.315,311.771 77.167,311.990 77.167 C 312.459 77.167,312.680 76.773,312.785 75.750 C 312.861 75.015,312.986 74.706,313.358 74.334 C 313.818 73.875,313.833 73.804,313.833 72.179 C 313.833 70.522,313.839 70.500,314.230 70.500 C 315.003 70.500,315.006 70.473,314.960 62.647 L 314.917 55.250 314.375 55.091 L 313.833 54.931 313.833 53.312 C 313.833 51.735,313.820 51.679,313.333 51.192 C 312.963 50.822,312.829 50.527,312.817 50.054 C 312.790 49.031,312.610 48.605,312.161 48.500 C 311.846 48.426,311.738 48.279,311.698 47.868 C 311.650 47.380,311.596 47.333,311.073 47.333 C 310.546 47.333,310.500 47.293,310.500 46.826 C 310.500 46.121,309.460 45.000,308.807 45.000 C 308.392 45.000,308.333 44.938,308.333 44.500 C 308.333 44.040,308.287 44.000,307.750 44.000 C 307.194 44.000,307.167 43.972,307.167 43.417 L 307.167 42.833 306.083 42.833 L 305.000 42.833 305.000 42.351 C 305.000 41.759,304.785 41.667,303.403 41.667 C 302.349 41.667,301.667 41.339,301.667 40.833 C 301.667 40.725,299.360 40.667,295.079 40.667 L 288.492 40.667 288.392 41.167 M298.449 46.667 L 298.638 47.167 300.152 47.167 L 301.667 47.167 301.667 47.649 C 301.667 48.158,301.905 48.333,302.597 48.333 C 302.874 48.333,303.000 48.427,303.000 48.633 C 303.000 49.005,303.313 49.333,303.667 49.333 C 304.046 49.333,304.991 50.356,305.143 50.932 C 305.239 51.293,305.386 51.430,305.719 51.469 C 306.063 51.510,306.167 51.613,306.167 51.914 C 306.167 52.594,306.345 52.833,306.851 52.833 L 307.333 52.833 307.333 54.094 C 307.333 55.490,307.513 56.000,308.006 56.000 C 308.326 56.000,308.333 56.151,308.333 62.750 C 308.333 67.139,308.275 69.500,308.167 69.500 C 307.616 69.500,307.333 70.175,307.333 71.489 L 307.333 72.812 306.792 72.864 C 306.315 72.910,306.244 72.982,306.198 73.458 C 306.161 73.841,306.061 74.000,305.856 74.000 C 305.491 74.000,305.167 74.317,305.167 74.674 C 305.167 75.053,304.117 76.100,303.550 76.288 C 303.222 76.396,303.068 76.572,303.032 76.878 C 302.987 77.249,302.888 77.322,302.365 77.366 C 301.833 77.410,301.743 77.479,301.697 77.875 L 301.645 78.333 300.251 78.333 C 298.770 78.333,298.333 78.526,298.333 79.179 C 298.333 79.485,298.181 79.500,295.000 79.500 L 291.667 79.500 291.667 79.018 C 291.667 78.432,291.448 78.333,290.154 78.333 C 289.350 78.333,289.131 78.272,288.961 78.000 C 288.847 77.817,288.659 77.667,288.543 77.667 C 288.428 77.667,288.333 77.592,288.333 77.500 C 288.333 77.408,288.076 77.333,287.761 77.333 C 287.236 77.333,287.183 77.288,287.136 76.792 C 287.090 76.318,287.017 76.244,286.552 76.199 C 286.114 76.156,286.011 76.068,285.968 75.699 C 285.928 75.352,285.815 75.238,285.468 75.198 C 285.099 75.156,285.010 75.052,284.968 74.615 C 284.923 74.150,284.849 74.077,284.375 74.031 C 283.850 73.980,283.833 73.956,283.833 73.211 C 283.833 72.428,283.499 71.833,283.058 71.833 C 282.895 71.833,282.833 71.561,282.833 70.840 C 282.833 69.887,282.332 69.000,281.793 69.000 C 281.724 69.000,281.667 66.238,281.667 62.863 L 281.667 56.727 282.250 56.262 C 282.807 55.817,282.833 55.749,282.833 54.732 C 282.833 53.784,282.869 53.667,283.161 53.667 C 283.589 53.667,283.833 53.186,283.833 52.344 C 283.833 51.787,283.890 51.667,284.153 51.667 C 284.744 51.667,285.000 51.471,285.000 51.019 C 285.000 50.677,285.116 50.529,285.500 50.384 C 285.819 50.264,286.000 50.079,286.000 49.872 C 286.000 49.650,286.169 49.500,286.542 49.394 C 286.959 49.275,287.095 49.135,287.136 48.786 C 287.179 48.419,287.273 48.333,287.636 48.333 C 287.946 48.333,288.224 48.157,288.543 47.757 C 288.988 47.199,289.045 47.179,290.293 47.132 C 291.563 47.084,291.584 47.076,291.636 46.625 L 291.689 46.167 294.975 46.167 L 298.260 46.167 298.449 46.667 M192.892 54.500 C 192.795 54.984,192.762 55.000,191.854 55.000 C 190.983 55.000,190.884 55.041,190.451 55.583 C 190.087 56.040,189.865 56.167,189.430 56.167 C 188.840 56.167,188.574 56.375,188.475 56.917 C 188.437 57.122,188.255 57.272,187.998 57.308 C 187.443 57.387,187.339 57.593,187.336 58.614 C 187.333 59.467,187.326 59.480,186.792 59.531 C 186.250 59.583,186.250 59.583,186.200 60.625 C 186.155 61.580,186.119 61.667,185.775 61.667 C 185.062 61.667,185.000 61.913,185.000 64.777 C 185.000 67.268,184.974 67.502,184.684 67.657 C 183.770 68.147,183.896 71.167,184.831 71.167 C 184.938 71.167,185.000 72.163,185.000 73.903 C 185.000 77.034,185.027 77.167,185.677 77.167 C 186.142 77.167,186.152 77.186,186.200 78.208 C 186.250 79.250,186.250 79.250,186.792 79.302 C 187.308 79.352,187.333 79.387,187.336 80.052 C 187.339 81.148,187.480 81.475,187.974 81.532 C 188.259 81.565,188.435 81.701,188.475 81.917 C 188.584 82.513,188.849 82.667,189.770 82.667 L 190.667 82.667 190.667 83.250 L 190.667 83.833 191.750 83.833 C 192.709 83.833,192.833 83.870,192.833 84.155 C 192.833 84.972,193.015 85.000,198.220 84.998 C 203.756 84.995,203.833 84.986,203.833 84.322 C 203.833 83.854,203.845 83.848,204.958 83.799 L 206.083 83.750 206.135 83.217 C 206.185 82.699,206.212 82.682,207.052 82.633 C 207.848 82.587,207.936 82.540,208.155 82.042 C 208.323 81.659,208.505 81.500,208.772 81.500 C 209.176 81.500,209.497 80.746,209.499 79.792 C 209.500 79.394,209.566 79.333,210.000 79.333 L 210.500 79.333 210.500 78.261 L 210.500 77.188 211.042 77.136 L 211.583 77.083 211.628 73.590 C 211.671 70.313,211.695 70.075,212.021 69.728 L 212.368 69.358 212.017 69.139 C 211.679 68.927,211.667 68.798,211.667 65.394 C 211.667 61.619,211.677 61.667,210.820 61.667 C 210.537 61.667,210.500 61.540,210.500 60.583 L 210.500 59.500 210.000 59.500 C 209.566 59.500,209.500 59.440,209.499 59.042 C 209.497 58.053,209.178 57.333,208.742 57.333 C 208.456 57.333,208.333 57.241,208.333 57.026 C 208.333 56.506,207.789 56.167,206.956 56.167 C 206.211 56.167,206.186 56.150,206.136 55.625 L 206.083 55.083 204.958 55.034 C 203.834 54.985,203.833 54.984,203.833 54.492 L 203.833 54.000 198.412 54.000 L 192.992 54.000 192.892 54.500 M217.332 54.208 C 217.332 54.323,217.069 54.595,216.749 54.813 L 216.167 55.210 216.169 66.896 C 216.171 79.686,216.152 79.333,216.853 79.333 C 217.333 79.333,217.333 79.335,217.333 80.403 C 217.333 81.452,217.343 81.476,217.823 81.581 C 218.197 81.663,218.326 81.795,218.365 82.136 C 218.407 82.501,218.512 82.593,218.937 82.634 C 219.361 82.675,219.485 82.783,219.609 83.217 C 219.756 83.732,219.795 83.752,220.760 83.799 C 221.675 83.843,221.775 83.886,221.967 84.319 C 222.253 84.965,222.545 84.996,228.250 84.996 C 233.753 84.995,233.833 84.986,233.833 84.322 C 233.833 83.854,233.845 83.848,234.958 83.799 L 236.083 83.750 236.136 83.208 C 236.178 82.770,236.261 82.667,236.569 82.667 C 237.651 82.667,238.333 82.009,238.333 80.967 C 238.333 80.582,238.405 80.500,238.744 80.500 C 239.277 80.500,239.500 80.064,239.500 79.022 C 239.500 78.237,239.526 78.186,239.958 78.136 L 240.417 78.083 240.459 66.621 L 240.502 55.159 240.010 55.060 C 239.639 54.986,239.492 54.844,239.412 54.481 L 239.307 54.000 237.807 54.000 L 236.307 54.000 235.654 54.641 C 235.181 55.104,235.000 55.420,235.000 55.781 C 235.000 56.143,234.893 56.329,234.609 56.458 C 234.052 56.712,234.000 57.672,234.000 67.708 L 234.000 76.200 233.542 76.653 C 233.290 76.902,232.842 77.382,232.547 77.720 C 232.202 78.114,231.864 78.333,231.602 78.333 C 230.905 78.333,230.667 78.508,230.667 79.018 L 230.667 79.500 228.370 79.500 L 226.073 79.500 225.894 79.026 C 225.714 78.549,225.196 78.333,224.229 78.333 C 223.900 78.333,223.833 78.249,223.833 77.833 C 223.833 77.389,223.778 77.333,223.333 77.333 C 222.880 77.333,222.833 77.282,222.833 76.792 C 222.832 76.151,222.278 75.167,221.919 75.167 C 221.696 75.167,221.667 73.989,221.667 65.184 C 221.667 54.377,221.718 55.000,220.820 55.000 C 220.576 55.000,220.500 54.882,220.500 54.500 L 220.500 54.000 218.917 54.000 C 217.762 54.000,217.333 54.056,217.332 54.208 M320.727 54.491 C 320.654 54.856,320.510 55.008,320.165 55.084 C 319.484 55.233,319.505 54.785,319.502 69.447 C 319.500 83.666,319.509 83.833,320.246 83.833 C 320.582 83.833,320.667 83.916,320.667 84.244 C 320.667 84.878,321.181 85.048,322.862 84.968 C 324.614 84.884,324.845 84.725,324.960 83.522 C 325.032 82.770,325.085 82.680,325.472 82.634 C 326.127 82.557,326.132 82.486,326.150 72.303 L 326.167 62.855 326.625 62.803 C 327.002 62.759,327.092 62.658,327.134 62.230 C 327.175 61.806,327.283 61.682,327.717 61.558 C 328.122 61.443,328.262 61.299,328.302 60.963 C 328.344 60.600,328.450 60.510,328.885 60.468 C 329.326 60.425,329.426 60.338,329.469 59.958 L 329.522 59.500 332.361 59.500 L 335.200 59.500 335.667 60.000 C 336.015 60.373,336.283 60.500,336.723 60.500 C 337.266 60.500,337.316 60.543,337.364 61.042 C 337.408 61.493,337.493 61.592,337.875 61.636 L 338.333 61.689 338.346 63.553 C 338.360 65.600,338.582 66.497,339.137 66.748 L 339.500 66.912 339.500 75.305 C 339.500 85.501,339.361 85.000,342.178 85.000 C 343.615 85.000,343.833 84.911,343.833 84.326 C 343.833 83.916,343.904 83.848,344.375 83.802 L 344.917 83.750 344.917 72.250 L 344.917 60.750 344.375 60.698 L 343.833 60.646 343.833 59.569 C 343.833 58.505,343.827 58.490,343.333 58.392 C 342.944 58.314,342.833 58.203,342.833 57.890 C 342.833 56.717,342.215 56.167,340.896 56.167 C 340.555 56.167,340.500 56.086,340.500 55.583 L 340.500 55.000 339.417 55.000 L 338.333 55.000 338.333 54.498 L 338.333 53.995 333.375 54.039 L 328.417 54.083 328.365 54.534 C 328.315 54.963,328.264 54.987,327.281 55.034 C 326.251 55.083,326.250 55.084,326.198 55.625 C 326.120 56.432,325.000 56.463,325.000 55.658 C 325.000 54.314,324.495 54.006,322.287 54.002 L 320.825 54.000 320.727 54.491 M357.333 54.500 C 357.333 54.998,357.330 55.000,356.367 55.000 C 355.322 55.000,355.000 55.185,355.000 55.783 C 355.000 56.120,354.918 56.167,354.322 56.167 C 353.431 56.167,353.000 56.413,353.000 56.923 C 353.000 57.244,352.914 57.333,352.604 57.333 C 352.055 57.333,351.839 57.657,351.721 58.649 C 351.633 59.391,351.572 59.500,351.245 59.500 C 350.787 59.500,350.667 59.780,350.667 60.847 C 350.667 61.545,350.619 61.667,350.345 61.667 C 349.573 61.667,349.500 61.986,349.500 65.345 L 349.500 68.500 349.101 68.500 C 348.208 68.500,348.287 70.438,349.208 71.132 C 349.465 71.326,349.500 71.673,349.500 73.996 C 349.500 77.036,349.528 77.167,350.184 77.167 L 350.667 77.167 350.667 78.250 L 350.667 79.333 351.167 79.333 C 351.601 79.333,351.667 79.394,351.668 79.792 C 351.670 80.791,351.982 81.476,352.462 81.531 C 352.758 81.565,352.935 81.698,352.975 81.917 C 353.081 82.498,353.352 82.667,354.177 82.667 C 354.960 82.667,354.980 82.679,355.031 83.208 L 355.083 83.750 356.208 83.799 C 357.281 83.846,357.333 83.868,357.333 84.262 C 357.333 84.933,357.851 85.000,362.997 85.000 C 368.331 85.000,368.333 85.000,368.333 84.316 L 368.333 83.833 369.724 83.833 C 371.182 83.833,371.667 83.612,371.667 82.945 C 371.667 82.738,371.816 82.667,372.250 82.667 C 372.787 82.667,372.833 82.627,372.833 82.167 C 372.833 81.722,372.889 81.667,373.333 81.667 L 373.833 81.667 373.833 79.500 L 373.833 77.333 373.368 77.333 C 372.986 77.333,372.873 77.235,372.743 76.792 C 372.488 75.927,371.112 75.900,370.269 76.742 C 369.787 77.224,369.553 77.333,369.006 77.333 C 368.370 77.333,368.333 77.360,368.333 77.833 C 368.333 78.321,368.313 78.333,367.514 78.333 C 366.390 78.333,366.167 78.447,366.167 79.022 L 366.167 79.508 363.375 79.462 L 360.583 79.417 360.525 79.000 C 360.447 78.442,360.241 78.339,359.208 78.336 C 358.348 78.333,358.333 78.325,358.333 77.833 C 358.333 77.373,358.287 77.333,357.750 77.333 C 357.194 77.333,357.167 77.306,357.167 76.750 C 357.167 76.429,357.092 76.167,357.000 76.167 C 356.614 76.167,356.185 75.488,356.135 74.802 C 356.086 74.126,356.051 74.080,355.542 74.031 L 355.000 73.979 355.000 72.824 L 355.000 71.669 364.375 71.626 L 373.750 71.583 373.802 71.042 C 373.850 70.546,373.903 70.500,374.427 70.500 L 375.000 70.500 375.000 66.083 C 375.000 63.250,374.940 61.667,374.833 61.667 C 374.742 61.667,374.667 61.567,374.667 61.445 C 374.667 61.323,374.479 61.123,374.250 61.000 C 373.878 60.801,373.833 60.672,373.833 59.791 C 373.833 58.851,373.810 58.796,373.341 58.619 C 372.966 58.477,372.838 58.313,372.800 57.925 C 372.757 57.486,372.676 57.410,372.208 57.364 C 371.712 57.317,371.667 57.264,371.667 56.739 C 371.667 56.196,371.637 56.167,371.083 56.167 C 370.576 56.167,370.500 56.114,370.500 55.760 C 370.500 55.241,370.361 55.163,369.239 55.047 C 368.532 54.974,368.277 54.871,368.135 54.601 C 367.826 54.014,367.746 54.005,362.458 54.003 L 357.333 54.000 357.333 54.500 M201.250 60.000 C 201.594 60.359,201.885 60.500,202.281 60.500 C 202.746 60.500,202.833 60.560,202.833 60.883 C 202.833 61.368,203.128 61.667,203.606 61.667 C 203.905 61.667,203.989 61.774,204.031 62.208 C 204.075 62.660,204.160 62.759,204.542 62.803 C 204.978 62.853,205.000 62.899,205.000 63.741 C 205.000 64.803,205.369 65.769,205.831 65.916 C 206.284 66.060,206.366 73.000,205.914 73.000 C 205.434 73.000,205.001 74.007,205.001 75.125 L 205.000 76.167 204.500 76.167 C 204.041 76.167,204.000 76.214,204.000 76.739 C 204.000 77.264,203.954 77.317,203.458 77.364 C 203.014 77.407,202.908 77.495,202.866 77.854 C 202.823 78.228,202.717 78.305,202.145 78.382 C 201.444 78.476,200.833 78.892,200.833 79.276 C 200.833 79.708,195.896 79.589,195.782 79.154 C 195.732 78.964,195.536 78.768,195.346 78.718 C 195.156 78.668,195.000 78.562,195.000 78.481 C 195.000 78.400,194.737 78.333,194.417 78.333 C 193.880 78.333,193.833 78.294,193.833 77.833 C 193.833 77.391,193.777 77.333,193.344 77.333 C 192.914 77.333,192.848 77.268,192.802 76.792 C 192.756 76.315,192.685 76.244,192.208 76.198 L 191.667 76.146 191.667 75.083 L 191.667 74.021 191.125 73.969 L 190.583 73.917 190.539 69.469 L 190.495 65.022 191.039 64.969 L 191.583 64.917 191.633 63.875 C 191.678 62.920,191.714 62.833,192.058 62.833 C 192.535 62.833,192.833 62.537,192.833 62.061 C 192.833 61.779,192.944 61.676,193.292 61.636 C 193.674 61.592,193.759 61.493,193.802 61.042 C 193.849 60.556,193.909 60.500,194.386 60.497 C 194.763 60.495,195.037 60.354,195.333 60.010 L 195.750 59.526 198.260 59.513 L 200.771 59.500 201.250 60.000 M260.697 59.958 C 260.741 60.338,260.841 60.425,261.282 60.468 C 261.716 60.510,261.822 60.600,261.865 60.962 C 261.908 61.328,262.029 61.427,262.578 61.540 C 263.452 61.720,264.000 62.249,264.000 62.912 C 264.000 63.498,264.255 63.833,264.700 63.833 C 264.983 63.833,265.000 64.151,265.000 69.406 L 265.000 74.978 264.542 75.031 C 264.145 75.076,264.076 75.166,264.032 75.700 C 263.996 76.138,263.886 76.347,263.655 76.420 C 263.263 76.545,262.833 77.323,262.833 77.908 C 262.833 78.306,262.781 78.333,262.014 78.333 C 260.892 78.333,260.667 78.448,260.667 79.018 L 260.667 79.500 258.208 79.494 C 255.621 79.489,255.248 79.389,254.955 78.625 C 254.883 78.436,254.666 78.333,254.339 78.333 C 253.888 78.333,253.833 78.279,253.833 77.833 C 253.833 77.389,253.778 77.333,253.333 77.333 C 252.923 77.333,252.833 77.265,252.833 76.950 C 252.833 76.462,252.538 76.167,252.050 76.167 C 251.689 76.167,251.667 76.103,251.667 75.083 L 251.667 74.000 251.083 74.000 L 250.500 74.000 250.500 69.500 C 250.500 65.175,250.512 65.000,250.820 65.000 C 251.548 65.000,251.667 64.836,251.667 63.827 C 251.667 62.891,251.683 62.854,252.125 62.803 C 252.476 62.762,252.620 62.626,252.739 62.223 C 252.853 61.834,253.017 61.672,253.364 61.602 C 253.755 61.524,253.833 61.424,253.833 61.004 C 253.833 60.539,253.879 60.500,254.417 60.500 C 254.954 60.500,255.000 60.460,255.000 60.000 L 255.000 59.500 257.822 59.500 L 260.645 59.500 260.697 59.958 M365.095 59.875 C 365.236 60.328,365.464 60.494,365.947 60.497 C 366.164 60.499,366.354 60.636,366.417 60.835 C 366.544 61.236,367.317 61.667,367.908 61.667 C 368.316 61.667,368.334 61.708,368.353 62.708 C 368.384 64.360,368.510 64.741,369.042 64.803 C 369.455 64.850,369.500 64.920,369.500 65.511 L 369.500 66.167 362.250 66.167 L 355.000 66.167 355.000 65.597 C 355.000 65.103,355.065 65.012,355.483 64.920 C 356.007 64.805,356.161 64.481,356.164 63.479 C 356.166 62.942,356.222 62.864,356.667 62.775 C 357.080 62.692,357.167 62.594,357.167 62.205 C 357.167 61.819,357.263 61.707,357.708 61.576 C 358.122 61.454,358.262 61.311,358.302 60.968 C 358.344 60.599,358.448 60.510,358.885 60.468 C 359.326 60.425,359.426 60.338,359.469 59.958 L 359.522 59.500 362.250 59.500 C 364.933 59.500,364.979 59.506,365.095 59.875 " stroke="none" fill="#000000" fill-rule="evenodd"></path><path id="path1" d="M74.167 34.985 C 73.846 35.055,73.312 35.230,72.980 35.372 C 72.648 35.515,71.673 35.724,70.814 35.837 C 69.646 35.990,69.060 36.158,68.500 36.501 C 68.087 36.754,67.420 37.001,67.016 37.051 C 66.529 37.111,66.153 37.281,65.898 37.556 C 65.687 37.784,65.267 38.020,64.965 38.081 C 63.995 38.277,63.833 38.351,63.833 38.603 C 63.833 38.739,63.552 38.968,63.208 39.111 C 62.865 39.254,62.302 39.625,61.958 39.936 C 61.614 40.246,61.225 40.500,61.094 40.500 C 60.963 40.500,60.696 40.725,60.500 41.000 C 60.304 41.275,60.033 41.500,59.898 41.500 C 59.762 41.500,59.523 41.727,59.367 42.005 C 59.211 42.282,58.929 42.549,58.741 42.598 C 58.553 42.646,58.317 42.904,58.217 43.169 C 58.103 43.471,57.872 43.692,57.601 43.761 C 57.339 43.826,57.167 43.986,57.167 44.162 C 57.167 44.323,56.938 44.709,56.659 45.019 C 56.379 45.329,55.996 45.902,55.807 46.292 C 55.618 46.681,55.362 47.000,55.238 47.000 C 55.114 47.000,54.930 47.309,54.828 47.686 C 54.727 48.063,54.461 48.554,54.238 48.777 C 54.016 49.000,53.833 49.272,53.832 49.383 C 53.830 49.882,53.453 50.864,53.101 51.286 C 52.828 51.614,52.658 52.136,52.521 53.068 C 52.413 53.803,52.175 54.633,51.984 54.943 C 51.709 55.387,51.616 55.912,51.519 57.575 C 51.369 60.152,51.300 60.254,49.613 60.418 C 48.859 60.491,48.293 60.641,48.083 60.822 C 47.725 61.131,46.604 61.500,46.021 61.500 C 45.824 61.500,45.428 61.725,45.140 62.000 C 44.853 62.275,44.512 62.500,44.384 62.500 C 44.255 62.500,43.880 62.762,43.550 63.083 C 43.219 63.404,42.887 63.667,42.812 63.667 C 42.737 63.667,42.559 63.892,42.417 64.167 C 42.274 64.442,42.053 64.667,41.925 64.667 C 41.797 64.667,41.608 64.923,41.505 65.236 C 41.401 65.550,41.140 65.922,40.925 66.063 C 40.642 66.248,40.502 66.541,40.420 67.118 C 40.357 67.557,40.165 68.179,39.993 68.500 C 39.821 68.821,39.563 69.326,39.422 69.623 C 39.263 69.956,38.940 70.257,38.582 70.407 C 38.262 70.540,38.000 70.717,38.000 70.799 C 38.000 70.880,37.719 71.089,37.375 71.262 C 36.511 71.698,35.056 73.231,34.805 73.971 C 34.691 74.308,34.425 74.742,34.215 74.936 C 33.624 75.482,33.623 80.370,34.214 80.835 C 34.434 81.008,34.686 81.488,34.809 81.968 C 34.959 82.552,35.121 82.826,35.354 82.887 C 35.536 82.935,35.773 83.205,35.879 83.487 C 35.998 83.800,36.191 84.000,36.375 84.000 C 36.542 84.000,36.909 84.236,37.191 84.525 C 37.529 84.871,37.954 85.097,38.435 85.187 C 38.837 85.262,39.567 85.513,40.057 85.745 L 40.949 86.167 73.099 86.166 L 105.250 86.164 106.500 85.739 C 107.188 85.506,108.227 85.270,108.810 85.215 C 109.559 85.144,109.998 85.006,110.311 84.743 C 110.555 84.538,111.091 84.273,111.502 84.153 C 111.913 84.034,112.425 83.767,112.640 83.560 C 112.854 83.352,113.285 83.098,113.598 82.995 C 113.911 82.892,114.167 82.715,114.167 82.601 C 114.167 82.488,114.467 82.226,114.833 82.020 C 115.200 81.814,115.500 81.536,115.500 81.402 C 115.500 81.268,115.689 81.087,115.920 80.999 C 116.150 80.911,116.414 80.643,116.505 80.404 C 116.596 80.164,116.824 79.928,117.011 79.879 C 117.219 79.824,117.388 79.603,117.447 79.308 C 117.500 79.042,117.740 78.685,117.980 78.514 C 118.242 78.328,118.507 77.899,118.641 77.444 C 118.773 76.997,119.030 76.576,119.266 76.422 C 119.557 76.231,119.667 76.006,119.667 75.600 C 119.667 74.908,120.080 73.706,120.463 73.282 C 120.942 72.753,120.892 65.721,120.404 65.056 C 119.962 64.454,119.667 63.597,119.667 62.921 C 119.667 62.573,119.525 62.259,119.255 62.005 C 119.028 61.792,118.755 61.347,118.647 61.017 C 118.539 60.687,118.237 60.196,117.975 59.927 C 117.714 59.657,117.500 59.344,117.500 59.232 C 117.500 59.059,117.046 58.511,115.955 57.369 C 115.459 56.849,113.918 55.667,113.737 55.667 C 113.628 55.667,113.415 55.479,113.265 55.250 C 113.110 55.013,112.832 54.833,112.621 54.832 C 112.417 54.831,111.921 54.568,111.518 54.248 C 111.035 53.864,110.610 53.667,110.266 53.667 C 109.979 53.667,109.291 53.445,108.737 53.175 C 107.797 52.716,107.550 52.675,105.088 52.565 C 102.984 52.471,102.401 52.393,102.219 52.182 C 100.869 50.616,100.947 50.753,100.757 49.625 C 100.699 49.281,100.579 49.000,100.490 49.000 C 100.250 49.000,99.668 47.973,99.667 47.548 C 99.667 47.345,99.517 47.098,99.334 47.000 C 99.151 46.902,98.854 46.543,98.675 46.203 C 98.495 45.862,98.120 45.329,97.841 45.019 C 97.562 44.709,97.333 44.331,97.333 44.181 C 97.333 44.029,97.110 43.822,96.833 43.718 C 96.495 43.590,96.333 43.415,96.333 43.177 C 96.333 42.953,96.179 42.766,95.910 42.664 C 95.677 42.575,95.358 42.278,95.201 42.003 C 95.045 41.727,94.787 41.502,94.629 41.501 C 94.471 41.500,94.216 41.309,94.062 41.075 C 93.909 40.841,93.551 40.531,93.267 40.385 C 92.983 40.240,92.505 39.907,92.205 39.646 C 91.906 39.385,91.477 39.125,91.253 39.069 C 91.029 39.013,90.801 38.828,90.747 38.659 C 90.651 38.356,90.536 38.298,89.638 38.099 C 89.393 38.045,88.961 37.805,88.678 37.567 C 88.373 37.311,87.876 37.099,87.457 37.047 C 87.068 36.999,86.412 36.754,86.000 36.502 C 85.454 36.169,84.847 35.990,83.768 35.846 C 82.954 35.737,81.904 35.491,81.435 35.299 C 80.516 34.923,75.443 34.703,74.167 34.985 M81.333 36.941 C 81.765 37.146,82.594 37.341,83.285 37.400 C 84.539 37.506,85.204 37.722,85.726 38.194 C 85.895 38.348,86.398 38.523,86.842 38.585 C 87.353 38.655,87.791 38.837,88.033 39.079 C 88.244 39.289,88.741 39.559,89.136 39.677 C 89.532 39.796,89.993 40.067,90.160 40.280 C 90.328 40.493,90.593 40.667,90.749 40.667 C 90.905 40.667,91.232 40.874,91.475 41.128 C 91.718 41.382,92.142 41.730,92.417 41.902 C 93.280 42.442,95.126 44.221,95.910 45.268 C 96.177 45.625,96.569 46.096,96.781 46.314 C 96.993 46.533,97.167 46.822,97.167 46.957 C 97.167 47.092,97.349 47.345,97.571 47.520 C 97.794 47.695,98.065 48.119,98.175 48.461 C 98.284 48.803,98.544 49.271,98.753 49.500 C 98.961 49.729,99.185 50.179,99.250 50.500 C 99.316 50.821,99.578 51.402,99.832 51.792 C 100.087 52.181,100.346 52.838,100.408 53.250 C 100.502 53.875,100.581 54.001,100.885 54.004 C 106.544 54.058,107.592 54.175,108.461 54.845 C 108.669 55.005,109.209 55.187,109.661 55.249 C 110.170 55.319,110.641 55.509,110.900 55.749 C 111.129 55.961,111.588 56.225,111.919 56.334 C 112.271 56.450,112.598 56.700,112.705 56.933 C 112.805 57.153,113.014 57.333,113.169 57.333 C 113.542 57.333,115.823 59.622,116.034 60.208 C 116.125 60.460,116.303 60.667,116.429 60.667 C 116.662 60.667,117.167 61.481,117.167 61.858 C 117.167 61.972,117.356 62.263,117.588 62.505 C 117.878 62.808,118.071 63.280,118.204 64.014 C 118.310 64.602,118.485 65.138,118.593 65.204 C 119.308 65.646,119.410 72.032,118.716 72.969 C 118.510 73.248,118.264 73.953,118.155 74.578 C 117.997 75.490,117.890 75.724,117.564 75.872 C 117.345 75.972,117.167 76.195,117.167 76.368 C 117.167 76.809,116.776 77.510,116.266 77.987 C 116.028 78.210,115.833 78.516,115.833 78.668 C 115.833 78.819,115.643 79.045,115.411 79.170 C 115.178 79.294,114.896 79.588,114.784 79.823 C 114.672 80.058,114.422 80.273,114.230 80.300 C 114.037 80.328,113.795 80.535,113.692 80.761 C 113.589 80.987,113.298 81.261,113.044 81.371 C 112.791 81.480,112.341 81.776,112.045 82.027 C 111.749 82.278,111.230 82.536,110.892 82.599 C 110.553 82.663,110.120 82.891,109.930 83.107 C 109.655 83.417,109.306 83.536,108.250 83.676 C 107.517 83.774,106.692 83.980,106.417 84.135 C 105.902 84.425,84.032 84.680,82.216 84.417 C 80.719 84.200,80.834 85.851,80.831 64.397 C 80.830 54.049,80.784 45.415,80.728 45.208 C 80.570 44.616,78.414 44.641,78.142 45.237 C 78.041 45.459,77.793 45.683,77.591 45.733 C 77.389 45.784,76.892 46.089,76.487 46.411 C 76.082 46.733,75.659 46.997,75.547 46.998 C 75.436 46.999,75.082 47.262,74.761 47.583 C 74.440 47.904,74.074 48.167,73.948 48.167 C 73.822 48.167,73.575 48.327,73.401 48.524 C 73.226 48.720,72.804 49.007,72.463 49.161 C 72.123 49.316,71.686 49.643,71.493 49.888 C 71.300 50.133,71.010 50.333,70.849 50.333 C 70.687 50.333,70.355 50.558,70.110 50.833 C 69.865 51.108,69.595 51.333,69.511 51.333 C 69.084 51.333,68.370 52.776,68.696 52.980 C 68.870 53.088,69.083 53.362,69.169 53.589 C 69.381 54.148,70.645 54.204,70.787 53.660 C 70.836 53.473,71.141 53.209,71.466 53.073 C 71.791 52.938,72.156 52.684,72.278 52.511 C 72.400 52.337,72.828 52.069,73.230 51.916 C 73.656 51.753,74.033 51.476,74.136 51.251 C 74.237 51.029,74.519 50.819,74.800 50.757 C 75.078 50.696,75.362 50.486,75.462 50.268 C 75.868 49.377,77.870 49.327,78.084 50.203 C 78.135 50.412,78.156 58.034,78.130 67.139 L 78.083 83.696 77.616 84.098 L 77.148 84.500 59.109 84.500 C 41.912 84.500,41.042 84.486,40.468 84.193 C 40.137 84.024,39.510 83.786,39.077 83.665 C 38.190 83.417,36.333 81.729,36.333 81.171 C 36.333 80.999,36.128 80.615,35.877 80.316 C 35.087 79.378,35.117 76.231,35.923 75.467 C 36.145 75.256,36.329 74.933,36.331 74.750 C 36.334 74.417,37.736 72.833,38.028 72.833 C 38.113 72.833,38.348 72.642,38.550 72.408 C 38.810 72.106,39.158 71.949,39.750 71.864 L 40.583 71.746 40.948 70.610 C 41.149 69.986,41.385 69.387,41.472 69.279 C 41.559 69.171,41.753 68.602,41.903 68.013 C 42.068 67.362,42.305 66.851,42.506 66.710 C 42.689 66.582,42.946 66.220,43.078 65.904 C 43.215 65.575,43.498 65.262,43.742 65.170 C 43.976 65.081,44.167 64.893,44.167 64.751 C 44.167 64.610,44.448 64.365,44.792 64.206 C 45.135 64.047,45.551 63.751,45.715 63.549 C 45.912 63.305,46.348 63.115,47.007 62.985 C 47.553 62.878,48.000 62.737,48.000 62.672 C 48.000 62.349,49.101 62.101,50.917 62.013 L 52.917 61.917 53.015 59.417 C 53.126 56.561,53.252 55.765,53.691 55.139 C 53.872 54.881,54.045 54.255,54.105 53.639 C 54.176 52.901,54.348 52.358,54.674 51.833 C 54.931 51.421,55.192 50.805,55.254 50.465 C 55.317 50.125,55.585 49.619,55.851 49.341 C 56.116 49.064,56.333 48.682,56.333 48.493 C 56.333 48.305,56.596 47.880,56.917 47.550 C 57.237 47.219,57.500 46.859,57.500 46.749 C 57.500 46.639,57.706 46.323,57.958 46.045 C 58.210 45.768,58.754 45.144,59.167 44.659 C 60.238 43.399,60.979 42.704,62.000 41.999 C 62.321 41.777,62.782 41.387,63.025 41.131 C 63.268 40.876,63.595 40.667,63.751 40.667 C 63.907 40.667,64.177 40.486,64.351 40.265 C 64.540 40.025,65.001 39.779,65.500 39.651 C 65.958 39.533,66.333 39.357,66.333 39.259 C 66.333 38.974,66.888 38.704,67.734 38.577 C 68.164 38.512,68.610 38.366,68.725 38.251 C 69.195 37.782,70.062 37.491,71.287 37.392 C 72.000 37.335,72.666 37.223,72.768 37.143 C 73.737 36.385,79.862 36.240,81.333 36.941 " stroke="none" fill="#ffffff" fill-rule="evenodd"></path><path id="path2" d="M27.445 16.277 C 27.383 16.339,27.333 16.601,27.333 16.861 C 27.333 17.271,27.269 17.333,26.851 17.333 C 26.565 17.333,26.328 17.441,26.268 17.597 C 26.136 17.942,26.136 115.392,26.268 115.736 C 26.327 115.891,26.564 116.000,26.841 116.000 C 27.251 116.000,27.319 116.070,27.364 116.542 L 27.417 117.083 76.566 117.125 C 112.760 117.156,125.775 117.118,125.941 116.980 C 126.065 116.877,126.167 116.619,126.167 116.407 C 126.167 116.111,126.272 116.010,126.625 115.969 L 127.083 115.917 127.083 66.667 L 127.083 17.417 126.657 17.367 C 126.341 17.330,126.191 17.180,126.074 16.784 L 125.917 16.250 76.736 16.208 C 49.687 16.185,27.506 16.216,27.445 16.277 M82.959 34.152 C 83.349 34.227,83.953 34.486,84.301 34.728 C 84.680 34.990,85.165 35.168,85.509 35.171 C 86.436 35.177,87.337 35.445,87.756 35.839 C 87.971 36.041,88.507 36.272,88.948 36.352 C 89.465 36.447,89.868 36.640,90.083 36.898 C 90.267 37.117,90.645 37.345,90.925 37.404 C 91.204 37.463,91.637 37.701,91.886 37.932 C 92.136 38.164,92.604 38.463,92.926 38.598 C 93.248 38.733,93.579 39.019,93.660 39.234 C 93.742 39.449,94.001 39.673,94.235 39.731 C 94.497 39.797,94.700 39.993,94.762 40.238 C 94.822 40.477,95.026 40.679,95.270 40.740 C 95.494 40.796,95.762 41.028,95.865 41.254 C 95.968 41.480,96.303 41.813,96.610 41.993 C 96.951 42.195,97.167 42.453,97.167 42.661 C 97.167 42.876,97.276 43.000,97.467 43.000 C 97.843 43.000,98.167 43.314,98.167 43.680 C 98.167 43.834,98.392 44.053,98.667 44.167 C 98.942 44.281,99.167 44.480,99.167 44.609 C 99.167 44.739,99.429 45.106,99.749 45.426 C 100.141 45.819,100.366 46.226,100.438 46.677 C 100.508 47.116,100.665 47.409,100.897 47.531 C 101.378 47.784,101.494 47.993,101.497 48.611 C 101.501 49.360,101.654 49.670,102.106 49.842 C 102.323 49.924,102.500 50.129,102.500 50.296 C 102.500 50.833,102.860 51.000,104.021 51.000 C 104.955 51.000,105.219 51.065,105.612 51.395 C 106.032 51.746,106.291 51.798,107.985 51.866 C 109.774 51.939,109.907 51.969,110.235 52.368 C 110.452 52.632,110.834 52.834,111.250 52.904 C 112.327 53.088,112.461 53.157,112.570 53.589 C 112.650 53.908,112.782 54.000,113.159 54.000 C 113.897 54.000,114.483 54.281,114.690 54.734 C 114.792 54.958,115.052 55.185,115.268 55.240 C 115.484 55.294,115.776 55.562,115.918 55.836 C 116.059 56.109,116.289 56.333,116.429 56.333 C 116.568 56.333,116.809 56.554,116.964 56.825 C 117.119 57.095,117.420 57.395,117.632 57.492 C 117.844 57.588,118.093 57.885,118.186 58.150 C 118.279 58.416,118.499 58.671,118.675 58.717 C 119.042 58.813,119.333 59.460,119.333 60.178 C 119.333 60.490,119.419 60.667,119.571 60.667 C 120.009 60.667,120.500 61.502,120.500 62.246 C 120.500 62.827,120.569 62.978,120.908 63.132 C 122.034 63.645,121.982 75.219,120.852 75.577 C 120.625 75.649,120.519 75.902,120.444 76.546 C 120.366 77.218,120.238 77.508,119.880 77.816 C 119.625 78.035,119.335 78.448,119.236 78.732 C 119.121 79.062,118.924 79.269,118.694 79.303 C 118.477 79.335,118.333 79.476,118.333 79.658 C 118.333 80.187,117.850 81.139,117.530 81.241 C 117.359 81.295,117.117 81.532,116.991 81.767 C 116.865 82.002,116.564 82.297,116.322 82.422 C 116.081 82.547,115.764 82.831,115.619 83.052 C 115.458 83.298,115.075 83.527,114.636 83.639 C 114.111 83.773,113.840 83.960,113.633 84.328 C 113.436 84.678,113.222 84.833,112.937 84.833 C 112.711 84.833,112.305 85.019,112.036 85.245 C 111.391 85.788,110.801 86.000,109.934 86.000 C 109.355 86.000,109.183 86.074,109.010 86.398 C 108.675 87.025,109.337 87.013,73.293 87.008 C 36.661 87.004,38.242 87.038,37.935 86.237 C 37.885 86.107,37.671 86.000,37.459 86.000 C 36.933 86.000,36.333 85.551,36.333 85.157 C 36.333 84.927,36.218 84.833,35.936 84.833 C 35.647 84.833,35.464 84.678,35.270 84.268 C 35.107 83.924,34.838 83.662,34.584 83.598 C 34.278 83.522,34.167 83.383,34.167 83.077 C 34.167 82.799,34.034 82.599,33.768 82.478 C 32.589 81.941,32.573 73.679,33.751 73.227 C 33.879 73.177,34.068 72.881,34.172 72.569 C 34.297 72.188,34.493 71.966,34.764 71.898 C 35.008 71.837,35.210 71.635,35.271 71.392 C 35.333 71.144,35.584 70.900,35.920 70.759 C 36.221 70.633,36.517 70.376,36.577 70.188 C 36.678 69.869,36.947 69.772,38.167 69.612 C 38.337 69.589,38.451 69.299,38.524 68.704 C 38.624 67.885,38.934 67.212,39.447 66.696 C 39.568 66.575,39.667 66.327,39.667 66.144 C 39.667 65.630,39.979 65.167,40.325 65.167 C 40.560 65.167,40.665 65.000,40.752 64.491 C 40.918 63.505,42.332 62.086,43.345 61.886 C 43.908 61.775,44.095 61.658,44.134 61.393 C 44.189 61.011,44.795 60.667,45.412 60.667 C 45.644 60.667,45.955 60.481,46.159 60.222 C 46.479 59.815,46.643 59.767,48.124 59.655 C 49.198 59.574,49.763 59.462,49.810 59.320 C 49.849 59.202,50.049 58.951,50.253 58.762 C 50.595 58.445,50.635 58.206,50.749 55.846 C 50.869 53.370,50.892 53.250,51.354 52.612 C 51.644 52.211,51.833 51.740,51.833 51.417 C 51.833 50.618,52.127 49.930,52.545 49.747 C 52.842 49.616,52.927 49.424,52.967 48.793 C 53.011 48.117,53.101 47.940,53.592 47.565 C 54.048 47.218,54.167 47.010,54.167 46.562 C 54.167 46.162,54.292 45.889,54.599 45.624 C 54.837 45.418,55.141 45.040,55.274 44.784 C 55.407 44.528,55.700 44.235,55.925 44.133 C 56.149 44.030,56.333 43.818,56.333 43.660 C 56.333 43.322,56.620 43.060,57.083 42.975 C 57.280 42.938,57.439 42.756,57.471 42.531 C 57.501 42.318,57.711 42.063,57.942 41.958 C 58.171 41.854,58.467 41.559,58.599 41.303 C 58.731 41.047,59.019 40.793,59.239 40.738 C 59.474 40.679,59.679 40.474,59.738 40.238 C 59.799 39.997,60.002 39.797,60.252 39.735 C 60.480 39.677,60.760 39.439,60.875 39.204 C 60.989 38.969,61.321 38.695,61.612 38.596 C 61.902 38.498,62.368 38.213,62.646 37.963 C 62.925 37.714,63.362 37.460,63.618 37.399 C 63.874 37.338,64.233 37.111,64.417 36.894 C 64.638 36.633,65.049 36.444,65.639 36.335 C 66.185 36.234,66.634 36.038,66.805 35.827 C 67.101 35.461,68.048 35.177,68.991 35.171 C 69.338 35.168,69.822 34.989,70.213 34.718 C 70.570 34.471,71.174 34.218,71.556 34.155 C 72.556 33.992,82.117 33.989,82.959 34.152 M74.162 38.152 C 71.605 38.243,71.379 38.277,71.004 38.626 C 70.552 39.049,69.693 39.331,68.859 39.332 C 68.454 39.333,68.172 39.471,67.833 39.833 C 67.496 40.195,67.211 40.334,66.808 40.336 C 66.169 40.339,65.937 40.461,65.784 40.878 C 65.657 41.221,65.010 41.500,64.341 41.500 C 63.984 41.500,63.845 41.596,63.770 41.896 C 63.712 42.129,63.459 42.379,63.155 42.505 C 62.871 42.623,62.569 42.902,62.484 43.125 C 62.399 43.349,62.177 43.572,61.991 43.621 C 61.805 43.669,61.545 43.919,61.412 44.176 C 61.279 44.433,61.015 44.692,60.826 44.752 C 60.636 44.813,60.412 45.044,60.327 45.267 C 60.242 45.490,59.993 45.741,59.773 45.824 C 59.552 45.909,59.295 46.204,59.196 46.488 C 59.077 46.828,58.906 47.000,58.687 47.000 C 58.355 47.000,58.281 47.136,58.088 48.101 C 58.027 48.404,57.821 48.706,57.590 48.830 C 57.347 48.960,57.157 49.252,57.092 49.594 C 57.034 49.906,56.807 50.279,56.572 50.450 C 56.246 50.688,56.116 50.995,55.970 51.879 C 55.836 52.689,55.668 53.120,55.371 53.416 C 54.998 53.790,54.946 54.019,54.816 55.897 C 54.663 58.086,54.497 58.781,54.086 58.939 C 53.884 59.016,53.833 59.364,53.833 60.674 C 53.833 63.604,53.762 63.666,50.363 63.669 C 47.435 63.671,47.067 63.727,46.947 64.184 C 46.901 64.360,46.604 64.613,46.287 64.745 C 45.506 65.071,43.883 66.659,43.738 67.239 C 43.673 67.497,43.416 67.826,43.166 67.970 C 42.740 68.214,42.705 68.323,42.607 69.717 C 42.474 71.590,41.705 72.667,40.500 72.667 C 40.326 72.667,40.123 72.765,40.050 72.885 C 39.825 73.253,39.114 73.667,38.704 73.667 C 38.423 73.667,38.268 73.804,38.141 74.168 C 38.041 74.455,37.813 74.707,37.607 74.759 C 37.044 74.900,36.587 77.862,36.927 79.161 C 37.059 79.663,37.167 80.236,37.167 80.435 C 37.167 80.678,37.298 80.830,37.565 80.897 C 37.792 80.954,38.004 81.160,38.058 81.376 C 38.114 81.598,38.364 81.835,38.660 81.946 C 38.939 82.052,39.167 82.254,39.167 82.396 C 39.167 82.987,39.580 83.000,58.572 83.000 L 77.333 83.000 77.333 66.750 C 77.333 51.692,77.281 49.684,76.921 50.819 C 76.813 51.160,76.044 51.500,75.383 51.500 C 75.091 51.500,74.937 51.631,74.814 51.985 C 74.710 52.281,74.488 52.509,74.242 52.570 C 74.021 52.626,73.724 52.895,73.582 53.169 C 73.435 53.454,73.191 53.667,73.011 53.667 C 72.839 53.667,72.384 53.929,72.000 54.250 C 71.339 54.802,71.236 54.833,70.057 54.833 C 67.990 54.833,67.509 54.391,67.504 52.485 L 67.500 51.219 68.084 50.904 C 68.406 50.731,68.711 50.457,68.762 50.295 C 68.877 49.933,69.222 49.746,70.049 49.596 C 70.507 49.514,70.724 49.371,70.835 49.079 C 70.919 48.857,71.178 48.628,71.410 48.570 C 71.642 48.512,71.927 48.266,72.043 48.024 C 72.190 47.716,72.453 47.535,72.918 47.422 C 73.612 47.254,74.000 46.986,74.000 46.674 C 74.000 46.574,74.235 46.445,74.522 46.387 C 74.847 46.322,75.143 46.112,75.304 45.830 C 75.447 45.581,75.805 45.290,76.100 45.183 C 76.394 45.077,76.678 44.876,76.732 44.737 C 76.851 44.428,77.833 44.000,78.426 44.000 C 78.674 44.000,79.001 43.838,79.182 43.625 L 79.500 43.250 79.818 43.625 C 79.993 43.831,80.326 44.000,80.556 44.000 C 81.111 44.000,81.461 44.374,81.600 45.115 C 81.663 45.447,81.815 45.913,81.939 46.151 C 82.125 46.507,82.165 49.797,82.166 64.705 L 82.167 82.827 82.543 82.921 C 83.621 83.192,108.356 82.918,108.515 82.633 C 108.854 82.029,109.200 81.833,109.933 81.833 C 110.564 81.833,110.698 81.773,110.828 81.431 C 110.919 81.190,111.220 80.942,111.574 80.814 C 111.900 80.696,112.167 80.509,112.167 80.398 C 112.167 80.196,113.433 79.500,113.799 79.500 C 113.906 79.500,114.045 79.295,114.108 79.044 C 114.171 78.793,114.389 78.456,114.592 78.297 C 114.795 78.137,115.077 77.717,115.218 77.364 C 115.360 77.010,115.669 76.595,115.904 76.440 C 116.179 76.260,116.333 76.007,116.333 75.735 C 116.333 75.199,116.605 74.663,117.061 74.301 C 117.642 73.840,117.868 69.924,117.531 66.167 C 117.428 65.021,117.341 63.990,117.338 63.875 C 117.336 63.760,117.186 63.667,117.006 63.667 C 116.622 63.667,116.333 63.202,116.333 62.583 C 116.333 62.009,116.053 61.500,115.735 61.500 C 115.596 61.500,115.402 61.270,115.304 60.988 C 115.205 60.704,114.948 60.409,114.727 60.324 C 114.507 60.241,114.255 59.982,114.167 59.750 C 114.078 59.518,113.819 59.256,113.591 59.170 C 113.358 59.081,113.130 58.827,113.070 58.589 C 113.007 58.340,112.845 58.167,112.674 58.167 C 112.365 58.167,111.833 57.671,111.833 57.383 C 111.833 57.205,111.082 57.000,110.432 57.000 C 110.209 57.000,109.960 56.810,109.777 56.500 C 109.514 56.056,109.393 56.000,108.688 56.000 C 107.285 56.000,105.950 55.677,105.535 55.237 C 105.019 54.691,103.086 54.651,102.123 55.167 C 101.009 55.764,99.667 55.253,99.667 54.232 C 99.667 54.027,99.453 53.645,99.191 53.383 C 98.835 53.028,98.668 52.638,98.527 51.837 C 98.390 51.061,98.228 50.672,97.937 50.425 C 97.716 50.237,97.490 49.886,97.436 49.644 C 97.381 49.403,97.116 48.969,96.845 48.679 C 96.561 48.376,96.332 47.927,96.302 47.618 C 96.263 47.218,96.160 47.070,95.891 47.032 C 95.677 47.002,95.449 46.780,95.326 46.483 C 95.213 46.209,94.905 45.873,94.643 45.738 C 94.377 45.600,94.167 45.354,94.167 45.180 C 94.167 44.984,94.006 44.829,93.733 44.761 C 93.458 44.692,93.230 44.470,93.113 44.159 C 93.004 43.871,92.805 43.667,92.634 43.667 C 92.474 43.667,92.231 43.452,92.095 43.190 C 91.960 42.928,91.625 42.621,91.351 42.507 C 91.053 42.384,90.832 42.156,90.801 41.942 C 90.759 41.647,90.607 41.567,89.938 41.490 C 89.397 41.428,89.051 41.289,88.902 41.073 C 88.452 40.424,88.309 40.333,87.727 40.333 C 87.291 40.333,87.017 40.208,86.692 39.861 C 86.340 39.485,86.047 39.365,85.253 39.272 C 84.319 39.162,83.714 38.902,83.196 38.386 C 83.035 38.225,82.328 38.166,80.530 38.165 C 79.184 38.164,77.821 38.138,77.500 38.108 C 77.179 38.078,75.677 38.098,74.162 38.152 " stroke="none" fill="#ff0000" fill-rule="evenodd"></path><path id="path3" d="M71.556 34.155 C 71.174 34.218,70.570 34.471,70.213 34.718 C 69.822 34.989,69.338 35.168,68.991 35.171 C 68.048 35.177,67.101 35.461,66.805 35.827 C 66.634 36.038,66.185 36.234,65.639 36.335 C 65.049 36.444,64.638 36.633,64.417 36.894 C 64.233 37.111,63.874 37.338,63.618 37.399 C 63.362 37.460,62.925 37.714,62.646 37.963 C 62.368 38.213,61.902 38.498,61.612 38.596 C 61.321 38.695,60.989 38.969,60.875 39.204 C 60.760 39.439,60.480 39.677,60.252 39.735 C 60.002 39.797,59.799 39.997,59.738 40.238 C 59.679 40.474,59.474 40.679,59.239 40.738 C 59.019 40.793,58.731 41.047,58.599 41.303 C 58.467 41.559,58.171 41.854,57.942 41.958 C 57.711 42.063,57.501 42.318,57.471 42.531 C 57.439 42.756,57.280 42.938,57.083 42.975 C 56.620 43.060,56.333 43.322,56.333 43.660 C 56.333 43.818,56.149 44.030,55.925 44.133 C 55.700 44.235,55.407 44.528,55.274 44.784 C 55.141 45.040,54.837 45.418,54.599 45.624 C 54.292 45.889,54.167 46.162,54.167 46.562 C 54.167 47.010,54.048 47.218,53.592 47.565 C 53.101 47.940,53.011 48.117,52.967 48.793 C 52.927 49.424,52.842 49.616,52.545 49.747 C 52.127 49.930,51.833 50.618,51.833 51.417 C 51.833 51.740,51.644 52.211,51.354 52.612 C 50.892 53.250,50.869 53.370,50.749 55.846 C 50.635 58.206,50.595 58.445,50.253 58.762 C 50.049 58.951,49.849 59.202,49.810 59.320 C 49.763 59.462,49.198 59.574,48.124 59.655 C 46.643 59.767,46.479 59.815,46.159 60.222 C 45.955 60.481,45.644 60.667,45.412 60.667 C 44.795 60.667,44.189 61.011,44.134 61.393 C 44.095 61.658,43.908 61.775,43.345 61.886 C 42.332 62.086,40.918 63.505,40.752 64.491 C 40.665 65.000,40.560 65.167,40.325 65.167 C 39.979 65.167,39.667 65.630,39.667 66.144 C 39.667 66.327,39.568 66.575,39.447 66.696 C 38.934 67.212,38.624 67.885,38.524 68.704 C 38.451 69.299,38.337 69.589,38.167 69.612 C 36.947 69.772,36.678 69.869,36.577 70.188 C 36.517 70.376,36.221 70.633,35.920 70.759 C 35.584 70.900,35.333 71.144,35.271 71.392 C 35.210 71.635,35.008 71.837,34.764 71.898 C 34.493 71.966,34.297 72.188,34.172 72.569 C 34.068 72.881,33.879 73.177,33.751 73.227 C 33.109 73.473,32.983 74.230,32.975 77.883 C 32.967 81.661,33.052 82.152,33.768 82.478 C 34.034 82.599,34.167 82.799,34.167 83.077 C 34.167 83.383,34.278 83.522,34.584 83.598 C 34.838 83.662,35.107 83.924,35.270 84.268 C 35.464 84.678,35.647 84.833,35.936 84.833 C 36.218 84.833,36.333 84.927,36.333 85.157 C 36.333 85.551,36.933 86.000,37.459 86.000 C 37.671 86.000,37.885 86.107,37.935 86.237 C 38.242 87.038,36.661 87.004,73.293 87.008 C 109.337 87.013,108.675 87.025,109.010 86.398 C 109.183 86.074,109.355 86.000,109.934 86.000 C 110.801 86.000,111.391 85.788,112.036 85.245 C 112.305 85.019,112.711 84.833,112.937 84.833 C 113.222 84.833,113.436 84.678,113.633 84.328 C 113.840 83.960,114.111 83.773,114.636 83.639 C 115.075 83.527,115.458 83.298,115.619 83.052 C 115.764 82.831,116.081 82.547,116.322 82.422 C 116.564 82.297,116.865 82.002,116.991 81.767 C 117.117 81.532,117.359 81.295,117.530 81.241 C 117.850 81.139,118.333 80.187,118.333 79.658 C 118.333 79.476,118.477 79.335,118.694 79.303 C 118.924 79.269,119.121 79.062,119.236 78.732 C 119.335 78.448,119.625 78.035,119.880 77.816 C 120.238 77.508,120.366 77.218,120.444 76.546 C 120.519 75.902,120.625 75.649,120.852 75.577 C 121.982 75.219,122.034 63.645,120.908 63.132 C 120.569 62.978,120.500 62.827,120.500 62.246 C 120.500 61.502,120.009 60.667,119.571 60.667 C 119.419 60.667,119.333 60.490,119.333 60.178 C 119.333 59.460,119.042 58.813,118.675 58.717 C 118.499 58.671,118.279 58.416,118.186 58.150 C 118.093 57.885,117.844 57.588,117.632 57.492 C 117.420 57.395,117.119 57.095,116.964 56.825 C 116.809 56.554,116.568 56.333,116.429 56.333 C 116.289 56.333,116.059 56.109,115.918 55.836 C 115.776 55.562,115.484 55.294,115.268 55.240 C 115.052 55.185,114.792 54.958,114.690 54.734 C 114.483 54.281,113.897 54.000,113.159 54.000 C 112.782 54.000,112.650 53.908,112.570 53.589 C 112.461 53.157,112.327 53.088,111.250 52.904 C 110.834 52.834,110.452 52.632,110.235 52.368 C 109.907 51.969,109.774 51.939,107.985 51.866 C 106.291 51.798,106.032 51.746,105.612 51.395 C 105.219 51.065,104.955 51.000,104.021 51.000 C 102.860 51.000,102.500 50.833,102.500 50.296 C 102.500 50.129,102.323 49.924,102.106 49.842 C 101.654 49.670,101.501 49.360,101.497 48.611 C 101.494 47.993,101.378 47.784,100.897 47.531 C 100.665 47.409,100.508 47.116,100.438 46.677 C 100.366 46.226,100.141 45.819,99.749 45.426 C 99.429 45.106,99.167 44.739,99.167 44.609 C 99.167 44.480,98.942 44.281,98.667 44.167 C 98.392 44.053,98.167 43.834,98.167 43.680 C 98.167 43.314,97.843 43.000,97.467 43.000 C 97.276 43.000,97.167 42.876,97.167 42.661 C 97.167 42.453,96.951 42.195,96.610 41.993 C 96.303 41.813,95.968 41.480,95.865 41.254 C 95.762 41.028,95.494 40.796,95.270 40.740 C 95.026 40.679,94.822 40.477,94.762 40.238 C 94.700 39.993,94.497 39.797,94.235 39.731 C 94.001 39.673,93.742 39.449,93.660 39.234 C 93.579 39.019,93.248 38.733,92.926 38.598 C 92.604 38.463,92.136 38.164,91.886 37.932 C 91.637 37.701,91.204 37.463,90.925 37.404 C 90.645 37.345,90.267 37.117,90.083 36.898 C 89.868 36.640,89.465 36.447,88.948 36.352 C 88.507 36.272,87.971 36.041,87.756 35.839 C 87.337 35.445,86.436 35.177,85.509 35.171 C 85.165 35.168,84.680 34.990,84.301 34.728 C 83.953 34.486,83.349 34.227,82.959 34.152 C 82.117 33.989,72.556 33.992,71.556 34.155 M82.667 34.846 C 83.809 35.263,85.299 35.653,85.784 35.661 C 85.986 35.664,86.428 35.854,86.766 36.083 C 87.104 36.313,87.507 36.500,87.662 36.500 C 88.011 36.500,91.228 38.134,91.307 38.351 C 91.338 38.438,91.620 38.615,91.934 38.747 C 92.551 39.004,93.489 39.717,94.518 40.708 C 94.875 41.052,95.237 41.333,95.322 41.333 C 95.408 41.333,95.525 41.484,95.584 41.668 C 95.642 41.853,95.910 42.117,96.178 42.256 C 96.447 42.395,96.667 42.573,96.667 42.652 C 96.667 42.731,97.122 43.268,97.679 43.846 C 98.235 44.423,98.808 45.126,98.952 45.406 C 99.096 45.687,99.391 46.129,99.607 46.388 C 99.823 46.647,100.000 46.960,100.000 47.083 C 100.000 47.207,100.191 47.534,100.424 47.811 C 100.657 48.088,100.967 48.675,101.113 49.116 C 101.259 49.556,101.506 50.067,101.662 50.250 C 101.818 50.433,102.114 50.865,102.320 51.208 C 102.526 51.552,102.819 51.834,102.972 51.834 C 105.253 51.839,109.327 52.441,109.750 52.836 C 109.933 53.007,110.452 53.229,110.903 53.330 C 111.372 53.435,111.961 53.724,112.283 54.007 C 112.592 54.278,112.976 54.500,113.135 54.500 C 114.130 54.500,118.284 58.699,118.954 60.382 C 119.108 60.768,119.406 61.220,119.617 61.387 C 119.862 61.582,120.000 61.869,120.000 62.186 C 120.000 62.458,120.240 63.141,120.532 63.703 C 121.585 65.725,121.577 72.628,120.519 74.833 C 120.234 75.429,120.000 76.060,120.000 76.234 C 120.000 76.409,119.827 76.784,119.615 77.068 C 119.404 77.351,119.098 77.869,118.936 78.218 C 118.774 78.568,118.534 78.895,118.403 78.945 C 118.272 78.995,118.048 79.284,117.904 79.586 C 117.490 80.459,114.845 83.035,114.129 83.262 C 113.940 83.322,113.586 83.575,113.342 83.824 C 113.098 84.074,112.640 84.368,112.324 84.478 C 112.008 84.588,111.480 84.857,111.150 85.075 C 110.819 85.294,110.182 85.525,109.733 85.589 C 109.284 85.653,108.542 85.903,108.083 86.144 L 107.250 86.583 73.413 86.583 L 39.575 86.583 39.092 86.204 C 38.827 85.995,38.283 85.742,37.884 85.641 C 37.485 85.540,37.029 85.297,36.871 85.100 C 36.713 84.902,36.340 84.569,36.042 84.359 C 35.744 84.149,35.500 83.883,35.500 83.767 C 35.500 83.651,35.322 83.461,35.104 83.345 C 34.887 83.228,34.531 82.800,34.313 82.394 C 34.095 81.988,33.786 81.414,33.625 81.119 C 33.135 80.217,33.197 75.255,33.708 74.474 C 33.915 74.159,34.226 73.642,34.399 73.326 C 34.573 73.009,34.917 72.559,35.163 72.326 C 35.410 72.093,35.680 71.791,35.764 71.655 C 36.003 71.267,37.538 70.235,38.203 70.016 C 38.797 69.819,39.000 69.568,39.000 69.028 C 39.000 68.875,39.222 68.337,39.493 67.833 C 39.765 67.329,39.990 66.758,39.993 66.564 C 39.997 66.371,40.176 66.033,40.392 65.814 C 40.608 65.596,40.995 65.080,41.252 64.669 C 41.785 63.818,43.286 62.333,43.614 62.333 C 43.734 62.333,44.114 62.081,44.458 61.773 C 44.803 61.464,45.356 61.164,45.691 61.102 C 46.026 61.041,46.476 60.856,46.691 60.691 C 47.237 60.272,47.564 60.171,48.948 59.996 C 50.937 59.744,50.895 59.815,51.166 56.260 C 51.304 54.455,51.395 54.008,51.748 53.405 C 51.978 53.012,52.168 52.516,52.169 52.304 C 52.173 51.699,52.555 50.586,52.863 50.278 C 53.017 50.125,53.260 49.597,53.403 49.105 C 53.546 48.613,53.789 48.107,53.942 47.980 C 54.095 47.854,54.361 47.434,54.532 47.049 C 54.703 46.663,54.917 46.301,55.007 46.246 C 55.097 46.190,55.314 45.868,55.488 45.530 C 55.737 45.047,56.932 43.656,58.127 42.460 C 59.872 40.714,61.743 39.147,62.509 38.791 C 62.834 38.639,63.234 38.369,63.396 38.189 C 63.558 38.010,63.883 37.815,64.117 37.756 C 64.351 37.698,64.814 37.464,65.146 37.236 C 65.478 37.009,66.138 36.709,66.613 36.570 C 67.088 36.431,67.662 36.170,67.889 35.992 C 68.117 35.813,68.455 35.667,68.641 35.667 C 69.127 35.667,71.216 35.166,71.415 35.002 C 72.153 34.394,81.089 34.269,82.667 34.846 M75.802 37.360 C 75.006 37.421,74.219 37.514,74.052 37.566 C 73.886 37.619,73.053 37.734,72.202 37.821 C 71.183 37.927,70.470 38.093,70.118 38.310 C 69.824 38.490,69.137 38.754,68.593 38.895 C 68.048 39.036,67.409 39.295,67.173 39.469 C 66.937 39.644,66.558 39.844,66.330 39.915 C 66.103 39.986,65.534 40.297,65.066 40.605 C 64.598 40.914,64.132 41.167,64.030 41.167 C 63.928 41.167,63.586 41.410,63.270 41.708 C 62.954 42.006,62.344 42.550,61.915 42.917 C 59.749 44.768,56.667 48.471,56.667 49.223 C 56.667 49.305,56.453 49.616,56.192 49.914 C 55.910 50.234,55.670 50.744,55.603 51.165 C 55.540 51.556,55.310 52.185,55.090 52.563 C 54.842 52.989,54.585 53.882,54.411 54.917 C 54.257 55.833,54.092 56.648,54.044 56.728 C 53.821 57.096,53.642 58.250,53.518 60.127 C 53.341 62.789,53.350 62.778,51.113 62.883 C 48.891 62.988,47.113 63.345,46.540 63.802 C 46.289 64.002,45.806 64.315,45.468 64.498 C 44.712 64.906,43.740 65.886,43.316 66.667 C 43.141 66.987,42.850 67.438,42.669 67.667 C 42.476 67.909,42.274 68.536,42.185 69.167 C 41.939 70.894,40.973 72.333,40.059 72.333 C 39.857 72.333,39.469 72.521,39.197 72.750 C 38.925 72.979,38.637 73.167,38.558 73.167 C 38.289 73.167,36.667 74.947,36.667 75.242 C 36.667 75.403,36.479 75.908,36.250 76.364 C 35.718 77.423,35.719 78.330,36.252 79.475 C 36.480 79.965,36.667 80.471,36.667 80.600 C 36.667 80.851,38.388 82.643,39.038 83.069 C 40.021 83.713,76.631 83.985,77.391 83.355 C 77.761 83.048,77.822 50.503,77.454 50.197 C 77.154 49.949,75.141 50.954,74.346 51.749 C 73.626 52.467,72.784 53.105,72.083 53.460 C 71.717 53.646,71.274 53.956,71.099 54.149 C 70.147 55.202,67.896 53.998,67.957 52.468 C 67.989 51.669,68.846 50.751,70.116 50.154 C 70.500 49.974,70.953 49.650,71.122 49.436 C 71.291 49.221,71.670 48.921,71.965 48.768 C 72.259 48.616,72.500 48.427,72.500 48.347 C 72.500 48.268,72.816 48.076,73.203 47.922 C 73.835 47.669,74.461 47.216,75.650 46.153 C 75.870 45.956,76.320 45.672,76.650 45.521 C 76.980 45.371,77.421 45.099,77.630 44.916 C 78.191 44.425,79.382 44.162,80.132 44.363 C 81.346 44.689,81.241 42.970,81.333 64.019 C 81.427 85.477,81.275 83.371,82.745 83.591 C 83.777 83.746,106.047 83.546,107.445 83.369 C 108.355 83.254,108.766 83.112,109.167 82.776 C 109.456 82.532,109.863 82.333,110.071 82.333 C 110.280 82.333,110.706 82.147,111.017 81.919 C 111.328 81.692,111.808 81.359,112.083 81.181 C 113.419 80.314,113.793 80.016,114.612 79.167 C 115.097 78.662,115.497 78.175,115.499 78.083 C 115.501 77.992,115.765 77.587,116.085 77.185 C 116.405 76.782,116.667 76.362,116.667 76.250 C 116.667 76.138,116.860 75.761,117.097 75.413 C 117.333 75.065,117.642 74.285,117.784 73.681 C 117.925 73.077,118.182 72.107,118.354 71.524 C 118.764 70.136,118.759 68.337,118.342 66.976 C 118.164 66.393,117.966 65.504,117.903 65.000 C 117.779 64.005,117.621 63.598,117.159 63.083 C 116.995 62.900,116.798 62.512,116.722 62.221 C 116.548 61.557,115.943 60.798,114.231 59.095 C 112.175 57.050,111.763 56.714,111.149 56.584 C 110.838 56.518,110.412 56.306,110.202 56.114 C 109.978 55.908,109.293 55.648,108.535 55.483 C 107.828 55.328,106.800 55.037,106.250 54.836 C 105.338 54.502,105.045 54.478,102.928 54.567 C 100.489 54.668,100.000 54.551,100.000 53.863 C 100.000 53.724,99.776 53.214,99.503 52.730 C 99.230 52.246,98.958 51.547,98.899 51.177 C 98.840 50.806,98.632 50.331,98.437 50.121 C 98.243 49.911,97.935 49.404,97.755 48.995 C 97.574 48.585,97.379 48.212,97.321 48.167 C 97.264 48.121,97.021 47.771,96.782 47.390 C 96.543 47.008,96.176 46.515,95.966 46.293 C 95.755 46.072,95.091 45.371,94.489 44.737 C 93.886 44.102,93.000 43.246,92.518 42.833 C 92.037 42.421,91.448 41.877,91.211 41.625 C 90.973 41.373,90.658 41.167,90.512 41.167 C 90.365 41.167,89.872 40.915,89.414 40.607 C 88.957 40.300,88.396 39.990,88.167 39.919 C 87.938 39.848,87.539 39.641,87.282 39.460 C 87.024 39.278,86.406 39.023,85.908 38.893 C 85.410 38.763,84.745 38.505,84.431 38.320 C 84.054 38.097,83.330 37.928,82.305 37.822 C 81.450 37.734,80.620 37.621,80.461 37.571 C 79.843 37.375,77.180 37.255,75.802 37.360 M80.530 38.165 C 82.328 38.166,83.035 38.225,83.196 38.386 C 83.714 38.902,84.319 39.162,85.253 39.272 C 86.047 39.365,86.340 39.485,86.692 39.861 C 87.017 40.208,87.291 40.333,87.727 40.333 C 88.309 40.333,88.452 40.424,88.902 41.073 C 89.051 41.289,89.397 41.428,89.938 41.490 C 90.607 41.567,90.759 41.647,90.801 41.942 C 90.832 42.156,91.053 42.384,91.351 42.507 C 91.625 42.621,91.960 42.928,92.095 43.190 C 92.231 43.452,92.474 43.667,92.634 43.667 C 92.805 43.667,93.004 43.871,93.113 44.159 C 93.230 44.470,93.458 44.692,93.733 44.761 C 94.006 44.829,94.167 44.984,94.167 45.180 C 94.167 45.354,94.377 45.600,94.643 45.738 C 94.905 45.873,95.213 46.209,95.326 46.483 C 95.449 46.780,95.677 47.002,95.891 47.032 C 96.160 47.070,96.263 47.218,96.302 47.618 C 96.332 47.927,96.561 48.376,96.845 48.679 C 97.116 48.969,97.381 49.403,97.436 49.644 C 97.490 49.886,97.716 50.237,97.937 50.425 C 98.228 50.672,98.390 51.061,98.527 51.837 C 98.668 52.638,98.835 53.028,99.191 53.383 C 99.453 53.645,99.667 54.027,99.667 54.232 C 99.667 55.253,101.009 55.764,102.123 55.167 C 103.086 54.651,105.019 54.691,105.535 55.237 C 105.950 55.677,107.285 56.000,108.688 56.000 C 109.393 56.000,109.514 56.056,109.777 56.500 C 109.960 56.810,110.209 57.000,110.432 57.000 C 111.082 57.000,111.833 57.205,111.833 57.383 C 111.833 57.671,112.365 58.167,112.674 58.167 C 112.845 58.167,113.007 58.340,113.070 58.589 C 113.130 58.827,113.358 59.081,113.591 59.170 C 113.819 59.256,114.078 59.518,114.167 59.750 C 114.255 59.982,114.507 60.241,114.727 60.324 C 114.948 60.409,115.205 60.704,115.304 60.988 C 115.402 61.270,115.596 61.500,115.735 61.500 C 116.053 61.500,116.333 62.009,116.333 62.583 C 116.333 63.202,116.622 63.667,117.006 63.667 C 117.186 63.667,117.336 63.760,117.338 63.875 C 117.341 63.990,117.428 65.021,117.531 66.167 C 117.868 69.924,117.642 73.840,117.061 74.301 C 116.605 74.663,116.333 75.199,116.333 75.735 C 116.333 76.007,116.179 76.260,115.904 76.440 C 115.669 76.595,115.360 77.010,115.218 77.364 C 115.077 77.717,114.795 78.137,114.592 78.297 C 114.389 78.456,114.171 78.793,114.108 79.044 C 114.045 79.295,113.906 79.500,113.799 79.500 C 113.433 79.500,112.167 80.196,112.167 80.398 C 112.167 80.509,111.900 80.696,111.574 80.814 C 111.220 80.942,110.919 81.190,110.828 81.431 C 110.698 81.773,110.564 81.833,109.933 81.833 C 109.200 81.833,108.854 82.029,108.515 82.633 C 108.356 82.918,83.621 83.192,82.543 82.921 L 82.167 82.827 82.166 64.705 C 82.165 49.797,82.125 46.507,81.939 46.151 C 81.815 45.913,81.663 45.447,81.600 45.115 C 81.461 44.374,81.111 44.000,80.556 44.000 C 80.326 44.000,79.993 43.831,79.818 43.625 L 79.500 43.250 79.182 43.625 C 79.001 43.838,78.674 44.000,78.426 44.000 C 77.833 44.000,76.851 44.428,76.732 44.737 C 76.678 44.876,76.394 45.077,76.100 45.183 C 75.805 45.290,75.447 45.581,75.304 45.830 C 75.143 46.112,74.847 46.322,74.522 46.387 C 74.235 46.445,74.000 46.574,74.000 46.674 C 74.000 46.986,73.612 47.254,72.918 47.422 C 72.453 47.535,72.190 47.716,72.043 48.024 C 71.927 48.266,71.642 48.512,71.410 48.570 C 71.178 48.628,70.919 48.857,70.835 49.079 C 70.724 49.371,70.507 49.514,70.049 49.596 C 69.222 49.746,68.877 49.933,68.762 50.295 C 68.711 50.457,68.406 50.731,68.084 50.904 L 67.500 51.219 67.504 52.485 C 67.509 54.391,67.990 54.833,70.057 54.833 C 71.236 54.833,71.339 54.802,72.000 54.250 C 72.384 53.929,72.839 53.667,73.011 53.667 C 73.191 53.667,73.435 53.454,73.582 53.169 C 73.724 52.895,74.021 52.626,74.242 52.570 C 74.488 52.509,74.710 52.281,74.814 51.985 C 74.937 51.631,75.091 51.500,75.383 51.500 C 76.044 51.500,76.813 51.160,76.921 50.819 C 77.281 49.684,77.333 51.692,77.333 66.750 L 77.333 83.000 58.572 83.000 C 39.580 83.000,39.167 82.987,39.167 82.396 C 39.167 82.254,38.939 82.052,38.660 81.946 C 38.364 81.835,38.114 81.598,38.058 81.376 C 38.004 81.160,37.792 80.954,37.565 80.897 C 37.298 80.830,37.167 80.678,37.167 80.435 C 37.167 80.236,37.059 79.663,36.927 79.161 C 36.587 77.862,37.044 74.900,37.607 74.759 C 37.813 74.707,38.041 74.455,38.141 74.168 C 38.268 73.804,38.423 73.667,38.704 73.667 C 39.114 73.667,39.825 73.253,40.050 72.885 C 40.123 72.765,40.326 72.667,40.500 72.667 C 41.705 72.667,42.474 71.590,42.607 69.717 C 42.705 68.323,42.740 68.214,43.166 67.970 C 43.416 67.826,43.673 67.497,43.738 67.239 C 43.883 66.659,45.506 65.071,46.287 64.745 C 46.604 64.613,46.901 64.360,46.947 64.184 C 47.067 63.727,47.435 63.671,50.363 63.669 C 53.762 63.666,53.833 63.604,53.833 60.674 C 53.833 59.364,53.884 59.016,54.086 58.939 C 54.497 58.781,54.663 58.086,54.816 55.897 C 54.946 54.019,54.998 53.790,55.371 53.416 C 55.668 53.120,55.836 52.689,55.970 51.879 C 56.116 50.995,56.246 50.688,56.572 50.450 C 56.807 50.279,57.034 49.906,57.092 49.594 C 57.157 49.252,57.347 48.960,57.590 48.830 C 57.821 48.706,58.027 48.404,58.088 48.101 C 58.281 47.136,58.355 47.000,58.687 47.000 C 58.906 47.000,59.077 46.828,59.196 46.488 C 59.295 46.204,59.552 45.909,59.773 45.824 C 59.993 45.741,60.242 45.490,60.327 45.267 C 60.412 45.044,60.636 44.813,60.826 44.752 C 61.015 44.692,61.279 44.433,61.412 44.176 C 61.545 43.919,61.805 43.669,61.991 43.621 C 62.177 43.572,62.399 43.349,62.484 43.125 C 62.569 42.902,62.871 42.623,63.155 42.505 C 63.459 42.379,63.712 42.129,63.770 41.896 C 63.845 41.596,63.984 41.500,64.341 41.500 C 65.010 41.500,65.657 41.221,65.784 40.878 C 65.937 40.461,66.169 40.339,66.808 40.336 C 67.211 40.334,67.496 40.195,67.833 39.833 C 68.172 39.471,68.454 39.333,68.859 39.332 C 69.693 39.331,70.552 39.049,71.004 38.626 C 71.404 38.253,75.534 37.924,77.500 38.108 C 77.821 38.138,79.184 38.164,80.530 38.165 " stroke="none" fill="#ff393a" fill-rule="evenodd"></path><path id="path4" d="M72.167 34.697 C 71.846 34.788,71.508 34.926,71.415 35.002 C 71.216 35.166,69.127 35.667,68.641 35.667 C 68.455 35.667,68.117 35.813,67.889 35.992 C 67.662 36.170,67.088 36.431,66.613 36.570 C 66.138 36.709,65.478 37.009,65.146 37.236 C 64.814 37.464,64.351 37.698,64.117 37.756 C 63.883 37.815,63.558 38.010,63.396 38.189 C 63.234 38.369,62.834 38.639,62.509 38.791 C 61.743 39.147,59.872 40.714,58.127 42.460 C 56.932 43.656,55.737 45.047,55.488 45.530 C 55.314 45.868,55.097 46.190,55.007 46.246 C 54.917 46.301,54.703 46.663,54.532 47.049 C 54.361 47.434,54.095 47.854,53.942 47.980 C 53.789 48.107,53.546 48.613,53.403 49.105 C 53.260 49.597,53.017 50.125,52.863 50.278 C 52.555 50.586,52.173 51.699,52.169 52.304 C 52.168 52.516,51.978 53.012,51.748 53.405 C 51.395 54.008,51.304 54.455,51.166 56.260 C 50.895 59.815,50.937 59.744,48.948 59.996 C 47.564 60.171,47.237 60.272,46.691 60.691 C 46.476 60.856,46.026 61.041,45.691 61.102 C 45.356 61.164,44.803 61.464,44.458 61.773 C 44.114 62.081,43.734 62.333,43.614 62.333 C 43.286 62.333,41.785 63.818,41.252 64.669 C 40.995 65.080,40.608 65.596,40.392 65.814 C 40.176 66.033,39.997 66.371,39.993 66.564 C 39.990 66.758,39.765 67.329,39.493 67.833 C 39.222 68.337,39.000 68.875,39.000 69.028 C 39.000 69.568,38.797 69.819,38.203 70.016 C 37.538 70.235,36.003 71.267,35.764 71.655 C 35.680 71.791,35.410 72.093,35.163 72.326 C 34.917 72.559,34.573 73.009,34.399 73.326 C 34.226 73.642,33.915 74.159,33.708 74.474 C 33.197 75.255,33.135 80.217,33.625 81.119 C 33.786 81.414,34.095 81.988,34.313 82.394 C 34.531 82.800,34.887 83.228,35.104 83.345 C 35.322 83.461,35.500 83.651,35.500 83.767 C 35.500 83.883,35.744 84.149,36.042 84.359 C 36.340 84.569,36.713 84.902,36.871 85.100 C 37.029 85.297,37.485 85.540,37.884 85.641 C 38.283 85.742,38.827 85.995,39.092 86.204 L 39.575 86.583 73.413 86.583 L 107.250 86.583 108.083 86.144 C 108.542 85.903,109.284 85.653,109.733 85.589 C 110.182 85.525,110.819 85.294,111.150 85.075 C 111.480 84.857,112.008 84.588,112.324 84.478 C 112.640 84.368,113.098 84.074,113.342 83.824 C 113.586 83.575,113.940 83.322,114.129 83.262 C 114.845 83.035,117.490 80.459,117.904 79.586 C 118.048 79.284,118.272 78.995,118.403 78.945 C 118.534 78.895,118.774 78.568,118.936 78.218 C 119.098 77.869,119.404 77.351,119.615 77.068 C 119.827 76.784,120.000 76.409,120.000 76.234 C 120.000 76.060,120.234 75.429,120.519 74.833 C 121.577 72.628,121.585 65.725,120.532 63.703 C 120.240 63.141,120.000 62.458,120.000 62.186 C 120.000 61.869,119.862 61.582,119.617 61.387 C 119.406 61.220,119.108 60.768,118.954 60.382 C 118.284 58.699,114.130 54.500,113.135 54.500 C 112.976 54.500,112.592 54.278,112.283 54.007 C 111.961 53.724,111.372 53.435,110.903 53.330 C 110.452 53.229,109.933 53.007,109.750 52.836 C 109.327 52.441,105.253 51.839,102.972 51.834 C 102.819 51.834,102.526 51.552,102.320 51.208 C 102.114 50.865,101.818 50.433,101.662 50.250 C 101.506 50.067,101.259 49.556,101.113 49.116 C 100.967 48.675,100.657 48.088,100.424 47.811 C 100.191 47.534,100.000 47.207,100.000 47.083 C 100.000 46.960,99.823 46.647,99.607 46.388 C 99.391 46.129,99.096 45.687,98.952 45.406 C 98.808 45.126,98.235 44.423,97.679 43.846 C 97.122 43.268,96.667 42.731,96.667 42.652 C 96.667 42.573,96.447 42.395,96.178 42.256 C 95.910 42.117,95.642 41.853,95.584 41.668 C 95.525 41.484,95.408 41.333,95.322 41.333 C 95.237 41.333,94.875 41.052,94.518 40.708 C 93.489 39.717,92.551 39.004,91.934 38.747 C 91.620 38.615,91.338 38.438,91.307 38.351 C 91.228 38.134,88.011 36.500,87.662 36.500 C 87.507 36.500,87.104 36.313,86.766 36.083 C 86.428 35.854,85.986 35.664,85.784 35.661 C 85.299 35.653,83.809 35.263,82.667 34.846 C 81.637 34.470,73.373 34.352,72.167 34.697 M81.435 35.299 C 81.904 35.491,82.954 35.737,83.768 35.846 C 84.847 35.990,85.454 36.169,86.000 36.502 C 86.412 36.754,87.068 36.999,87.457 37.047 C 87.876 37.099,88.373 37.311,88.678 37.567 C 88.961 37.805,89.393 38.045,89.638 38.099 C 90.536 38.298,90.651 38.356,90.747 38.659 C 90.801 38.828,91.029 39.013,91.253 39.069 C 91.477 39.125,91.906 39.385,92.205 39.646 C 92.505 39.907,92.983 40.240,93.267 40.385 C 93.551 40.531,93.909 40.841,94.062 41.075 C 94.216 41.309,94.471 41.500,94.629 41.501 C 94.787 41.502,95.045 41.727,95.201 42.003 C 95.358 42.278,95.677 42.575,95.910 42.664 C 96.179 42.766,96.333 42.953,96.333 43.177 C 96.333 43.415,96.495 43.590,96.833 43.718 C 97.110 43.822,97.333 44.029,97.333 44.181 C 97.333 44.331,97.562 44.709,97.841 45.019 C 98.120 45.329,98.495 45.862,98.675 46.203 C 98.854 46.543,99.151 46.902,99.334 47.000 C 99.517 47.098,99.667 47.345,99.667 47.548 C 99.668 47.973,100.250 49.000,100.490 49.000 C 100.579 49.000,100.699 49.281,100.757 49.625 C 100.947 50.753,100.869 50.616,102.219 52.182 C 102.401 52.393,102.984 52.471,105.088 52.565 C 107.550 52.675,107.797 52.716,108.737 53.175 C 109.291 53.445,109.979 53.667,110.266 53.667 C 110.610 53.667,111.035 53.864,111.518 54.248 C 111.921 54.568,112.417 54.831,112.621 54.832 C 112.832 54.833,113.110 55.013,113.265 55.250 C 113.415 55.479,113.628 55.667,113.737 55.667 C 113.918 55.667,115.459 56.849,115.955 57.369 C 117.046 58.511,117.500 59.059,117.500 59.232 C 117.500 59.344,117.714 59.657,117.975 59.927 C 118.237 60.196,118.539 60.687,118.647 61.017 C 118.755 61.347,119.028 61.792,119.255 62.005 C 119.525 62.259,119.667 62.573,119.667 62.921 C 119.667 63.597,119.962 64.454,120.404 65.056 C 120.892 65.721,120.942 72.753,120.463 73.282 C 120.080 73.706,119.667 74.908,119.667 75.600 C 119.667 76.006,119.557 76.231,119.266 76.422 C 119.030 76.576,118.773 76.997,118.641 77.444 C 118.507 77.899,118.242 78.328,117.980 78.514 C 117.740 78.685,117.500 79.042,117.447 79.308 C 117.388 79.603,117.219 79.824,117.011 79.879 C 116.824 79.928,116.596 80.164,116.505 80.404 C 116.414 80.643,116.150 80.911,115.920 80.999 C 115.689 81.087,115.500 81.268,115.500 81.402 C 115.500 81.536,115.200 81.814,114.833 82.020 C 114.467 82.226,114.167 82.488,114.167 82.601 C 114.167 82.715,113.911 82.892,113.598 82.995 C 113.285 83.098,112.854 83.352,112.640 83.560 C 112.425 83.767,111.913 84.034,111.502 84.153 C 111.091 84.273,110.555 84.538,110.311 84.743 C 109.998 85.006,109.559 85.144,108.810 85.215 C 108.227 85.270,107.188 85.506,106.500 85.739 L 105.250 86.164 73.099 86.166 L 40.949 86.167 40.057 85.745 C 39.567 85.513,38.837 85.262,38.435 85.187 C 37.954 85.097,37.529 84.871,37.191 84.525 C 36.909 84.236,36.542 84.000,36.375 84.000 C 36.191 84.000,35.998 83.800,35.879 83.487 C 35.773 83.205,35.536 82.935,35.354 82.887 C 35.121 82.826,34.959 82.552,34.809 81.968 C 34.686 81.488,34.434 81.008,34.214 80.835 C 33.623 80.370,33.624 75.482,34.215 74.936 C 34.425 74.742,34.691 74.308,34.805 73.971 C 35.056 73.231,36.511 71.698,37.375 71.262 C 37.719 71.089,38.000 70.880,38.000 70.799 C 38.000 70.717,38.262 70.540,38.582 70.407 C 38.940 70.257,39.263 69.956,39.422 69.623 C 39.563 69.326,39.821 68.821,39.993 68.500 C 40.165 68.179,40.357 67.557,40.420 67.118 C 40.502 66.541,40.642 66.248,40.925 66.063 C 41.140 65.922,41.401 65.550,41.505 65.236 C 41.608 64.923,41.797 64.667,41.925 64.667 C 42.053 64.667,42.274 64.442,42.417 64.167 C 42.559 63.892,42.737 63.667,42.812 63.667 C 42.887 63.667,43.219 63.404,43.550 63.083 C 43.880 62.762,44.255 62.500,44.384 62.500 C 44.512 62.500,44.853 62.275,45.140 62.000 C 45.428 61.725,45.824 61.500,46.021 61.500 C 46.604 61.500,47.725 61.131,48.083 60.822 C 48.293 60.641,48.859 60.491,49.613 60.418 C 51.300 60.254,51.369 60.152,51.519 57.575 C 51.616 55.912,51.709 55.387,51.984 54.943 C 52.175 54.633,52.413 53.803,52.521 53.068 C 52.658 52.136,52.828 51.614,53.101 51.286 C 53.453 50.864,53.830 49.882,53.832 49.383 C 53.833 49.272,54.016 49.000,54.238 48.777 C 54.461 48.554,54.727 48.063,54.828 47.686 C 54.930 47.309,55.114 47.000,55.238 47.000 C 55.362 47.000,55.618 46.681,55.807 46.292 C 55.996 45.902,56.379 45.329,56.659 45.019 C 56.938 44.709,57.167 44.323,57.167 44.162 C 57.167 43.986,57.339 43.826,57.601 43.761 C 57.872 43.692,58.103 43.471,58.217 43.169 C 58.317 42.904,58.553 42.646,58.741 42.598 C 58.929 42.549,59.211 42.282,59.367 42.005 C 59.523 41.727,59.762 41.500,59.898 41.500 C 60.033 41.500,60.304 41.275,60.500 41.000 C 60.696 40.725,60.963 40.500,61.094 40.500 C 61.225 40.500,61.614 40.246,61.958 39.936 C 62.302 39.625,62.865 39.254,63.208 39.111 C 63.552 38.968,63.833 38.739,63.833 38.603 C 63.833 38.351,63.995 38.277,64.965 38.081 C 65.267 38.020,65.687 37.784,65.898 37.556 C 66.153 37.281,66.529 37.111,67.016 37.051 C 67.420 37.001,68.087 36.754,68.500 36.501 C 69.060 36.158,69.646 35.990,70.814 35.837 C 71.673 35.724,72.648 35.515,72.980 35.372 C 74.512 34.714,79.894 34.668,81.435 35.299 M73.601 36.755 C 73.244 36.889,72.869 37.064,72.768 37.143 C 72.666 37.223,72.000 37.335,71.287 37.392 C 70.062 37.491,69.195 37.782,68.725 38.251 C 68.610 38.366,68.164 38.512,67.734 38.577 C 66.888 38.704,66.333 38.974,66.333 39.259 C 66.333 39.357,65.958 39.533,65.500 39.651 C 65.001 39.779,64.540 40.025,64.351 40.265 C 64.177 40.486,63.907 40.667,63.751 40.667 C 63.595 40.667,63.268 40.876,63.025 41.131 C 62.782 41.387,62.321 41.777,62.000 41.999 C 60.979 42.704,60.238 43.399,59.167 44.659 C 58.754 45.144,58.210 45.768,57.958 46.045 C 57.706 46.323,57.500 46.639,57.500 46.749 C 57.500 46.859,57.237 47.219,56.917 47.550 C 56.596 47.880,56.333 48.305,56.333 48.493 C 56.333 48.682,56.116 49.064,55.851 49.341 C 55.585 49.619,55.317 50.125,55.254 50.465 C 55.192 50.805,54.931 51.421,54.674 51.833 C 54.348 52.358,54.176 52.901,54.105 53.639 C 54.045 54.255,53.872 54.881,53.691 55.139 C 53.252 55.765,53.126 56.561,53.015 59.417 L 52.917 61.917 50.917 62.013 C 49.101 62.101,48.000 62.349,48.000 62.672 C 48.000 62.737,47.553 62.878,47.007 62.985 C 46.348 63.115,45.912 63.305,45.715 63.549 C 45.551 63.751,45.135 64.047,44.792 64.206 C 44.448 64.365,44.167 64.610,44.167 64.751 C 44.167 64.893,43.976 65.081,43.742 65.170 C 43.498 65.262,43.215 65.575,43.078 65.904 C 42.946 66.220,42.689 66.582,42.506 66.710 C 42.305 66.851,42.068 67.362,41.903 68.013 C 41.753 68.602,41.559 69.171,41.472 69.279 C 41.385 69.387,41.149 69.986,40.948 70.610 L 40.583 71.746 39.750 71.864 C 39.158 71.949,38.810 72.106,38.550 72.408 C 38.348 72.642,38.113 72.833,38.028 72.833 C 37.736 72.833,36.334 74.417,36.331 74.750 C 36.329 74.933,36.145 75.256,35.923 75.467 C 35.117 76.231,35.087 79.378,35.877 80.316 C 36.128 80.615,36.333 80.999,36.333 81.171 C 36.333 81.729,38.190 83.417,39.077 83.665 C 39.510 83.786,40.137 84.024,40.468 84.193 C 41.042 84.486,41.912 84.500,59.109 84.500 L 77.148 84.500 77.616 84.098 L 78.083 83.696 78.130 67.139 C 78.156 58.034,78.135 50.412,78.084 50.203 C 77.870 49.327,75.868 49.377,75.462 50.268 C 75.362 50.486,75.078 50.696,74.800 50.757 C 74.519 50.819,74.237 51.029,74.136 51.251 C 74.033 51.476,73.656 51.753,73.230 51.916 C 72.828 52.069,72.400 52.337,72.278 52.511 C 72.156 52.684,71.791 52.938,71.466 53.073 C 71.141 53.209,70.836 53.473,70.787 53.660 C 70.645 54.204,69.381 54.148,69.169 53.589 C 69.083 53.362,68.870 53.088,68.696 52.980 C 68.370 52.776,69.084 51.333,69.511 51.333 C 69.595 51.333,69.865 51.108,70.110 50.833 C 70.355 50.558,70.687 50.333,70.849 50.333 C 71.010 50.333,71.300 50.133,71.493 49.888 C 71.686 49.643,72.123 49.316,72.463 49.161 C 72.804 49.007,73.226 48.720,73.401 48.524 C 73.575 48.327,73.822 48.167,73.948 48.167 C 74.074 48.167,74.440 47.904,74.761 47.583 C 75.082 47.262,75.436 46.999,75.547 46.998 C 75.659 46.997,76.082 46.733,76.487 46.411 C 76.892 46.089,77.389 45.784,77.591 45.733 C 77.793 45.683,78.041 45.459,78.142 45.237 C 78.414 44.641,80.570 44.616,80.728 45.208 C 80.784 45.415,80.830 54.049,80.831 64.397 C 80.834 85.851,80.719 84.200,82.216 84.417 C 84.032 84.680,105.902 84.425,106.417 84.135 C 106.692 83.980,107.517 83.774,108.250 83.676 C 109.306 83.536,109.655 83.417,109.930 83.107 C 110.120 82.891,110.553 82.663,110.892 82.599 C 111.230 82.536,111.749 82.278,112.045 82.027 C 112.341 81.776,112.791 81.480,113.044 81.371 C 113.298 81.261,113.589 80.987,113.692 80.761 C 113.795 80.535,114.037 80.328,114.230 80.300 C 114.422 80.273,114.672 80.058,114.784 79.823 C 114.896 79.588,115.178 79.294,115.411 79.170 C 115.643 79.045,115.833 78.819,115.833 78.668 C 115.833 78.516,116.028 78.210,116.266 77.987 C 116.776 77.510,117.167 76.809,117.167 76.368 C 117.167 76.195,117.345 75.972,117.564 75.872 C 117.890 75.724,117.997 75.490,118.155 74.578 C 118.264 73.953,118.510 73.248,118.716 72.969 C 119.410 72.032,119.308 65.646,118.593 65.204 C 118.485 65.138,118.310 64.602,118.204 64.014 C 118.071 63.280,117.878 62.808,117.588 62.505 C 117.356 62.263,117.167 61.972,117.167 61.858 C 117.167 61.481,116.662 60.667,116.429 60.667 C 116.303 60.667,116.125 60.460,116.034 60.208 C 115.823 59.622,113.542 57.333,113.169 57.333 C 113.014 57.333,112.805 57.153,112.705 56.933 C 112.598 56.700,112.271 56.450,111.919 56.334 C 111.588 56.225,111.129 55.961,110.900 55.749 C 110.641 55.509,110.170 55.319,109.661 55.249 C 109.209 55.187,108.669 55.005,108.461 54.845 C 107.592 54.175,106.544 54.058,100.885 54.004 C 100.581 54.001,100.502 53.875,100.408 53.250 C 100.346 52.838,100.087 52.181,99.832 51.792 C 99.578 51.402,99.316 50.821,99.250 50.500 C 99.185 50.179,98.961 49.729,98.753 49.500 C 98.544 49.271,98.284 48.803,98.175 48.461 C 98.065 48.119,97.794 47.695,97.571 47.520 C 97.349 47.345,97.167 47.092,97.167 46.957 C 97.167 46.822,96.993 46.533,96.781 46.314 C 96.569 46.096,96.177 45.625,95.910 45.268 C 95.126 44.221,93.280 42.442,92.417 41.902 C 92.142 41.730,91.718 41.382,91.475 41.128 C 91.232 40.874,90.905 40.667,90.749 40.667 C 90.593 40.667,90.328 40.493,90.160 40.280 C 89.993 40.067,89.532 39.796,89.136 39.677 C 88.741 39.559,88.244 39.289,88.033 39.079 C 87.791 38.837,87.353 38.655,86.842 38.585 C 86.398 38.523,85.895 38.348,85.726 38.194 C 85.204 37.722,84.539 37.506,83.285 37.400 C 82.594 37.341,81.765 37.146,81.333 36.941 C 80.353 36.474,74.708 36.338,73.601 36.755 M80.461 37.571 C 80.620 37.621,81.450 37.734,82.305 37.822 C 83.330 37.928,84.054 38.097,84.431 38.320 C 84.745 38.505,85.410 38.763,85.908 38.893 C 86.406 39.023,87.024 39.278,87.282 39.460 C 87.539 39.641,87.938 39.848,88.167 39.919 C 88.396 39.990,88.957 40.300,89.414 40.607 C 89.872 40.915,90.365 41.167,90.512 41.167 C 90.658 41.167,90.973 41.373,91.211 41.625 C 91.448 41.877,92.037 42.421,92.518 42.833 C 93.000 43.246,93.886 44.102,94.489 44.737 C 95.091 45.371,95.755 46.072,95.966 46.293 C 96.176 46.515,96.543 47.008,96.782 47.390 C 97.021 47.771,97.264 48.121,97.321 48.167 C 97.379 48.212,97.574 48.585,97.755 48.995 C 97.935 49.404,98.243 49.911,98.437 50.121 C 98.632 50.331,98.840 50.806,98.899 51.177 C 98.958 51.547,99.230 52.246,99.503 52.730 C 99.776 53.214,100.000 53.724,100.000 53.863 C 100.000 54.551,100.489 54.668,102.928 54.567 C 105.045 54.478,105.338 54.502,106.250 54.836 C 106.800 55.037,107.828 55.328,108.535 55.483 C 109.293 55.648,109.978 55.908,110.202 56.114 C 110.412 56.306,110.838 56.518,111.149 56.584 C 111.763 56.714,112.175 57.050,114.231 59.095 C 115.943 60.798,116.548 61.557,116.722 62.221 C 116.798 62.512,116.995 62.900,117.159 63.083 C 117.621 63.598,117.779 64.005,117.903 65.000 C 117.966 65.504,118.164 66.393,118.342 66.976 C 118.759 68.337,118.764 70.136,118.354 71.524 C 118.182 72.107,117.925 73.077,117.784 73.681 C 117.642 74.285,117.333 75.065,117.097 75.413 C 116.860 75.761,116.667 76.138,116.667 76.250 C 116.667 76.362,116.405 76.782,116.085 77.185 C 115.765 77.587,115.501 77.992,115.499 78.083 C 115.497 78.175,115.097 78.662,114.612 79.167 C 113.793 80.016,113.419 80.314,112.083 81.181 C 111.808 81.359,111.328 81.692,111.017 81.919 C 110.706 82.147,110.280 82.333,110.071 82.333 C 109.863 82.333,109.456 82.532,109.167 82.776 C 108.766 83.112,108.355 83.254,107.445 83.369 C 106.047 83.546,83.777 83.746,82.745 83.591 C 81.275 83.371,81.427 85.477,81.333 64.019 C 81.241 42.970,81.346 44.689,80.132 44.363 C 79.382 44.162,78.191 44.425,77.630 44.916 C 77.421 45.099,76.980 45.371,76.650 45.521 C 76.320 45.672,75.870 45.956,75.650 46.153 C 74.461 47.216,73.835 47.669,73.203 47.922 C 72.816 48.076,72.500 48.268,72.500 48.347 C 72.500 48.427,72.259 48.616,71.965 48.768 C 71.670 48.921,71.291 49.221,71.122 49.436 C 70.953 49.650,70.500 49.974,70.116 50.154 C 68.846 50.751,67.989 51.669,67.957 52.468 C 67.896 53.998,70.147 55.202,71.099 54.149 C 71.274 53.956,71.717 53.646,72.083 53.460 C 72.784 53.105,73.626 52.467,74.346 51.749 C 75.141 50.954,77.154 49.949,77.454 50.197 C 77.822 50.503,77.761 83.048,77.391 83.355 C 76.631 83.985,40.021 83.713,39.038 83.069 C 38.388 82.643,36.667 80.851,36.667 80.600 C 36.667 80.471,36.480 79.965,36.252 79.475 C 35.719 78.330,35.718 77.423,36.250 76.364 C 36.479 75.908,36.667 75.403,36.667 75.242 C 36.667 74.947,38.289 73.167,38.558 73.167 C 38.637 73.167,38.925 72.979,39.197 72.750 C 39.469 72.521,39.857 72.333,40.059 72.333 C 40.973 72.333,41.939 70.894,42.185 69.167 C 42.274 68.536,42.476 67.909,42.669 67.667 C 42.850 67.438,43.141 66.987,43.316 66.667 C 43.740 65.886,44.712 64.906,45.468 64.498 C 45.806 64.315,46.289 64.002,46.540 63.802 C 47.113 63.345,48.891 62.988,51.113 62.883 C 53.350 62.778,53.341 62.789,53.518 60.127 C 53.642 58.250,53.821 57.096,54.044 56.728 C 54.092 56.648,54.257 55.833,54.411 54.917 C 54.585 53.882,54.842 52.989,55.090 52.563 C 55.310 52.185,55.540 51.556,55.603 51.165 C 55.670 50.744,55.910 50.234,56.192 49.914 C 56.453 49.616,56.667 49.305,56.667 49.223 C 56.667 48.471,59.749 44.768,61.915 42.917 C 62.344 42.550,62.954 42.006,63.270 41.708 C 63.586 41.410,63.928 41.167,64.030 41.167 C 64.132 41.167,64.598 40.914,65.066 40.605 C 65.534 40.297,66.103 39.986,66.330 39.915 C 66.558 39.844,66.937 39.644,67.173 39.469 C 67.409 39.295,68.048 39.036,68.593 38.895 C 69.137 38.754,69.824 38.490,70.118 38.310 C 70.470 38.093,71.183 37.927,72.202 37.821 C 73.053 37.734,73.886 37.619,74.052 37.566 C 75.042 37.254,79.468 37.257,80.461 37.571 " stroke="none" fill="#ffadae" fill-rule="evenodd"></path></g></svg>