<svg id="svg" version="1.1" width="400" height="415.5339805825243" xmlns="http://www.w3.org/2000/svg" xmlns:xlink="http://www.w3.org/1999/xlink" style="display: block;"><g id="svgg"><path id="path0" d="M194.200 91.160 C 193.100 91.322,191.660 91.748,191.000 92.107 C 188.932 93.231,185.814 93.980,182.142 94.234 C 177.632 94.547,175.653 95.041,174.400 96.169 C 173.102 97.337,170.385 98.312,167.500 98.645 C 166.235 98.791,165.200 99.094,165.200 99.319 C 165.200 100.294,162.745 101.851,160.465 102.322 C 158.509 102.726,157.897 103.060,157.035 104.190 C 156.364 105.069,155.518 105.655,154.692 105.812 C 153.184 106.098,152.301 106.685,151.699 107.800 C 151.462 108.240,150.398 109.050,149.334 109.600 C 148.270 110.150,146.535 111.455,145.478 112.500 C 144.239 113.724,143.208 114.400,142.578 114.400 C 141.890 114.400,141.600 114.621,141.600 115.146 C 141.600 116.225,140.076 118.000,139.148 118.000 C 138.596 118.000,138.120 118.532,137.579 119.754 C 137.041 120.971,136.385 121.706,135.433 122.158 C 134.504 122.598,133.982 123.170,133.815 123.930 C 133.680 124.547,132.586 126.108,131.385 127.399 C 130.183 128.690,129.200 130.049,129.200 130.419 C 129.200 131.306,127.693 133.200,126.987 133.200 C 126.673 133.200,126.234 133.937,125.975 134.900 C 125.172 137.882,124.347 139.493,123.349 140.027 C 122.815 140.313,122.283 141.009,122.167 141.573 C 121.146 146.528,120.147 148.800,118.989 148.800 C 118.710 148.800,118.395 149.611,118.251 150.700 C 117.180 158.802,116.910 159.856,115.394 161.843 C 114.395 163.153,114.348 163.464,114.116 170.191 C 113.806 179.216,113.710 179.372,108.000 180.026 C 105.144 180.353,103.851 180.699,102.798 181.418 C 101.150 182.541,100.075 182.912,95.900 183.797 C 94.195 184.159,92.800 184.592,92.800 184.759 C 92.800 185.373,89.240 187.600,88.260 187.600 C 87.505 187.600,87.032 187.990,86.382 189.147 C 85.893 190.017,84.963 190.935,84.256 191.247 C 83.565 191.551,82.757 192.312,82.461 192.937 C 82.164 193.562,81.314 194.432,80.573 194.869 C 79.604 195.440,79.152 196.048,78.969 197.022 C 78.814 197.849,78.111 198.965,77.168 199.880 C 75.976 201.037,75.564 201.795,75.371 203.190 C 74.934 206.347,73.999 209.085,72.983 210.180 C 72.443 210.764,71.987 211.457,71.971 211.721 C 71.890 213.041,70.471 214.600,69.042 214.938 C 68.057 215.171,67.391 215.622,67.106 216.247 C 66.853 216.801,65.804 217.598,64.597 218.150 C 63.456 218.672,61.951 219.707,61.253 220.450 C 56.740 225.247,56.062 226.150,55.408 228.231 C 55.030 229.432,54.402 230.585,54.013 230.793 C 51.306 232.242,50.945 249.216,53.583 250.989 C 54.585 251.662,56.400 256.127,56.400 257.918 C 56.400 258.183,56.715 258.406,57.100 258.413 C 58.107 258.432,59.415 259.645,59.856 260.967 C 60.128 261.783,60.709 262.289,61.908 262.753 C 63.602 263.409,65.600 264.913,65.600 265.534 C 65.600 265.925,67.557 266.531,71.000 267.208 C 72.320 267.467,74.322 268.202,75.449 268.840 L 77.497 270.000 189.388 270.000 C 283.575 270.000,301.479 269.913,302.540 269.449 C 306.208 267.844,307.770 267.487,315.800 266.416 C 317.769 266.153,318.470 265.840,319.703 264.672 C 320.816 263.618,321.698 263.178,323.103 262.976 C 324.446 262.783,325.628 262.222,327.153 261.052 C 328.337 260.143,330.132 259.116,331.142 258.769 C 332.476 258.311,333.040 257.879,333.202 257.191 C 333.349 256.570,334.073 255.922,335.313 255.304 C 336.351 254.786,337.200 254.101,337.200 253.781 C 337.200 253.064,338.617 251.600,339.311 251.600 C 339.938 251.600,341.028 250.371,341.377 249.272 C 341.519 248.824,342.247 248.097,342.995 247.656 C 343.963 247.085,344.475 246.408,344.772 245.303 C 345.087 244.132,345.521 243.595,346.545 243.107 C 347.684 242.564,347.944 242.184,348.175 240.730 C 348.629 237.866,349.661 236.207,351.524 235.342 C 351.593 235.311,351.815 234.231,352.018 232.942 C 352.808 227.940,353.228 226.599,354.505 225.011 L 355.800 223.400 355.800 211.000 L 355.800 198.600 354.516 196.751 C 353.308 195.012,352.001 190.524,352.000 188.114 C 352.000 187.626,351.481 186.696,350.846 186.047 C 349.454 184.623,348.400 182.607,348.400 181.367 C 348.400 180.423,347.665 179.477,346.408 178.804 C 346.006 178.589,345.273 177.577,344.778 176.554 C 344.283 175.531,343.175 174.043,342.316 173.247 C 341.457 172.451,340.501 171.209,340.192 170.486 C 339.832 169.646,339.142 168.968,338.281 168.608 C 337.540 168.299,336.300 167.344,335.526 166.487 C 334.752 165.630,333.327 164.544,332.359 164.073 C 331.392 163.602,330.097 162.583,329.483 161.809 C 328.869 161.034,328.008 160.400,327.570 160.400 C 326.272 160.400,323.952 159.269,322.819 158.083 C 321.953 157.176,321.064 156.846,317.881 156.246 C 315.747 155.844,313.999 155.399,313.997 155.258 C 313.980 153.587,306.671 152.400,296.397 152.400 C 291.763 152.400,290.000 151.727,290.000 149.958 C 290.000 149.527,289.699 149.059,289.331 148.918 C 287.693 148.289,286.853 146.527,285.833 141.573 C 285.717 141.009,285.195 140.318,284.673 140.039 C 283.701 139.519,282.875 137.907,282.040 134.900 C 281.774 133.944,281.325 133.200,281.013 133.200 C 280.298 133.200,278.800 131.301,278.800 130.394 C 278.800 130.010,278.125 128.982,277.300 128.109 C 275.015 125.691,274.441 124.903,274.165 123.804 C 274.009 123.182,273.382 122.544,272.530 122.140 C 271.587 121.692,270.953 120.998,270.536 119.957 C 270.113 118.899,269.476 118.210,268.463 117.715 C 267.437 117.214,266.886 116.611,266.617 115.700 C 266.330 114.725,266.007 114.400,265.321 114.400 C 264.756 114.400,263.762 113.714,262.718 112.604 C 261.788 111.616,260.063 110.320,258.885 109.724 C 257.707 109.128,256.546 108.271,256.306 107.820 C 255.703 106.687,254.826 106.100,253.308 105.812 C 252.482 105.655,251.636 105.069,250.965 104.190 C 250.103 103.060,249.491 102.726,247.535 102.322 C 245.255 101.851,242.800 100.294,242.800 99.319 C 242.800 99.094,241.765 98.791,240.500 98.645 C 237.615 98.312,234.898 97.337,233.600 96.169 C 232.368 95.061,230.400 94.555,226.044 94.226 C 222.258 93.939,217.827 92.829,216.189 91.756 C 214.990 90.970,198.510 90.524,194.200 91.160 M216.035 97.009 C 217.327 97.344,219.011 97.988,219.777 98.439 C 220.775 99.028,222.392 99.373,225.485 99.656 C 230.311 100.098,232.564 100.793,233.650 102.173 C 234.194 102.864,234.964 103.178,236.621 103.385 C 239.507 103.746,241.425 104.562,242.213 105.763 C 242.649 106.429,243.624 106.934,245.404 107.416 C 248.013 108.122,249.600 109.175,249.600 110.200 C 249.600 110.529,250.302 110.958,251.265 111.218 C 252.246 111.482,253.586 112.309,254.529 113.233 C 255.408 114.095,256.276 114.800,256.458 114.800 C 257.114 114.800,259.851 116.993,261.013 118.449 C 261.666 119.267,262.560 120.033,263.000 120.152 C 263.440 120.271,264.249 121.098,264.797 121.988 C 265.345 122.879,266.103 123.706,266.480 123.826 C 267.153 124.039,269.600 126.841,269.600 127.398 C 269.600 127.553,270.397 128.489,271.371 129.477 C 272.592 130.715,273.221 131.740,273.396 132.775 C 273.596 133.961,273.915 134.395,274.915 134.838 C 275.914 135.282,276.351 135.874,276.990 137.656 C 277.436 138.897,278.374 140.578,279.076 141.393 C 279.963 142.421,280.540 143.697,280.966 145.570 C 281.423 147.581,281.923 148.630,282.932 149.700 C 284.292 151.142,284.787 152.714,284.796 155.620 C 284.803 158.008,284.765 158.000,296.101 158.000 C 307.576 158.000,310.995 158.446,312.872 160.187 C 313.442 160.715,314.603 161.267,315.454 161.414 C 319.154 162.056,321.350 162.919,322.563 164.209 C 323.277 164.969,324.392 165.644,325.200 165.807 C 326.619 166.093,328.000 167.022,328.000 167.691 C 328.000 168.255,329.075 169.200,329.717 169.200 C 330.034 169.200,330.750 169.560,331.309 170.000 C 331.869 170.440,332.523 170.800,332.763 170.800 C 333.003 170.800,333.200 170.940,333.200 171.112 C 333.200 171.283,334.485 172.768,336.056 174.412 C 337.626 176.055,339.255 178.165,339.674 179.100 C 340.094 180.035,340.622 180.800,340.847 180.800 C 341.609 180.800,342.413 181.950,343.067 183.972 C 343.436 185.117,344.113 186.244,344.637 186.588 C 345.819 187.362,346.688 189.271,347.010 191.800 C 347.342 194.406,347.964 196.400,348.445 196.400 C 351.676 196.400,351.561 223.101,348.321 225.371 C 347.763 225.761,347.431 226.819,347.051 229.423 C 346.571 232.712,346.439 233.030,345.068 234.215 C 344.261 234.914,343.600 235.792,343.600 236.167 C 343.600 237.411,341.649 240.993,340.750 241.400 C 340.263 241.620,339.737 242.070,339.579 242.400 C 339.422 242.730,339.047 243.523,338.746 244.162 C 338.444 244.804,337.619 245.567,336.900 245.867 C 336.075 246.212,335.600 246.691,335.600 247.176 C 335.600 248.079,333.812 249.600,332.751 249.600 C 332.280 249.600,331.793 250.120,331.413 251.031 C 330.945 252.151,330.379 252.647,328.809 253.310 C 327.706 253.776,326.705 254.469,326.584 254.849 C 326.294 255.765,324.274 256.919,321.800 257.584 C 320.531 257.925,319.468 258.528,318.891 259.235 C 317.948 260.391,315.066 261.226,310.062 261.795 C 308.743 261.945,307.288 262.452,306.262 263.119 L 304.600 264.200 262.000 264.200 L 219.400 264.200 218.500 263.300 C 218.005 262.805,217.600 262.235,217.600 262.033 C 217.600 261.832,217.375 261.592,217.100 261.500 C 216.704 261.368,216.559 247.349,216.400 193.900 C 216.290 156.812,216.110 126.392,216.000 126.301 C 214.229 124.836,207.652 125.593,206.799 127.360 C 206.349 128.292,205.682 128.785,204.112 129.346 C 202.964 129.756,201.923 130.386,201.798 130.746 C 201.508 131.582,199.018 133.176,197.541 133.472 C 196.843 133.611,196.100 134.192,195.616 134.975 C 194.846 136.221,193.852 136.914,192.164 137.381 C 191.704 137.509,191.082 138.073,190.782 138.634 C 190.218 139.687,187.977 140.901,185.700 141.386 C 184.802 141.578,184.400 141.892,184.400 142.403 C 184.400 143.334,182.741 144.661,181.139 145.013 C 180.417 145.172,179.666 145.717,179.307 146.342 C 178.972 146.926,178.004 147.842,177.155 148.378 C 176.211 148.975,175.448 149.849,175.191 150.628 C 174.959 151.330,174.416 152.223,173.984 152.614 C 173.205 153.319,173.206 153.329,174.073 153.763 C 174.554 154.003,175.320 154.920,175.776 155.800 C 176.669 157.527,177.503 157.857,179.852 157.417 C 180.649 157.267,181.200 156.926,181.200 156.582 C 181.200 155.662,182.704 154.400,183.800 154.400 C 184.350 154.400,184.800 154.220,184.800 154.000 C 184.800 153.780,185.070 153.600,185.400 153.600 C 185.730 153.600,186.000 153.412,186.000 153.183 C 186.000 152.124,188.741 150.340,191.196 149.801 C 191.858 149.655,192.400 149.301,192.400 149.013 C 192.400 148.029,193.817 146.736,195.206 146.452 C 196.020 146.286,196.765 145.822,197.012 145.327 C 198.719 141.902,205.135 140.767,206.615 143.629 C 207.121 144.607,207.196 152.561,207.168 202.480 L 207.136 260.200 206.268 261.789 C 204.736 264.594,209.789 264.403,139.769 264.297 L 76.138 264.200 74.687 263.094 C 73.889 262.485,72.644 261.885,71.918 261.759 C 69.017 261.257,66.937 260.286,66.077 259.031 C 65.602 258.337,64.534 257.340,63.705 256.816 C 62.232 255.886,61.126 254.139,60.574 251.872 C 60.423 251.251,59.952 250.531,59.527 250.272 C 56.714 248.554,56.402 232.400,59.182 232.400 C 59.915 232.400,60.800 231.111,60.800 230.043 C 60.800 228.371,64.315 224.449,66.794 223.355 C 67.677 222.965,68.400 222.433,68.400 222.172 C 68.400 221.141,72.361 219.600,75.012 219.600 C 75.746 219.600,76.046 219.330,76.233 218.500 C 77.303 213.767,78.265 210.894,79.021 210.171 C 79.559 209.656,79.994 208.595,80.167 207.371 C 80.603 204.300,81.526 202.285,82.904 201.400 C 83.590 200.960,84.286 200.086,84.452 199.457 C 84.838 197.994,85.919 196.800,86.857 196.800 C 87.316 196.800,87.808 196.276,88.177 195.394 C 88.623 194.326,89.234 193.780,90.719 193.120 C 91.794 192.643,92.837 191.881,93.037 191.426 C 93.506 190.358,95.805 189.246,98.385 188.838 C 99.530 188.657,100.815 188.151,101.313 187.684 C 102.879 186.217,104.456 185.879,111.800 185.435 L 119.000 185.000 119.100 181.400 C 119.522 166.198,119.862 163.822,122.234 159.511 C 122.564 158.911,123.012 156.850,123.230 154.931 C 123.603 151.650,124.557 149.443,126.057 148.390 C 126.222 148.274,126.551 147.313,126.788 146.253 C 127.392 143.559,128.174 141.823,129.265 140.755 C 129.779 140.251,130.564 138.840,131.010 137.619 C 131.644 135.881,132.094 135.278,133.085 134.838 C 134.085 134.395,134.404 133.961,134.604 132.775 C 134.779 131.740,135.408 130.715,136.629 129.477 C 137.603 128.489,138.400 127.553,138.400 127.398 C 138.400 126.841,140.847 124.039,141.520 123.826 C 141.897 123.706,142.654 122.884,143.200 122.000 C 143.746 121.116,144.555 120.278,144.997 120.139 C 145.735 119.906,146.564 119.140,147.741 117.600 C 148.348 116.806,151.048 114.800,151.510 114.800 C 151.709 114.800,152.592 114.095,153.471 113.233 C 154.414 112.309,155.754 111.482,156.735 111.218 C 157.698 110.958,158.400 110.529,158.400 110.200 C 158.400 109.186,159.881 108.217,162.625 107.435 C 164.439 106.917,165.369 106.440,165.495 105.960 C 165.746 105.000,168.517 103.760,171.200 103.408 C 172.795 103.199,173.730 102.814,174.600 102.006 C 176.179 100.540,177.761 100.076,182.694 99.629 C 185.590 99.366,187.229 99.010,188.294 98.412 C 191.940 96.365,210.020 95.451,216.035 97.009 " stroke="none" fill="#ffffff" fill-rule="evenodd"></path><path id="path1" d="M29.614 26.374 C 29.386 26.799,29.200 27.609,29.200 28.174 C 29.200 29.024,29.011 29.202,28.100 29.213 C 27.495 29.220,26.685 29.465,26.300 29.757 C 25.405 30.436,25.186 373.026,26.080 373.920 C 26.344 374.184,27.154 374.400,27.880 374.400 C 29.080 374.400,29.200 374.509,29.200 375.600 C 29.200 376.267,29.556 377.156,30.001 377.601 C 30.810 378.410,373.393 378.741,374.200 377.933 C 374.347 377.786,374.566 376.931,374.686 376.033 C 374.895 374.474,374.969 374.400,376.309 374.400 C 377.176 374.400,377.915 374.133,378.243 373.700 C 379.270 372.347,379.029 31.029,378.000 30.000 C 377.556 29.556,376.667 29.200,376.000 29.200 C 374.978 29.200,374.800 29.047,374.800 28.174 C 374.800 27.609,374.614 26.799,374.386 26.374 C 373.733 25.154,30.267 25.154,29.614 26.374 M218.400 88.019 C 219.830 88.220,222.002 88.388,223.227 88.392 C 226.089 88.402,229.555 89.434,230.632 90.597 C 231.263 91.278,232.121 91.578,234.038 91.788 C 238.056 92.230,240.564 93.083,241.748 94.412 C 242.330 95.066,243.197 95.600,243.675 95.600 C 244.593 95.600,246.786 96.229,248.314 96.931 C 248.817 97.162,249.448 97.809,249.717 98.369 C 250.067 99.100,250.628 99.456,251.702 99.631 C 253.696 99.955,255.834 101.142,256.431 102.257 C 256.707 102.774,257.735 103.456,258.832 103.850 C 260.210 104.346,260.944 104.902,261.442 105.827 C 261.908 106.692,262.607 107.255,263.575 107.545 C 264.488 107.819,265.280 108.428,265.745 109.214 C 266.147 109.895,266.923 110.656,267.470 110.905 C 268.476 111.363,273.600 116.171,273.600 116.657 C 273.600 116.801,274.500 117.783,275.600 118.837 C 276.700 119.892,277.600 121.103,277.600 121.529 C 277.600 122.007,278.046 122.488,278.765 122.786 C 279.583 123.124,280.183 123.855,280.777 125.234 C 281.242 126.315,281.773 127.200,281.957 127.200 C 282.748 127.200,284.262 129.281,284.955 131.321 C 285.423 132.697,286.124 133.837,286.818 134.350 C 287.468 134.831,288.038 135.718,288.188 136.486 C 288.630 138.735,289.192 139.877,291.100 142.400 C 291.815 143.346,292.400 144.507,292.400 144.980 C 292.400 146.515,293.150 146.800,297.180 146.800 C 301.910 146.800,306.492 147.646,309.007 148.983 C 310.159 149.596,311.571 150.000,312.560 150.000 C 316.295 150.001,321.940 151.743,321.987 152.910 C 322.004 153.322,323.796 154.020,325.917 154.441 C 327.018 154.660,328.167 155.286,329.117 156.185 C 329.933 156.956,331.469 157.901,332.531 158.284 C 333.770 158.731,334.698 159.381,335.122 160.099 C 335.485 160.714,336.518 161.573,337.417 162.008 C 338.484 162.525,339.284 163.286,339.719 164.200 C 340.144 165.091,340.670 165.600,341.164 165.600 C 342.078 165.600,343.600 167.383,343.600 168.454 C 343.600 168.913,343.884 169.200,344.339 169.200 C 345.461 169.200,346.768 170.540,347.057 171.987 C 347.243 172.917,347.623 173.389,348.401 173.660 C 349.480 174.037,349.838 174.534,350.946 177.200 C 351.266 177.970,352.046 179.140,352.680 179.800 C 353.950 181.122,354.602 182.578,355.004 184.986 C 355.154 185.884,355.684 186.957,356.227 187.460 C 357.652 188.781,358.304 190.914,358.741 195.686 C 359.006 198.586,359.393 200.462,359.934 201.486 C 362.268 205.897,362.230 215.831,359.862 220.400 C 359.414 221.265,358.988 223.404,358.748 226.000 C 358.331 230.500,357.573 232.848,356.185 233.940 C 355.612 234.391,355.216 235.297,355.020 236.606 C 354.647 239.093,353.826 240.743,352.385 241.905 C 351.767 242.403,351.140 243.361,350.992 244.035 C 350.652 245.586,349.192 247.904,348.378 248.188 C 348.035 248.307,347.296 249.255,346.734 250.294 C 346.173 251.333,345.193 252.465,344.557 252.810 C 343.920 253.154,343.130 253.999,342.800 254.687 C 342.456 255.402,341.388 256.413,340.300 257.052 C 339.255 257.666,338.400 258.369,338.400 258.614 C 338.400 259.188,336.981 260.406,335.200 261.361 C 334.430 261.774,333.260 262.581,332.600 263.156 C 331.038 264.515,329.789 265.200,328.872 265.200 C 328.466 265.200,327.364 265.910,326.424 266.777 C 325.485 267.645,324.150 268.461,323.458 268.590 C 319.407 269.349,317.600 269.797,317.600 270.043 C 317.600 270.196,316.925 270.721,316.100 271.210 C 312.719 273.212,315.169 273.174,190.200 273.187 C 61.990 273.201,68.612 273.326,66.356 270.856 C 65.782 270.228,64.460 269.423,63.417 269.068 C 60.408 268.042,53.371 261.499,52.965 259.349 C 52.829 258.628,52.349 257.894,51.832 257.617 C 50.534 256.922,49.727 255.310,49.424 252.800 C 48.986 249.180,48.801 248.551,47.880 247.564 C 46.311 245.880,46.336 238.132,47.921 234.759 C 48.582 233.351,49.235 231.265,49.372 230.123 C 49.711 227.298,50.537 225.476,51.781 224.810 C 52.353 224.504,52.930 223.791,53.063 223.227 C 53.373 221.913,55.086 219.600,55.750 219.600 C 56.030 219.600,56.614 218.925,57.047 218.100 C 57.627 216.994,58.197 216.508,59.217 216.250 C 60.119 216.022,60.957 215.395,61.627 214.448 C 62.443 213.292,63.155 212.845,65.109 212.260 C 68.125 211.356,68.256 211.202,68.775 207.954 C 69.350 204.356,69.952 202.793,71.272 201.469 C 71.893 200.847,72.402 199.947,72.405 199.469 C 72.411 198.377,74.191 195.222,75.200 194.515 C 75.618 194.223,76.445 193.091,77.039 192.000 C 77.632 190.909,78.496 189.897,78.958 189.750 C 79.884 189.456,80.641 188.642,81.181 187.359 C 81.376 186.897,82.345 186.138,83.336 185.672 C 84.326 185.207,85.376 184.502,85.668 184.106 C 86.514 182.960,88.440 181.857,90.569 181.298 C 91.654 181.013,92.797 180.411,93.116 179.956 C 94.027 178.655,96.837 177.683,100.461 177.416 C 107.371 176.906,106.993 177.051,107.951 174.547 C 108.418 173.327,108.800 171.766,108.800 171.078 C 108.800 169.863,109.899 166.404,110.414 166.000 C 110.731 165.751,111.499 160.755,111.811 156.916 C 112.053 153.932,112.696 152.171,114.217 150.328 C 114.826 149.589,115.187 148.447,115.380 146.647 C 115.600 144.595,115.931 143.679,116.930 142.359 C 118.804 139.882,119.371 138.726,119.812 136.486 C 119.962 135.718,120.532 134.831,121.182 134.350 C 121.876 133.837,122.577 132.697,123.045 131.321 C 123.738 129.281,125.252 127.200,126.043 127.200 C 126.227 127.200,126.758 126.315,127.223 125.234 C 127.817 123.855,128.417 123.124,129.235 122.786 C 129.954 122.488,130.400 122.007,130.400 121.529 C 130.400 121.103,131.300 119.892,132.400 118.837 C 133.500 117.783,134.400 116.801,134.400 116.657 C 134.400 116.171,139.524 111.363,140.530 110.905 C 141.077 110.656,141.853 109.895,142.255 109.214 C 142.726 108.418,143.512 107.819,144.459 107.535 C 145.461 107.235,146.153 106.682,146.626 105.804 C 147.122 104.883,147.858 104.322,149.203 103.838 C 150.271 103.454,151.295 102.770,151.569 102.257 C 152.166 101.142,154.304 99.955,156.298 99.631 C 157.372 99.456,157.933 99.100,158.283 98.369 C 158.552 97.809,159.183 97.162,159.686 96.931 C 161.204 96.234,163.405 95.600,164.308 95.600 C 164.776 95.600,165.664 95.080,166.280 94.444 C 167.567 93.115,170.282 92.174,173.962 91.781 C 175.855 91.579,176.743 91.275,177.362 90.619 C 178.966 88.919,181.359 88.507,194.800 87.611 C 200.492 87.231,214.512 87.474,218.400 88.019 M188.790 102.401 C 186.362 102.634,185.434 102.929,183.990 103.925 C 182.468 104.976,175.342 106.800,172.761 106.800 C 172.614 106.800,172.399 107.159,172.285 107.598 C 172.043 108.523,169.305 109.811,166.737 110.209 C 165.403 110.416,164.815 110.760,164.200 111.694 C 163.668 112.503,162.684 113.174,161.264 113.697 C 160.089 114.129,158.649 114.971,158.064 115.568 C 156.532 117.131,155.146 118.000,154.183 118.000 C 153.621 118.000,153.156 118.429,152.772 119.300 C 152.415 120.112,151.626 120.880,150.671 121.347 C 149.727 121.808,148.894 122.614,148.493 123.456 C 148.049 124.387,147.458 124.918,146.622 125.134 C 145.769 125.355,145.281 125.804,145.001 126.625 C 144.510 128.067,143.739 128.890,142.300 129.510 C 141.570 129.824,141.196 130.288,141.187 130.891 C 141.172 131.967,140.571 132.819,139.194 133.714 C 138.624 134.085,137.844 135.273,137.394 136.455 C 136.957 137.603,135.945 139.185,135.144 139.971 C 134.276 140.822,133.577 141.966,133.414 142.800 C 132.997 144.932,132.099 146.661,130.986 147.472 C 130.155 148.077,129.871 148.825,129.343 151.802 C 128.872 154.453,128.419 155.769,127.620 156.800 C 125.950 158.959,125.211 164.415,124.561 179.400 C 124.339 184.520,123.842 186.615,122.538 187.919 C 122.242 188.215,121.994 188.669,121.987 188.929 C 121.943 190.588,120.082 190.991,111.200 191.266 C 101.255 191.575,100.563 191.688,99.142 193.250 C 98.559 193.890,97.272 194.657,96.281 194.956 C 93.837 195.691,87.468 202.087,86.412 204.866 C 86.018 205.902,85.208 207.201,84.612 207.754 C 83.646 208.649,83.466 209.250,82.959 213.279 C 82.647 215.766,82.301 218.197,82.192 218.683 C 81.801 220.419,78.629 222.800,76.708 222.800 C 76.175 222.800,75.303 223.266,74.770 223.835 C 73.776 224.896,72.055 225.813,69.624 226.579 C 68.645 226.887,68.009 227.465,67.424 228.579 C 66.971 229.441,66.065 230.440,65.411 230.800 C 62.229 232.548,61.956 250.600,65.099 251.389 C 65.610 251.517,66.236 252.112,66.491 252.711 C 67.189 254.349,68.029 255.199,68.962 255.209 C 69.922 255.219,71.304 256.238,71.909 257.381 C 72.833 259.127,73.596 259.147,138.420 259.174 C 186.759 259.195,200.070 259.094,200.917 258.700 L 201.994 258.200 201.997 203.714 L 202.000 149.228 201.169 148.783 C 200.092 148.207,198.309 149.021,196.461 150.933 C 195.714 151.706,194.390 152.525,193.461 152.788 C 192.239 153.134,191.641 153.585,191.200 154.494 C 190.795 155.327,190.059 155.935,188.936 156.364 C 188.020 156.714,186.900 157.472,186.446 158.049 C 184.471 160.562,175.989 161.651,172.832 159.797 C 168.949 157.515,168.495 147.494,172.233 146.556 C 172.747 146.427,173.526 145.714,173.963 144.972 C 174.465 144.123,175.470 143.292,176.680 142.730 C 177.736 142.238,179.307 141.150,180.170 140.312 C 181.200 139.311,182.254 138.705,183.232 138.548 C 184.366 138.367,184.949 137.967,185.662 136.883 C 186.209 136.051,187.145 135.276,187.907 135.024 C 188.625 134.786,189.943 133.904,190.836 133.063 C 192.528 131.470,194.597 130.400,195.987 130.400 C 196.528 130.400,196.800 130.137,196.800 129.616 C 196.800 128.618,198.299 127.204,199.375 127.187 C 200.324 127.173,201.210 126.526,201.836 125.391 C 202.394 124.379,204.969 123.007,206.897 122.694 C 207.766 122.553,208.773 122.027,209.297 121.441 C 210.772 119.790,212.161 119.700,213.621 121.159 C 214.303 121.842,215.343 122.519,215.931 122.663 C 217.757 123.113,218.707 123.978,218.981 125.442 C 219.126 126.213,219.550 127.153,219.922 127.529 C 222.167 129.795,222.000 124.437,222.000 194.372 C 222.000 257.237,222.014 258.379,222.774 258.786 C 223.292 259.063,236.444 259.200,262.597 259.200 C 303.960 259.200,308.584 259.033,310.227 257.481 C 311.275 256.490,314.176 255.382,316.671 255.019 C 318.769 254.713,320.208 253.950,321.302 252.561 C 321.698 252.057,322.659 251.559,323.512 251.415 C 324.590 251.233,325.246 250.815,325.810 249.952 C 326.245 249.287,327.050 248.500,327.600 248.203 C 328.562 247.684,331.930 244.461,335.500 240.645 C 336.435 239.645,337.200 238.493,337.200 238.084 C 337.200 237.288,338.549 235.878,339.700 235.472 C 340.123 235.323,340.400 234.815,340.400 234.188 C 340.400 232.296,341.669 229.017,342.795 228.000 C 344.059 226.857,344.221 226.113,344.838 218.600 C 345.722 207.845,344.718 195.653,342.777 193.576 C 342.139 192.893,341.474 191.522,341.187 190.301 C 340.569 187.665,340.391 187.327,338.672 185.504 C 337.901 184.686,336.977 183.134,336.618 182.055 C 336.090 180.464,335.760 180.052,334.873 179.875 C 334.067 179.713,333.586 179.219,333.048 177.999 C 332.646 177.088,332.021 176.250,331.658 176.135 C 329.927 175.589,329.129 174.946,328.927 173.935 C 328.748 173.038,328.340 172.712,326.729 172.176 C 325.544 171.783,324.123 170.885,323.183 169.936 C 322.104 168.846,321.145 168.280,320.108 168.119 C 318.260 167.833,316.049 166.761,315.065 165.673 C 313.386 163.815,298.737 162.521,288.800 163.352 C 284.776 163.688,284.308 163.428,282.393 159.787 C 281.734 158.535,280.773 157.008,280.257 156.394 C 279.608 155.623,279.118 154.192,278.671 151.759 C 278.121 148.759,277.857 148.108,276.884 147.347 C 276.089 146.725,275.518 145.688,275.002 143.927 C 274.488 142.173,273.823 140.963,272.831 139.971 C 272.044 139.185,271.043 137.603,270.606 136.455 C 270.156 135.273,269.376 134.085,268.806 133.714 C 267.429 132.819,266.828 131.967,266.813 130.891 C 266.804 130.288,266.430 129.824,265.700 129.510 C 264.261 128.890,263.490 128.067,262.999 126.625 C 262.719 125.804,262.231 125.355,261.378 125.134 C 260.542 124.918,259.951 124.387,259.507 123.456 C 259.106 122.614,258.273 121.808,257.329 121.347 C 256.374 120.880,255.585 120.112,255.228 119.300 C 254.844 118.429,254.379 118.000,253.817 118.000 C 252.854 118.000,251.468 117.131,249.936 115.568 C 249.351 114.971,247.911 114.129,246.736 113.697 C 245.321 113.176,244.330 112.502,243.800 111.698 C 243.211 110.805,242.578 110.416,241.400 110.223 C 238.666 109.774,236.065 108.670,235.572 107.748 C 235.179 107.013,234.333 106.723,230.451 105.991 C 226.883 105.319,225.386 104.836,224.023 103.919 C 221.383 102.142,200.744 101.253,188.790 102.401 " stroke="none" fill="#ff0000" fill-rule="evenodd"></path><path id="path2" d="M194.800 87.611 C 181.359 88.507,178.966 88.919,177.362 90.619 C 176.743 91.275,175.855 91.579,173.962 91.781 C 170.282 92.174,167.567 93.115,166.280 94.444 C 165.664 95.080,164.776 95.600,164.308 95.600 C 163.405 95.600,161.204 96.234,159.686 96.931 C 159.183 97.162,158.552 97.809,158.283 98.369 C 157.933 99.100,157.372 99.456,156.298 99.631 C 154.304 99.955,152.166 101.142,151.569 102.257 C 151.295 102.770,150.271 103.454,149.203 103.838 C 147.858 104.322,147.122 104.883,146.626 105.804 C 146.153 106.682,145.461 107.235,144.459 107.535 C 143.512 107.819,142.726 108.418,142.255 109.214 C 141.853 109.895,141.077 110.656,140.530 110.905 C 139.524 111.363,134.400 116.171,134.400 116.657 C 134.400 116.801,133.500 117.783,132.400 118.837 C 131.300 119.892,130.400 121.103,130.400 121.529 C 130.400 122.007,129.954 122.488,129.235 122.786 C 128.417 123.124,127.817 123.855,127.223 125.234 C 126.758 126.315,126.227 127.200,126.043 127.200 C 125.252 127.200,123.738 129.281,123.045 131.321 C 122.577 132.697,121.876 133.837,121.182 134.350 C 120.532 134.831,119.962 135.718,119.812 136.486 C 119.371 138.726,118.804 139.882,116.930 142.359 C 115.931 143.679,115.600 144.595,115.380 146.647 C 115.187 148.447,114.826 149.589,114.217 150.328 C 112.696 152.171,112.053 153.932,111.811 156.916 C 111.499 160.755,110.731 165.751,110.414 166.000 C 109.899 166.404,108.800 169.863,108.800 171.078 C 108.800 171.766,108.418 173.327,107.951 174.547 C 106.993 177.051,107.371 176.906,100.461 177.416 C 96.837 177.683,94.027 178.655,93.116 179.956 C 92.797 180.411,91.654 181.013,90.569 181.298 C 88.440 181.857,86.514 182.960,85.668 184.106 C 85.376 184.502,84.326 185.207,83.336 185.672 C 82.345 186.138,81.376 186.897,81.181 187.359 C 80.641 188.642,79.884 189.456,78.958 189.750 C 78.496 189.897,77.632 190.909,77.039 192.000 C 76.445 193.091,75.618 194.223,75.200 194.515 C 74.191 195.222,72.411 198.377,72.405 199.469 C 72.402 199.947,71.893 200.847,71.272 201.469 C 69.952 202.793,69.350 204.356,68.775 207.954 C 68.256 211.202,68.125 211.356,65.109 212.260 C 63.155 212.845,62.443 213.292,61.627 214.448 C 60.957 215.395,60.119 216.022,59.217 216.250 C 58.197 216.508,57.627 216.994,57.047 218.100 C 56.614 218.925,56.030 219.600,55.750 219.600 C 55.086 219.600,53.373 221.913,53.063 223.227 C 52.930 223.791,52.353 224.504,51.781 224.810 C 50.537 225.476,49.711 227.298,49.372 230.123 C 49.235 231.265,48.582 233.351,47.921 234.759 C 46.336 238.132,46.311 245.880,47.880 247.564 C 48.801 248.551,48.986 249.180,49.424 252.800 C 49.727 255.310,50.534 256.922,51.832 257.617 C 52.349 257.894,52.829 258.628,52.965 259.349 C 53.371 261.499,60.408 268.042,63.417 269.068 C 64.460 269.423,65.782 270.228,66.356 270.856 C 68.612 273.326,61.990 273.201,190.200 273.187 C 315.169 273.174,312.719 273.212,316.100 271.210 C 316.925 270.721,317.600 270.196,317.600 270.043 C 317.600 269.797,319.407 269.349,323.458 268.590 C 324.150 268.461,325.485 267.645,326.424 266.777 C 327.364 265.910,328.466 265.200,328.872 265.200 C 329.789 265.200,331.038 264.515,332.600 263.156 C 333.260 262.581,334.430 261.774,335.200 261.361 C 336.981 260.406,338.400 259.188,338.400 258.614 C 338.400 258.369,339.255 257.666,340.300 257.052 C 341.388 256.413,342.456 255.402,342.800 254.687 C 343.130 253.999,343.920 253.154,344.557 252.810 C 345.193 252.465,346.173 251.333,346.734 250.294 C 347.296 249.255,348.035 248.307,348.378 248.188 C 349.192 247.904,350.652 245.586,350.992 244.035 C 351.140 243.361,351.767 242.403,352.385 241.905 C 353.826 240.743,354.647 239.093,355.020 236.606 C 355.216 235.297,355.612 234.391,356.185 233.940 C 357.573 232.848,358.331 230.500,358.748 226.000 C 358.988 223.404,359.414 221.265,359.862 220.400 C 362.230 215.831,362.268 205.897,359.934 201.486 C 359.393 200.462,359.006 198.586,358.741 195.686 C 358.304 190.914,357.652 188.781,356.227 187.460 C 355.684 186.957,355.154 185.884,355.004 184.986 C 354.602 182.578,353.950 181.122,352.680 179.800 C 352.046 179.140,351.266 177.970,350.946 177.200 C 349.838 174.534,349.480 174.037,348.401 173.660 C 347.623 173.389,347.243 172.917,347.057 171.987 C 346.768 170.540,345.461 169.200,344.339 169.200 C 343.884 169.200,343.600 168.913,343.600 168.454 C 343.600 167.383,342.078 165.600,341.164 165.600 C 340.670 165.600,340.144 165.091,339.719 164.200 C 339.284 163.286,338.484 162.525,337.417 162.008 C 336.518 161.573,335.485 160.714,335.122 160.099 C 334.698 159.381,333.770 158.731,332.531 158.284 C 331.469 157.901,329.933 156.956,329.117 156.185 C 328.167 155.286,327.018 154.660,325.917 154.441 C 323.796 154.020,322.004 153.322,321.987 152.910 C 321.940 151.743,316.295 150.001,312.560 150.000 C 311.571 150.000,310.159 149.596,309.007 148.983 C 306.492 147.646,301.910 146.800,297.180 146.800 C 293.150 146.800,292.400 146.515,292.400 144.980 C 292.400 144.507,291.815 143.346,291.100 142.400 C 289.192 139.877,288.630 138.735,288.188 136.486 C 288.038 135.718,287.468 134.831,286.818 134.350 C 286.124 133.837,285.423 132.697,284.955 131.321 C 284.262 129.281,282.748 127.200,281.957 127.200 C 281.773 127.200,281.242 126.315,280.777 125.234 C 280.183 123.855,279.583 123.124,278.765 122.786 C 278.046 122.488,277.600 122.007,277.600 121.529 C 277.600 121.103,276.700 119.892,275.600 118.837 C 274.500 117.783,273.600 116.801,273.600 116.657 C 273.600 116.171,268.476 111.363,267.470 110.905 C 266.923 110.656,266.147 109.895,265.745 109.214 C 265.280 108.428,264.488 107.819,263.575 107.545 C 262.607 107.255,261.908 106.692,261.442 105.827 C 260.944 104.902,260.210 104.346,258.832 103.850 C 257.735 103.456,256.707 102.774,256.431 102.257 C 255.834 101.142,253.696 99.955,251.702 99.631 C 250.628 99.456,250.067 99.100,249.717 98.369 C 249.448 97.809,248.817 97.162,248.314 96.931 C 246.786 96.229,244.593 95.600,243.675 95.600 C 243.197 95.600,242.330 95.066,241.748 94.412 C 240.564 93.083,238.056 92.230,234.038 91.788 C 232.121 91.578,231.263 91.278,230.632 90.597 C 229.555 89.434,226.089 88.402,223.227 88.392 C 222.002 88.388,219.830 88.220,218.400 88.019 C 214.512 87.474,200.492 87.231,194.800 87.611 M215.400 89.203 C 220.711 89.579,225.705 90.477,226.616 91.219 C 227.066 91.586,229.187 92.157,233.042 92.951 C 234.386 93.227,236.906 94.138,238.642 94.974 C 242.283 96.728,243.026 97.045,244.400 97.430 C 244.950 97.584,246.120 98.192,247.000 98.781 C 248.680 99.907,251.281 101.200,251.865 101.200 C 252.054 101.200,252.656 101.605,253.204 102.100 C 254.314 103.103,257.445 105.200,257.833 105.200 C 257.970 105.200,258.983 106.010,260.084 107.000 C 261.186 107.990,262.292 108.800,262.543 108.800 C 262.794 108.800,263.720 109.507,264.600 110.371 C 267.527 113.246,270.459 115.996,271.135 116.501 C 271.503 116.775,272.252 117.675,272.802 118.501 C 273.351 119.326,274.070 120.091,274.400 120.200 C 274.730 120.309,275.450 121.061,276.000 121.871 C 276.550 122.680,277.675 124.045,278.500 124.904 C 279.325 125.763,280.000 126.693,280.000 126.971 C 280.000 127.250,280.371 127.910,280.824 128.439 C 282.503 130.397,283.016 131.098,283.700 132.366 C 284.085 133.080,284.400 133.864,284.400 134.107 C 284.400 134.350,284.752 134.923,285.182 135.381 C 286.302 136.573,287.913 139.730,288.211 141.316 C 288.351 142.062,288.855 143.141,289.333 143.713 C 289.810 144.285,290.820 145.754,291.578 146.977 L 292.956 149.200 295.578 149.213 C 297.020 149.220,300.000 149.490,302.200 149.814 C 304.400 150.137,307.550 150.588,309.200 150.815 C 313.785 151.446,316.955 152.314,319.431 153.616 C 320.669 154.267,322.012 154.800,322.417 154.800 C 322.822 154.800,323.250 154.957,323.368 155.148 C 323.486 155.340,324.082 155.601,324.692 155.728 C 325.301 155.855,326.250 156.373,326.800 156.879 C 327.350 157.386,328.830 158.314,330.088 158.942 C 331.347 159.570,333.025 160.695,333.817 161.442 C 334.609 162.189,335.440 162.800,335.665 162.800 C 335.889 162.800,336.922 163.655,337.959 164.700 C 338.997 165.745,340.421 167.048,341.123 167.596 C 341.825 168.143,342.400 168.813,342.400 169.084 C 342.400 169.354,342.946 169.979,343.613 170.472 C 344.279 170.966,345.378 172.231,346.054 173.284 C 346.730 174.338,347.403 175.200,347.548 175.200 C 347.963 175.200,350.328 178.972,350.604 180.075 C 350.741 180.620,351.284 181.530,351.810 182.097 C 352.336 182.665,352.884 183.597,353.028 184.169 C 353.171 184.740,353.449 185.306,353.644 185.427 C 353.840 185.548,354.000 185.999,354.000 186.429 C 354.000 186.859,354.162 187.523,354.361 187.905 C 357.139 193.251,357.605 195.243,358.473 205.489 C 359.232 214.437,357.999 225.983,355.793 230.600 C 355.057 232.140,354.060 234.570,353.578 236.000 C 353.096 237.430,352.295 239.050,351.798 239.600 C 351.300 240.150,350.511 241.480,350.044 242.556 C 349.577 243.632,348.791 244.894,348.298 245.359 C 347.804 245.825,346.892 246.986,346.271 247.938 C 344.235 251.062,335.207 259.650,332.880 260.676 C 332.286 260.938,331.141 261.748,330.335 262.476 C 329.530 263.204,327.910 264.137,326.735 264.549 C 325.561 264.960,324.510 265.420,324.400 265.570 C 323.800 266.387,321.001 267.613,318.064 268.347 C 316.230 268.805,313.980 269.541,313.064 269.982 C 308.734 272.071,313.213 271.997,189.925 271.999 C 69.140 272.000,71.772 272.036,69.722 270.335 C 69.455 270.114,67.906 269.354,66.279 268.647 C 61.787 266.694,55.649 261.197,53.754 257.431 C 53.209 256.348,52.524 255.268,52.231 255.031 C 50.047 253.266,48.415 238.621,49.887 234.000 C 50.132 233.230,50.443 231.943,50.577 231.140 C 50.711 230.337,51.261 229.032,51.799 228.240 C 52.336 227.448,53.307 225.855,53.957 224.700 C 55.149 222.580,59.900 217.200,60.581 217.200 C 60.783 217.200,61.770 216.508,62.774 215.663 C 63.778 214.817,65.264 213.907,66.075 213.640 C 67.815 213.067,69.600 211.750,69.600 211.038 C 69.600 209.967,71.288 205.225,71.830 204.775 C 72.143 204.515,72.400 203.975,72.400 203.575 C 72.400 203.175,72.566 202.745,72.769 202.619 C 72.972 202.494,73.265 201.814,73.420 201.109 C 73.769 199.518,74.290 198.608,75.700 197.128 C 76.305 196.492,76.800 195.791,76.800 195.569 C 76.800 194.523,84.670 186.549,86.598 185.642 C 87.479 185.227,88.527 184.525,88.927 184.083 C 89.327 183.640,90.767 182.866,92.127 182.363 C 93.487 181.860,95.140 181.128,95.800 180.736 C 98.263 179.274,99.704 178.825,102.711 178.581 C 110.369 177.962,110.861 177.423,111.808 168.600 C 112.752 159.807,113.183 157.497,114.379 154.800 C 115.013 153.370,115.847 150.872,116.233 149.248 C 116.655 147.470,117.444 145.554,118.217 144.430 C 118.923 143.404,119.628 141.985,119.783 141.278 C 120.162 139.554,121.089 137.708,122.465 135.942 C 123.089 135.141,123.600 134.289,123.600 134.050 C 123.600 133.530,125.969 129.792,127.156 128.439 C 127.620 127.910,128.000 127.257,128.000 126.988 C 128.000 126.497,129.586 124.614,133.502 120.453 C 134.657 119.225,135.705 117.901,135.829 117.510 C 135.952 117.120,136.192 116.800,136.360 116.800 C 136.649 116.800,139.857 113.873,143.400 110.378 C 144.280 109.510,145.206 108.800,145.457 108.800 C 145.708 108.800,146.814 107.990,147.916 107.000 C 149.017 106.010,150.030 105.200,150.167 105.200 C 150.497 105.200,153.645 103.149,154.364 102.465 C 154.674 102.170,155.934 101.462,157.164 100.891 C 158.394 100.319,160.120 99.370,161.000 98.781 C 161.880 98.192,163.050 97.584,163.600 97.430 C 164.970 97.046,165.717 96.728,169.313 94.997 C 171.025 94.172,173.545 93.265,174.913 92.980 C 178.659 92.200,180.921 91.594,181.384 91.245 C 183.962 89.304,201.742 88.237,215.400 89.203 M195.964 100.170 C 195.840 100.293,193.863 100.575,191.569 100.795 C 185.740 101.356,180.848 102.391,179.200 103.414 C 178.430 103.892,176.551 104.597,175.024 104.979 C 173.498 105.362,170.798 106.423,169.024 107.338 C 167.251 108.252,165.206 109.244,164.481 109.542 C 163.755 109.840,162.671 110.497,162.072 111.001 C 161.472 111.505,160.176 112.331,159.191 112.835 C 158.206 113.340,156.610 114.438,155.644 115.276 C 154.678 116.114,153.688 116.799,153.444 116.798 C 152.958 116.796,151.908 117.766,145.537 124.111 C 143.193 126.445,140.763 129.038,140.137 129.872 C 139.512 130.706,138.564 131.800,138.032 132.303 C 137.499 132.806,136.758 133.901,136.384 134.735 C 136.011 135.570,135.174 136.871,134.525 137.626 C 133.877 138.382,132.938 139.900,132.439 141.000 C 131.941 142.100,131.092 143.648,130.554 144.439 C 130.016 145.231,129.058 147.400,128.425 149.260 C 127.792 151.121,126.926 153.264,126.499 154.023 C 125.741 155.374,124.943 158.589,123.976 164.200 C 123.710 165.740,123.157 168.465,122.746 170.255 C 122.272 172.321,122.000 175.039,122.000 177.700 C 122.000 182.911,121.479 185.758,120.226 187.402 L 119.256 188.674 114.328 188.957 C 105.652 189.455,99.570 190.593,97.446 192.116 C 96.767 192.602,95.849 193.197,95.406 193.437 C 92.509 195.010,91.345 195.786,90.872 196.461 C 90.075 197.600,88.413 199.200,88.027 199.200 C 87.842 199.200,86.920 200.505,85.978 202.100 C 85.036 203.695,83.868 205.540,83.384 206.200 C 82.457 207.462,82.272 208.075,81.457 212.600 C 80.442 218.233,77.742 222.000,74.718 222.000 C 73.844 222.000,71.704 223.142,70.518 224.241 C 69.949 224.769,69.220 225.200,68.899 225.200 C 67.270 225.200,63.146 230.520,61.922 234.200 C 61.264 236.180,60.562 237.971,60.362 238.180 C 59.239 239.358,61.295 248.637,63.390 251.840 C 63.950 252.695,67.041 255.863,68.047 256.612 C 68.351 256.839,69.252 257.518,70.049 258.121 C 73.510 260.740,69.632 260.600,138.800 260.600 C 200.684 260.600,201.418 260.591,203.000 259.797 L 204.600 258.994 204.701 202.221 C 204.776 160.445,204.684 145.375,204.352 145.170 C 203.658 144.742,201.199 145.562,199.336 146.844 C 198.412 147.480,197.469 148.000,197.241 148.000 C 197.013 148.000,196.236 148.589,195.513 149.309 C 194.791 150.029,193.480 151.047,192.600 151.572 C 191.720 152.096,190.460 153.016,189.800 153.614 C 189.140 154.213,187.700 155.185,186.600 155.774 C 185.500 156.363,184.194 157.295,183.698 157.847 C 180.951 160.900,174.763 159.881,171.936 155.910 C 170.515 153.914,171.239 148.000,172.903 148.000 C 173.085 148.000,174.087 147.203,175.129 146.228 C 176.171 145.253,177.918 143.998,179.012 143.438 C 180.105 142.878,181.435 141.954,181.967 141.384 C 182.499 140.814,183.579 140.016,184.367 139.609 C 185.155 139.203,186.384 138.345,187.099 137.701 C 187.813 137.058,189.383 136.048,190.588 135.458 C 191.794 134.868,192.957 134.054,193.174 133.648 C 193.391 133.243,194.564 132.408,195.780 131.793 C 196.996 131.177,198.266 130.253,198.603 129.739 C 198.940 129.225,199.797 128.558,200.508 128.257 C 201.219 127.956,202.880 126.894,204.200 125.898 C 208.784 122.436,214.980 122.145,217.321 125.281 C 219.179 127.770,219.171 127.466,219.186 194.871 C 219.198 250.397,219.274 258.417,219.793 258.936 C 221.751 260.894,220.938 260.862,264.225 260.712 C 309.805 260.555,308.844 260.615,314.932 257.568 C 316.655 256.705,318.329 256.000,318.652 256.000 C 319.433 256.000,321.601 254.888,322.607 253.971 C 323.050 253.567,324.310 252.760,325.407 252.177 C 328.903 250.320,335.080 244.460,337.819 240.400 C 338.636 239.190,339.710 237.750,340.207 237.200 C 340.704 236.650,341.233 235.750,341.383 235.200 C 341.697 234.046,342.884 231.495,343.244 231.200 C 344.140 230.466,345.035 227.620,346.388 221.200 C 346.597 220.210,347.057 218.198,347.410 216.728 C 348.182 213.518,348.042 207.027,347.122 203.400 C 346.788 202.080,346.109 199.110,345.615 196.800 C 344.992 193.895,344.358 192.069,343.558 190.880 C 342.921 189.934,342.400 188.910,342.400 188.604 C 342.400 188.298,342.234 187.945,342.031 187.819 C 341.828 187.694,341.543 187.053,341.399 186.395 C 341.254 185.737,340.430 184.442,339.568 183.517 C 338.706 182.592,338.000 181.609,338.000 181.333 C 338.000 180.739,334.420 176.795,331.229 173.875 C 330.553 173.256,330.000 172.622,330.000 172.466 C 330.000 172.310,329.336 171.826,328.525 171.391 C 327.714 170.956,326.429 170.015,325.669 169.300 C 324.910 168.585,324.122 168.000,323.919 168.000 C 323.289 168.000,319.063 165.911,317.800 164.976 C 317.140 164.488,315.700 163.879,314.600 163.623 C 313.500 163.368,311.520 162.911,310.200 162.608 C 308.880 162.305,306.540 161.670,305.000 161.197 C 302.408 160.401,301.585 160.352,293.913 160.536 C 284.392 160.765,284.292 160.736,282.994 157.320 C 282.593 156.264,281.870 154.680,281.388 153.800 C 280.906 152.920,280.024 150.725,279.430 148.921 C 278.835 147.118,277.994 145.192,277.561 144.642 C 277.128 144.091,276.316 142.604,275.755 141.337 C 275.195 140.070,274.187 138.407,273.515 137.643 C 272.844 136.878,272.002 135.598,271.644 134.799 C 271.286 133.999,270.507 132.817,269.912 132.172 C 269.318 131.528,267.393 129.380,265.634 127.400 C 263.876 125.420,261.484 122.925,260.319 121.854 C 259.154 120.784,257.480 119.209,256.600 118.352 C 255.720 117.496,254.809 116.797,254.576 116.798 C 254.343 116.799,253.203 115.990,252.043 115.000 C 250.884 114.010,249.724 113.190,249.467 113.177 C 249.210 113.164,248.370 112.714,247.600 112.175 C 244.581 110.066,243.309 109.342,241.000 108.420 C 239.680 107.892,238.510 107.337,238.400 107.186 C 238.032 106.681,235.815 105.699,234.400 105.415 C 232.202 104.974,230.320 104.291,228.800 103.382 C 225.427 101.366,197.500 98.634,195.964 100.170 M218.623 102.372 C 221.644 102.665,222.541 102.922,224.023 103.919 C 225.386 104.836,226.883 105.319,230.451 105.991 C 234.333 106.723,235.179 107.013,235.572 107.748 C 236.065 108.670,238.666 109.774,241.400 110.223 C 242.578 110.416,243.211 110.805,243.800 111.698 C 244.330 112.502,245.321 113.176,246.736 113.697 C 247.911 114.129,249.351 114.971,249.936 115.568 C 251.468 117.131,252.854 118.000,253.817 118.000 C 254.379 118.000,254.844 118.429,255.228 119.300 C 255.585 120.112,256.374 120.880,257.329 121.347 C 258.273 121.808,259.106 122.614,259.507 123.456 C 259.951 124.387,260.542 124.918,261.378 125.134 C 262.231 125.355,262.719 125.804,262.999 126.625 C 263.490 128.067,264.261 128.890,265.700 129.510 C 266.430 129.824,266.804 130.288,266.813 130.891 C 266.828 131.967,267.429 132.819,268.806 133.714 C 269.376 134.085,270.156 135.273,270.606 136.455 C 271.043 137.603,272.044 139.185,272.831 139.971 C 273.823 140.963,274.488 142.173,275.002 143.927 C 275.518 145.688,276.089 146.725,276.884 147.347 C 277.857 148.108,278.121 148.759,278.671 151.759 C 279.118 154.192,279.608 155.623,280.257 156.394 C 280.773 157.008,281.734 158.535,282.393 159.787 C 284.308 163.428,284.776 163.688,288.800 163.352 C 298.737 162.521,313.386 163.815,315.065 165.673 C 316.049 166.761,318.260 167.833,320.108 168.119 C 321.145 168.280,322.104 168.846,323.183 169.936 C 324.123 170.885,325.544 171.783,326.729 172.176 C 328.340 172.712,328.748 173.038,328.927 173.935 C 329.129 174.946,329.927 175.589,331.658 176.135 C 332.021 176.250,332.646 177.088,333.048 177.999 C 333.586 179.219,334.067 179.713,334.873 179.875 C 335.760 180.052,336.090 180.464,336.618 182.055 C 336.977 183.134,337.901 184.686,338.672 185.504 C 340.391 187.327,340.569 187.665,341.187 190.301 C 341.474 191.522,342.139 192.893,342.777 193.576 C 344.718 195.653,345.722 207.845,344.838 218.600 C 344.221 226.113,344.059 226.857,342.795 228.000 C 341.669 229.017,340.400 232.296,340.400 234.188 C 340.400 234.815,340.123 235.323,339.700 235.472 C 338.549 235.878,337.200 237.288,337.200 238.084 C 337.200 238.493,336.435 239.645,335.500 240.645 C 331.930 244.461,328.562 247.684,327.600 248.203 C 327.050 248.500,326.245 249.287,325.810 249.952 C 325.246 250.815,324.590 251.233,323.512 251.415 C 322.659 251.559,321.698 252.057,321.302 252.561 C 320.208 253.950,318.769 254.713,316.671 255.019 C 314.176 255.382,311.275 256.490,310.227 257.481 C 308.584 259.033,303.960 259.200,262.597 259.200 C 236.444 259.200,223.292 259.063,222.774 258.786 C 222.014 258.379,222.000 257.237,222.000 194.372 C 222.000 124.437,222.167 129.795,219.922 127.529 C 219.550 127.153,219.126 126.213,218.981 125.442 C 218.707 123.978,217.757 123.113,215.931 122.663 C 215.343 122.519,214.303 121.842,213.621 121.159 C 212.161 119.700,210.772 119.790,209.297 121.441 C 208.773 122.027,207.766 122.553,206.897 122.694 C 204.969 123.007,202.394 124.379,201.836 125.391 C 201.210 126.526,200.324 127.173,199.375 127.187 C 198.299 127.204,196.800 128.618,196.800 129.616 C 196.800 130.137,196.528 130.400,195.987 130.400 C 194.597 130.400,192.528 131.470,190.836 133.063 C 189.943 133.904,188.625 134.786,187.907 135.024 C 187.145 135.276,186.209 136.051,185.662 136.883 C 184.949 137.967,184.366 138.367,183.232 138.548 C 182.254 138.705,181.200 139.311,180.170 140.312 C 179.307 141.150,177.736 142.238,176.680 142.730 C 175.470 143.292,174.465 144.123,173.963 144.972 C 173.526 145.714,172.747 146.427,172.233 146.556 C 168.495 147.494,168.949 157.515,172.832 159.797 C 175.989 161.651,184.471 160.562,186.446 158.049 C 186.900 157.472,188.020 156.714,188.936 156.364 C 190.059 155.935,190.795 155.327,191.200 154.494 C 191.641 153.585,192.239 153.134,193.461 152.788 C 194.390 152.525,195.714 151.706,196.461 150.933 C 198.309 149.021,200.092 148.207,201.169 148.783 L 202.000 149.228 201.997 203.714 L 201.994 258.200 200.917 258.700 C 200.070 259.094,186.759 259.195,138.420 259.174 C 73.596 259.147,72.833 259.127,71.909 257.381 C 71.304 256.238,69.922 255.219,68.962 255.209 C 68.029 255.199,67.189 254.349,66.491 252.711 C 66.236 252.112,65.610 251.517,65.099 251.389 C 62.873 250.830,62.153 239.841,63.883 232.826 C 64.107 231.917,64.624 231.232,65.411 230.800 C 66.065 230.440,66.971 229.441,67.424 228.579 C 68.009 227.465,68.645 226.887,69.624 226.579 C 72.055 225.813,73.776 224.896,74.770 223.835 C 75.303 223.266,76.175 222.800,76.708 222.800 C 78.629 222.800,81.801 220.419,82.192 218.683 C 82.301 218.197,82.647 215.766,82.959 213.279 C 83.466 209.250,83.646 208.649,84.612 207.754 C 85.208 207.201,86.018 205.902,86.412 204.866 C 87.468 202.087,93.837 195.691,96.281 194.956 C 97.272 194.657,98.559 193.890,99.142 193.250 C 100.563 191.688,101.255 191.575,111.200 191.266 C 120.082 190.991,121.943 190.588,121.987 188.929 C 121.994 188.669,122.242 188.215,122.538 187.919 C 123.842 186.615,124.339 184.520,124.561 179.400 C 125.211 164.415,125.950 158.959,127.620 156.800 C 128.419 155.769,128.872 154.453,129.343 151.802 C 129.871 148.825,130.155 148.077,130.986 147.472 C 132.099 146.661,132.997 144.932,133.414 142.800 C 133.577 141.966,134.276 140.822,135.144 139.971 C 135.945 139.185,136.957 137.603,137.394 136.455 C 137.844 135.273,138.624 134.085,139.194 133.714 C 140.571 132.819,141.172 131.967,141.187 130.891 C 141.196 130.288,141.570 129.824,142.300 129.510 C 143.739 128.890,144.510 128.067,145.001 126.625 C 145.281 125.804,145.769 125.355,146.622 125.134 C 147.458 124.918,148.049 124.387,148.493 123.456 C 148.894 122.614,149.727 121.808,150.671 121.347 C 151.626 120.880,152.415 120.112,152.772 119.300 C 153.156 118.429,153.621 118.000,154.183 118.000 C 155.146 118.000,156.532 117.131,158.064 115.568 C 158.649 114.971,160.089 114.129,161.264 113.697 C 162.684 113.174,163.668 112.503,164.200 111.694 C 164.815 110.760,165.403 110.416,166.737 110.209 C 169.305 109.811,172.043 108.523,172.285 107.598 C 172.399 107.159,172.614 106.800,172.761 106.800 C 175.342 106.800,182.468 104.976,183.990 103.925 C 186.549 102.159,206.961 101.243,218.623 102.372 " stroke="none" fill="#ff4747" fill-rule="evenodd"></path><path id="path3" d="M191.600 89.251 C 187.287 89.568,182.325 90.537,181.384 91.245 C 180.921 91.594,178.659 92.200,174.913 92.980 C 173.545 93.265,171.025 94.172,169.313 94.997 C 165.717 96.728,164.970 97.046,163.600 97.430 C 163.050 97.584,161.880 98.192,161.000 98.781 C 160.120 99.370,158.394 100.319,157.164 100.891 C 155.934 101.462,154.674 102.170,154.364 102.465 C 153.645 103.149,150.497 105.200,150.167 105.200 C 150.030 105.200,149.017 106.010,147.916 107.000 C 146.814 107.990,145.708 108.800,145.457 108.800 C 145.206 108.800,144.280 109.510,143.400 110.378 C 139.857 113.873,136.649 116.800,136.360 116.800 C 136.192 116.800,135.952 117.120,135.829 117.510 C 135.705 117.901,134.657 119.225,133.502 120.453 C 129.586 124.614,128.000 126.497,128.000 126.988 C 128.000 127.257,127.620 127.910,127.156 128.439 C 125.969 129.792,123.600 133.530,123.600 134.050 C 123.600 134.289,123.089 135.141,122.465 135.942 C 121.089 137.708,120.162 139.554,119.783 141.278 C 119.628 141.985,118.923 143.404,118.217 144.430 C 117.444 145.554,116.655 147.470,116.233 149.248 C 115.847 150.872,115.013 153.370,114.379 154.800 C 113.183 157.497,112.752 159.807,111.808 168.600 C 110.861 177.423,110.369 177.962,102.711 178.581 C 99.704 178.825,98.263 179.274,95.800 180.736 C 95.140 181.128,93.487 181.860,92.127 182.363 C 90.767 182.866,89.327 183.640,88.927 184.083 C 88.527 184.525,87.479 185.227,86.598 185.642 C 84.670 186.549,76.800 194.523,76.800 195.569 C 76.800 195.791,76.305 196.492,75.700 197.128 C 74.290 198.608,73.769 199.518,73.420 201.109 C 73.265 201.814,72.972 202.494,72.769 202.619 C 72.566 202.745,72.400 203.175,72.400 203.575 C 72.400 203.975,72.143 204.515,71.830 204.775 C 71.288 205.225,69.600 209.967,69.600 211.038 C 69.600 211.750,67.815 213.067,66.075 213.640 C 65.264 213.907,63.778 214.817,62.774 215.663 C 61.770 216.508,60.783 217.200,60.581 217.200 C 59.900 217.200,55.149 222.580,53.957 224.700 C 53.307 225.855,52.336 227.448,51.799 228.240 C 51.261 229.032,50.711 230.337,50.577 231.140 C 50.443 231.943,50.132 233.230,49.887 234.000 C 48.415 238.621,50.047 253.266,52.231 255.031 C 52.524 255.268,53.209 256.348,53.754 257.431 C 55.649 261.197,61.787 266.694,66.279 268.647 C 67.906 269.354,69.455 270.114,69.722 270.335 C 71.772 272.036,69.140 272.000,189.925 271.999 C 313.213 271.997,308.734 272.071,313.064 269.982 C 313.980 269.541,316.230 268.805,318.064 268.347 C 321.001 267.613,323.800 266.387,324.400 265.570 C 324.510 265.420,325.561 264.960,326.735 264.549 C 327.910 264.137,329.530 263.204,330.335 262.476 C 331.141 261.748,332.286 260.938,332.880 260.676 C 335.207 259.650,344.235 251.062,346.271 247.938 C 346.892 246.986,347.804 245.825,348.298 245.359 C 348.791 244.894,349.577 243.632,350.044 242.556 C 350.511 241.480,351.300 240.150,351.798 239.600 C 352.295 239.050,353.096 237.430,353.578 236.000 C 354.060 234.570,355.057 232.140,355.793 230.600 C 357.999 225.983,359.232 214.437,358.473 205.489 C 357.605 195.243,357.139 193.251,354.361 187.905 C 354.162 187.523,354.000 186.859,354.000 186.429 C 354.000 185.999,353.840 185.548,353.644 185.427 C 353.449 185.306,353.171 184.740,353.028 184.169 C 352.884 183.597,352.336 182.665,351.810 182.097 C 351.284 181.530,350.741 180.620,350.604 180.075 C 350.328 178.972,347.963 175.200,347.548 175.200 C 347.403 175.200,346.730 174.338,346.054 173.284 C 345.378 172.231,344.279 170.966,343.613 170.472 C 342.946 169.979,342.400 169.354,342.400 169.084 C 342.400 168.813,341.825 168.143,341.123 167.596 C 340.421 167.048,338.997 165.745,337.959 164.700 C 336.922 163.655,335.889 162.800,335.665 162.800 C 335.440 162.800,334.609 162.189,333.817 161.442 C 333.025 160.695,331.347 159.570,330.088 158.942 C 328.830 158.314,327.350 157.386,326.800 156.879 C 326.250 156.373,325.301 155.855,324.692 155.728 C 324.082 155.601,323.486 155.340,323.368 155.148 C 323.250 154.957,322.822 154.800,322.417 154.800 C 322.012 154.800,320.669 154.267,319.431 153.616 C 316.955 152.314,313.785 151.446,309.200 150.815 C 307.550 150.588,304.400 150.137,302.200 149.814 C 300.000 149.490,297.020 149.220,295.578 149.213 L 292.956 149.200 291.578 146.977 C 290.820 145.754,289.810 144.285,289.333 143.713 C 288.855 143.141,288.351 142.062,288.211 141.316 C 287.913 139.730,286.302 136.573,285.182 135.381 C 284.752 134.923,284.400 134.350,284.400 134.107 C 284.400 133.864,284.085 133.080,283.700 132.366 C 283.016 131.098,282.503 130.397,280.824 128.439 C 280.371 127.910,280.000 127.250,280.000 126.971 C 280.000 126.693,279.325 125.763,278.500 124.904 C 277.675 124.045,276.550 122.680,276.000 121.871 C 275.450 121.061,274.730 120.309,274.400 120.200 C 274.070 120.091,273.351 119.326,272.802 118.501 C 272.252 117.675,271.503 116.775,271.135 116.501 C 270.459 115.996,267.527 113.246,264.600 110.371 C 263.720 109.507,262.794 108.800,262.543 108.800 C 262.292 108.800,261.186 107.990,260.084 107.000 C 258.983 106.010,257.970 105.200,257.833 105.200 C 257.445 105.200,254.314 103.103,253.204 102.100 C 252.656 101.605,252.054 101.200,251.865 101.200 C 251.281 101.200,248.680 99.907,247.000 98.781 C 246.120 98.192,244.950 97.584,244.400 97.430 C 243.026 97.045,242.283 96.728,238.642 94.974 C 236.906 94.138,234.386 93.227,233.042 92.951 C 229.187 92.157,227.066 91.586,226.616 91.219 C 224.245 89.286,205.471 88.231,191.600 89.251 M213.763 90.225 C 219.242 90.703,221.486 91.071,223.357 91.797 C 224.701 92.318,227.870 93.142,230.400 93.628 C 233.396 94.203,235.418 94.815,236.200 95.384 C 237.579 96.387,240.489 97.600,241.514 97.600 C 241.898 97.600,243.470 98.338,245.006 99.239 C 246.543 100.141,248.690 101.232,249.777 101.664 C 250.864 102.096,252.160 102.888,252.658 103.424 C 253.155 103.961,253.658 104.400,253.775 104.400 C 254.269 104.400,258.207 107.029,259.271 108.070 C 259.907 108.691,260.689 109.200,261.009 109.200 C 261.329 109.200,262.440 110.100,263.478 111.200 C 264.516 112.300,265.553 113.200,265.783 113.200 C 266.012 113.200,266.882 114.000,267.716 114.978 C 268.550 115.956,269.546 116.856,269.929 116.978 C 270.313 117.099,270.970 117.784,271.388 118.499 C 271.807 119.215,272.881 120.561,273.775 121.490 C 276.881 124.721,277.737 125.791,279.132 128.189 C 279.903 129.515,280.913 130.960,281.376 131.400 C 282.206 132.189,283.600 134.760,283.600 135.502 C 283.600 135.712,284.049 136.368,284.599 136.961 C 285.634 138.077,286.913 140.634,287.338 142.436 C 287.592 143.508,291.176 149.232,292.300 150.359 C 292.807 150.867,294.194 151.049,298.970 151.233 C 308.168 151.590,312.972 152.270,315.800 153.618 C 317.120 154.247,319.190 155.060,320.400 155.423 C 323.383 156.320,324.985 157.059,325.630 157.836 C 325.927 158.194,327.257 158.993,328.585 159.612 C 329.913 160.231,331.720 161.379,332.600 162.163 C 333.480 162.948,334.513 163.694,334.896 163.821 C 335.515 164.026,338.380 166.530,340.600 168.807 C 343.952 172.244,344.729 173.148,344.960 173.874 C 345.104 174.328,345.841 175.338,346.598 176.117 C 347.355 176.896,348.521 178.664,349.190 180.045 C 349.859 181.426,350.747 182.926,351.163 183.378 C 351.894 184.173,353.200 187.487,353.200 188.548 C 353.200 188.834,353.818 190.338,354.574 191.891 C 358.136 199.209,358.424 223.283,355.016 228.800 C 353.987 230.466,353.349 232.092,352.977 234.000 C 352.653 235.658,351.796 237.423,350.789 238.504 C 350.389 238.933,349.852 239.850,349.596 240.542 C 348.849 242.554,347.908 244.161,347.160 244.700 C 346.778 244.975,346.052 245.875,345.547 246.700 C 345.042 247.525,344.172 248.697,343.614 249.305 C 341.186 251.952,339.198 253.909,337.420 255.400 C 336.372 256.280,335.128 257.423,334.657 257.939 C 334.186 258.456,333.080 259.240,332.200 259.682 C 331.320 260.124,330.060 260.975,329.400 261.572 C 328.740 262.169,326.881 263.161,325.269 263.776 C 323.657 264.391,322.247 265.134,322.134 265.427 C 321.917 265.993,319.364 266.947,316.400 267.571 C 312.970 268.292,311.061 268.837,310.033 269.388 C 307.402 270.800,305.727 270.820,189.840 270.813 C 70.631 270.805,73.051 270.839,70.846 269.136 C 70.321 268.731,69.695 268.400,69.455 268.400 C 68.196 268.400,63.591 266.246,63.035 265.398 C 62.691 264.872,61.763 264.135,60.975 263.761 C 60.186 263.387,59.239 262.612,58.871 262.040 C 58.503 261.468,57.543 260.399,56.736 259.666 C 55.929 258.932,55.150 257.852,55.004 257.266 C 54.858 256.679,54.142 255.299,53.412 254.197 C 49.996 249.038,49.611 232.479,52.829 229.095 C 53.297 228.603,54.207 227.120,54.850 225.800 C 55.494 224.480,56.620 222.847,57.354 222.172 C 58.087 221.497,58.996 220.473,59.373 219.897 C 59.751 219.321,60.811 218.462,61.730 217.989 C 62.648 217.516,63.850 216.704,64.400 216.186 C 64.950 215.667,66.291 214.849,67.380 214.368 C 69.704 213.340,70.643 212.317,71.004 210.420 C 71.148 209.661,71.774 208.041,72.395 206.820 C 73.016 205.599,73.926 203.430,74.418 202.000 C 74.909 200.570,75.755 198.952,76.296 198.405 C 76.837 197.858,77.616 196.753,78.026 195.949 C 78.950 194.138,85.673 187.446,87.384 186.634 C 88.077 186.305,89.318 185.501,90.141 184.847 C 90.965 184.192,92.838 183.270,94.303 182.796 C 95.769 182.322,97.696 181.511,98.584 180.992 C 99.473 180.473,101.190 179.937,102.400 179.800 C 111.881 178.730,112.520 178.113,112.974 169.600 C 113.274 163.977,114.198 158.813,115.273 156.749 C 115.716 155.900,116.405 153.711,116.804 151.885 C 117.246 149.861,118.168 147.373,119.165 145.514 C 120.064 143.836,120.800 142.259,120.800 142.010 C 120.800 141.195,122.381 138.062,123.301 137.054 C 123.796 136.513,124.550 135.203,124.977 134.144 C 125.404 133.085,126.143 131.855,126.618 131.409 C 127.093 130.964,128.030 129.635,128.700 128.455 C 129.944 126.267,131.875 123.838,134.428 121.248 C 135.213 120.452,136.180 119.244,136.576 118.565 C 136.971 117.886,137.904 117.003,138.648 116.602 C 139.391 116.202,140.000 115.750,140.000 115.599 C 140.000 115.107,141.813 113.200,142.282 113.200 C 142.532 113.200,143.337 112.505,144.069 111.656 C 144.801 110.807,146.030 109.791,146.800 109.399 C 147.570 109.006,148.584 108.274,149.053 107.772 C 149.523 107.270,150.963 106.271,152.253 105.552 C 153.544 104.833,154.995 103.831,155.478 103.325 C 155.962 102.819,157.282 102.040,158.414 101.595 C 159.545 101.149,161.658 100.067,163.110 99.192 C 164.562 98.316,166.072 97.600,166.467 97.600 C 167.512 97.600,170.414 96.393,171.800 95.380 C 172.604 94.793,174.583 94.208,177.800 93.606 C 180.440 93.111,183.140 92.485,183.800 92.213 C 184.460 91.942,185.540 91.510,186.200 91.253 C 189.661 89.907,203.999 89.372,213.763 90.225 M197.945 98.378 C 196.265 98.553,194.694 98.818,194.453 98.967 C 194.212 99.116,192.167 99.493,189.908 99.806 C 180.399 101.121,179.159 101.405,177.600 102.624 C 177.270 102.882,175.920 103.405,174.600 103.787 C 170.827 104.879,169.951 105.237,167.548 106.663 C 166.309 107.398,165.085 108.000,164.828 108.000 C 164.322 108.000,162.147 109.058,161.438 109.650 C 161.197 109.851,160.550 110.387,160.000 110.843 C 159.450 111.298,158.417 111.915,157.704 112.213 C 156.991 112.512,155.940 113.224,155.368 113.796 C 154.796 114.367,153.619 115.283,152.751 115.831 C 151.883 116.379,150.452 117.496,149.571 118.314 C 145.990 121.637,140.241 127.487,139.266 128.800 C 138.695 129.570,137.636 130.876,136.913 131.701 C 136.191 132.527,135.600 133.432,135.600 133.712 C 135.600 133.992,135.080 134.791,134.444 135.488 C 132.633 137.470,131.676 138.949,131.380 140.224 C 131.229 140.871,130.630 142.030,130.048 142.800 C 128.768 144.493,128.279 145.526,127.396 148.396 C 127.025 149.605,126.261 151.377,125.699 152.335 C 124.686 154.065,124.529 154.623,123.427 160.400 C 123.112 162.050,122.469 164.635,121.997 166.145 C 121.123 168.945,120.427 175.599,120.409 181.326 C 120.394 186.582,119.766 187.191,114.329 187.229 C 110.029 187.260,107.043 187.612,105.000 188.329 C 103.825 188.742,102.205 189.189,99.000 189.985 C 95.366 190.887,86.555 197.985,84.800 201.424 C 84.470 202.071,84.020 202.819,83.800 203.086 C 81.830 205.481,81.356 206.680,80.356 211.800 C 80.141 212.900,79.433 214.902,78.783 216.249 C 78.132 217.596,77.600 218.824,77.600 218.978 C 77.600 219.671,76.345 220.368,74.031 220.961 C 72.370 221.386,70.972 222.075,69.890 223.002 C 68.991 223.771,68.060 224.400,67.820 224.400 C 67.580 224.400,66.995 224.805,66.520 225.300 C 62.948 229.024,61.959 230.225,61.739 231.100 C 61.601 231.651,60.874 233.280,60.123 234.719 C 58.057 238.684,58.047 243.745,60.099 247.800 C 60.878 249.340,61.650 251.050,61.814 251.600 C 62.108 252.583,67.049 258.000,67.651 258.000 C 67.820 258.000,68.445 258.451,69.040 259.002 C 69.635 259.553,70.859 260.198,71.761 260.434 C 72.662 260.670,74.120 261.074,75.000 261.332 C 76.193 261.681,92.778 261.800,140.144 261.800 L 203.688 261.800 204.844 260.415 L 206.000 259.030 206.000 202.137 L 206.000 145.245 205.047 144.137 C 204.185 143.134,203.993 143.075,203.028 143.514 C 202.442 143.781,201.605 144.000,201.168 144.000 C 200.731 144.000,199.846 144.539,199.201 145.199 C 198.557 145.858,197.328 146.763,196.471 147.210 C 195.614 147.657,194.460 148.530,193.907 149.151 C 193.354 149.772,192.065 150.684,191.044 151.179 C 190.022 151.673,189.003 152.420,188.779 152.839 C 188.555 153.258,188.123 153.600,187.819 153.600 C 187.515 153.600,187.207 153.735,187.133 153.900 C 187.060 154.065,186.293 154.560,185.428 155.000 C 184.564 155.440,183.382 156.306,182.803 156.925 C 181.772 158.027,179.666 158.771,177.525 158.790 C 176.409 158.800,172.634 155.368,172.177 153.927 C 171.833 152.843,172.775 149.956,173.731 149.165 C 174.209 148.769,175.576 147.603,176.769 146.574 C 177.961 145.544,179.533 144.453,180.261 144.149 C 180.989 143.845,182.145 142.979,182.831 142.226 C 183.517 141.472,184.760 140.583,185.593 140.250 C 186.426 139.916,187.444 139.229,187.854 138.722 C 188.264 138.215,189.610 137.296,190.843 136.681 C 192.077 136.065,193.607 135.016,194.243 134.349 C 194.880 133.682,196.160 132.788,197.088 132.363 C 198.017 131.938,198.962 131.244,199.189 130.821 C 199.416 130.397,200.720 129.482,202.089 128.787 C 203.457 128.091,205.118 126.993,205.780 126.346 C 206.442 125.699,207.437 125.078,207.992 124.966 C 208.546 124.855,209.641 124.595,210.425 124.388 C 211.320 124.152,212.287 124.155,213.025 124.395 C 213.671 124.605,214.682 124.873,215.272 124.989 C 217.687 125.467,217.600 122.897,217.600 193.748 C 217.600 263.702,217.474 259.723,219.740 261.229 C 220.837 261.958,297.544 262.297,303.200 261.598 C 310.521 260.694,313.172 260.128,315.270 259.023 C 316.441 258.407,318.655 257.378,320.189 256.737 C 321.723 256.096,323.343 255.235,323.789 254.823 C 324.235 254.411,325.377 253.673,326.327 253.183 C 327.277 252.692,328.987 251.416,330.127 250.346 C 331.267 249.276,332.515 248.299,332.900 248.174 C 333.285 248.048,333.600 247.770,333.600 247.556 C 333.600 247.341,334.590 246.183,335.800 244.983 C 337.010 243.782,338.000 242.659,338.000 242.487 C 338.000 242.166,339.326 240.363,340.400 239.223 C 341.415 238.147,342.259 236.657,342.568 235.400 C 342.730 234.740,343.270 233.660,343.769 233.000 C 345.098 231.242,345.860 229.373,346.621 226.000 C 346.993 224.350,347.750 221.740,348.303 220.200 C 349.835 215.931,349.832 205.526,348.297 201.400 C 347.724 199.860,347.139 197.880,346.997 197.000 C 346.856 196.120,346.588 194.950,346.402 194.400 C 346.217 193.850,345.965 192.937,345.843 192.371 C 345.720 191.805,345.142 190.637,344.557 189.775 C 343.972 188.913,343.037 187.126,342.478 185.804 C 341.919 184.482,340.971 182.932,340.372 182.361 C 339.773 181.789,338.970 180.709,338.586 179.961 C 338.203 179.212,337.534 178.330,337.099 178.000 C 336.665 177.670,336.015 177.049,335.655 176.619 C 333.986 174.629,329.826 170.731,328.812 170.206 C 328.192 169.886,327.171 169.118,326.542 168.500 C 325.914 167.882,324.257 166.868,322.859 166.247 C 321.462 165.627,320.013 164.813,319.639 164.439 C 319.266 164.066,317.889 163.445,316.580 163.060 C 315.271 162.675,311.950 161.646,309.200 160.773 L 304.200 159.186 294.708 159.193 L 285.216 159.200 284.466 157.700 C 284.053 156.875,283.608 155.634,283.476 154.943 C 283.345 154.252,282.704 152.846,282.053 151.819 C 281.401 150.791,280.650 149.017,280.383 147.875 C 280.116 146.734,279.231 144.810,278.416 143.600 C 277.601 142.390,276.802 140.871,276.640 140.224 C 276.320 138.942,275.349 137.451,273.556 135.488 C 272.920 134.791,272.400 133.992,272.400 133.712 C 272.400 133.432,271.809 132.527,271.087 131.701 C 270.364 130.876,269.304 129.570,268.730 128.800 C 266.598 125.939,257.698 117.377,255.249 115.831 C 254.381 115.283,253.204 114.367,252.632 113.796 C 252.060 113.224,251.006 112.511,250.288 112.211 C 249.571 111.911,248.358 111.118,247.592 110.447 C 246.826 109.776,245.120 108.824,243.800 108.331 C 242.480 107.838,241.065 107.124,240.655 106.745 C 239.825 105.978,237.033 104.840,233.400 103.788 C 232.080 103.406,230.730 102.882,230.400 102.624 C 228.852 101.413,227.727 101.152,218.200 99.795 C 216.000 99.482,213.603 99.049,212.874 98.833 C 211.014 98.283,201.603 97.996,197.945 98.378 M216.800 100.747 C 222.560 101.423,227.242 102.451,228.800 103.382 C 230.320 104.291,232.202 104.974,234.400 105.415 C 235.815 105.699,238.032 106.681,238.400 107.186 C 238.510 107.337,239.680 107.892,241.000 108.420 C 243.309 109.342,244.581 110.066,247.600 112.175 C 248.370 112.714,249.210 113.164,249.467 113.177 C 249.724 113.190,250.884 114.010,252.043 115.000 C 253.203 115.990,254.343 116.799,254.576 116.798 C 254.809 116.797,255.720 117.496,256.600 118.352 C 257.480 119.209,259.154 120.784,260.319 121.854 C 261.484 122.925,263.876 125.420,265.634 127.400 C 267.393 129.380,269.318 131.528,269.912 132.172 C 270.507 132.817,271.286 133.999,271.644 134.799 C 272.002 135.598,272.844 136.878,273.515 137.643 C 274.187 138.407,275.195 140.070,275.755 141.337 C 276.316 142.604,277.128 144.091,277.561 144.642 C 277.994 145.192,278.835 147.118,279.430 148.921 C 280.024 150.725,280.906 152.920,281.388 153.800 C 281.870 154.680,282.593 156.264,282.994 157.320 C 284.292 160.736,284.392 160.765,293.913 160.536 C 301.585 160.352,302.408 160.401,305.000 161.197 C 306.540 161.670,308.880 162.305,310.200 162.608 C 311.520 162.911,313.500 163.368,314.600 163.623 C 315.700 163.879,317.140 164.488,317.800 164.976 C 319.063 165.911,323.289 168.000,323.919 168.000 C 324.122 168.000,324.910 168.585,325.669 169.300 C 326.429 170.015,327.714 170.956,328.525 171.391 C 329.336 171.826,330.000 172.310,330.000 172.466 C 330.000 172.622,330.553 173.256,331.229 173.875 C 334.420 176.795,338.000 180.739,338.000 181.333 C 338.000 181.609,338.706 182.592,339.568 183.517 C 340.430 184.442,341.254 185.737,341.399 186.395 C 341.543 187.053,341.828 187.694,342.031 187.819 C 342.234 187.945,342.400 188.298,342.400 188.604 C 342.400 188.910,342.921 189.934,343.558 190.880 C 344.358 192.069,344.992 193.895,345.615 196.800 C 346.109 199.110,346.788 202.080,347.122 203.400 C 348.042 207.027,348.182 213.518,347.410 216.728 C 347.057 218.198,346.597 220.210,346.388 221.200 C 345.035 227.620,344.140 230.466,343.244 231.200 C 342.884 231.495,341.697 234.046,341.383 235.200 C 341.233 235.750,340.704 236.650,340.207 237.200 C 339.710 237.750,338.636 239.190,337.819 240.400 C 335.080 244.460,328.903 250.320,325.407 252.177 C 324.310 252.760,323.050 253.567,322.607 253.971 C 321.601 254.888,319.433 256.000,318.652 256.000 C 318.329 256.000,316.655 256.705,314.932 257.568 C 308.844 260.615,309.805 260.555,264.225 260.712 C 220.938 260.862,221.751 260.894,219.793 258.936 C 219.274 258.417,219.198 250.397,219.186 194.871 C 219.171 127.466,219.179 127.770,217.321 125.281 C 214.980 122.145,208.784 122.436,204.200 125.898 C 202.880 126.894,201.219 127.956,200.508 128.257 C 199.797 128.558,198.940 129.225,198.603 129.739 C 198.266 130.253,196.996 131.177,195.780 131.793 C 194.564 132.408,193.391 133.243,193.174 133.648 C 192.957 134.054,191.794 134.868,190.588 135.458 C 189.383 136.048,187.813 137.058,187.099 137.701 C 186.384 138.345,185.155 139.203,184.367 139.609 C 183.579 140.016,182.499 140.814,181.967 141.384 C 181.435 141.954,180.105 142.878,179.012 143.438 C 177.918 143.998,176.171 145.253,175.129 146.228 C 174.087 147.203,173.085 148.000,172.903 148.000 C 171.239 148.000,170.515 153.914,171.936 155.910 C 174.763 159.881,180.951 160.900,183.698 157.847 C 184.194 157.295,185.500 156.363,186.600 155.774 C 187.700 155.185,189.140 154.213,189.800 153.614 C 190.460 153.016,191.720 152.096,192.600 151.572 C 193.480 151.047,194.791 150.029,195.513 149.309 C 196.236 148.589,197.013 148.000,197.241 148.000 C 197.469 148.000,198.412 147.480,199.336 146.844 C 201.199 145.562,203.658 144.742,204.352 145.170 C 204.684 145.375,204.776 160.445,204.701 202.221 L 204.600 258.994 203.000 259.797 C 201.418 260.591,200.684 260.600,138.800 260.600 C 69.632 260.600,73.510 260.740,70.049 258.121 C 69.252 257.518,68.351 256.839,68.047 256.612 C 67.041 255.863,63.950 252.695,63.390 251.840 C 61.295 248.637,59.239 239.358,60.362 238.180 C 60.562 237.971,61.264 236.180,61.922 234.200 C 63.146 230.520,67.270 225.200,68.899 225.200 C 69.220 225.200,69.949 224.769,70.518 224.241 C 71.704 223.142,73.844 222.000,74.718 222.000 C 77.742 222.000,80.442 218.233,81.457 212.600 C 82.272 208.075,82.457 207.462,83.384 206.200 C 83.868 205.540,85.036 203.695,85.978 202.100 C 86.920 200.505,87.842 199.200,88.027 199.200 C 88.413 199.200,90.075 197.600,90.872 196.461 C 91.345 195.786,92.509 195.010,95.406 193.437 C 95.849 193.197,96.767 192.602,97.446 192.116 C 99.570 190.593,105.652 189.455,114.328 188.957 L 119.256 188.674 120.226 187.402 C 121.479 185.758,122.000 182.911,122.000 177.700 C 122.000 175.039,122.272 172.321,122.746 170.255 C 123.157 168.465,123.710 165.740,123.976 164.200 C 124.943 158.589,125.741 155.374,126.499 154.023 C 126.926 153.264,127.792 151.121,128.425 149.260 C 129.058 147.400,130.016 145.231,130.554 144.439 C 131.092 143.648,131.941 142.100,132.439 141.000 C 132.938 139.900,133.877 138.382,134.525 137.626 C 135.174 136.871,136.011 135.570,136.384 134.735 C 136.758 133.901,137.499 132.806,138.032 132.303 C 138.564 131.800,139.512 130.706,140.137 129.872 C 140.763 129.038,143.193 126.445,145.537 124.111 C 151.908 117.766,152.958 116.796,153.444 116.798 C 153.688 116.799,154.678 116.114,155.644 115.276 C 156.610 114.438,158.206 113.340,159.191 112.835 C 160.176 112.331,161.472 111.505,162.072 111.001 C 162.671 110.497,163.755 109.840,164.481 109.542 C 165.206 109.244,167.251 108.252,169.024 107.338 C 170.798 106.423,173.498 105.362,175.024 104.979 C 176.551 104.597,178.430 103.892,179.200 103.414 C 180.848 102.391,185.740 101.356,191.569 100.795 C 193.863 100.575,195.840 100.293,195.964 100.170 C 196.326 99.808,212.648 100.260,216.800 100.747 " stroke="none" fill="#ff8b8b" fill-rule="evenodd"></path><path id="path4" d="M193.600 90.247 C 190.190 90.544,186.860 90.996,186.200 91.253 C 185.540 91.510,184.460 91.942,183.800 92.213 C 183.140 92.485,180.440 93.111,177.800 93.606 C 174.583 94.208,172.604 94.793,171.800 95.380 C 170.414 96.393,167.512 97.600,166.467 97.600 C 166.072 97.600,164.562 98.316,163.110 99.192 C 161.658 100.067,159.545 101.149,158.414 101.595 C 157.282 102.040,155.962 102.819,155.478 103.325 C 154.995 103.831,153.544 104.833,152.253 105.552 C 150.963 106.271,149.523 107.270,149.053 107.772 C 148.584 108.274,147.570 109.006,146.800 109.399 C 146.030 109.791,144.801 110.807,144.069 111.656 C 143.337 112.505,142.532 113.200,142.282 113.200 C 141.813 113.200,140.000 115.107,140.000 115.599 C 140.000 115.750,139.391 116.202,138.648 116.602 C 137.904 117.003,136.971 117.886,136.576 118.565 C 136.180 119.244,135.213 120.452,134.428 121.248 C 131.875 123.838,129.944 126.267,128.700 128.455 C 128.030 129.635,127.093 130.964,126.618 131.409 C 126.143 131.855,125.404 133.085,124.977 134.144 C 124.550 135.203,123.796 136.513,123.301 137.054 C 122.381 138.062,120.800 141.195,120.800 142.010 C 120.800 142.259,120.064 143.836,119.165 145.514 C 118.168 147.373,117.246 149.861,116.804 151.885 C 116.405 153.711,115.716 155.900,115.273 156.749 C 114.198 158.813,113.274 163.977,112.974 169.600 C 112.520 178.113,111.881 178.730,102.400 179.800 C 101.190 179.937,99.473 180.473,98.584 180.992 C 97.696 181.511,95.769 182.322,94.303 182.796 C 92.838 183.270,90.965 184.192,90.141 184.847 C 89.318 185.501,88.077 186.305,87.384 186.634 C 85.673 187.446,78.950 194.138,78.026 195.949 C 77.616 196.753,76.837 197.858,76.296 198.405 C 75.755 198.952,74.909 200.570,74.418 202.000 C 73.926 203.430,73.016 205.599,72.395 206.820 C 71.774 208.041,71.148 209.661,71.004 210.420 C 70.643 212.317,69.704 213.340,67.380 214.368 C 66.291 214.849,64.950 215.667,64.400 216.186 C 63.850 216.704,62.648 217.516,61.730 217.989 C 60.811 218.462,59.751 219.321,59.373 219.897 C 58.996 220.473,58.087 221.497,57.354 222.172 C 56.620 222.847,55.494 224.480,54.850 225.800 C 54.207 227.120,53.297 228.603,52.829 229.095 C 49.611 232.479,49.996 249.038,53.412 254.197 C 54.142 255.299,54.858 256.679,55.004 257.266 C 55.150 257.852,55.929 258.932,56.736 259.666 C 57.543 260.399,58.503 261.468,58.871 262.040 C 59.239 262.612,60.186 263.387,60.975 263.761 C 61.763 264.135,62.691 264.872,63.035 265.398 C 63.591 266.246,68.196 268.400,69.455 268.400 C 69.695 268.400,70.321 268.731,70.846 269.136 C 73.051 270.839,70.631 270.805,189.840 270.813 C 305.727 270.820,307.402 270.800,310.033 269.388 C 311.061 268.837,312.970 268.292,316.400 267.571 C 319.364 266.947,321.917 265.993,322.134 265.427 C 322.247 265.134,323.657 264.391,325.269 263.776 C 326.881 263.161,328.740 262.169,329.400 261.572 C 330.060 260.975,331.320 260.124,332.200 259.682 C 333.080 259.240,334.186 258.456,334.657 257.939 C 335.128 257.423,336.372 256.280,337.420 255.400 C 339.198 253.909,341.186 251.952,343.614 249.305 C 344.172 248.697,345.042 247.525,345.547 246.700 C 346.052 245.875,346.778 244.975,347.160 244.700 C 347.908 244.161,348.849 242.554,349.596 240.542 C 349.852 239.850,350.389 238.933,350.789 238.504 C 351.796 237.423,352.653 235.658,352.977 234.000 C 353.349 232.092,353.987 230.466,355.016 228.800 C 358.424 223.283,358.136 199.209,354.574 191.891 C 353.818 190.338,353.200 188.834,353.200 188.548 C 353.200 187.487,351.894 184.173,351.163 183.378 C 350.747 182.926,349.859 181.426,349.190 180.045 C 348.521 178.664,347.355 176.896,346.598 176.117 C 345.841 175.338,345.104 174.328,344.960 173.874 C 344.729 173.148,343.952 172.244,340.600 168.807 C 338.380 166.530,335.515 164.026,334.896 163.821 C 334.513 163.694,333.480 162.948,332.600 162.163 C 331.720 161.379,329.913 160.231,328.585 159.612 C 327.257 158.993,325.927 158.194,325.630 157.836 C 324.985 157.059,323.383 156.320,320.400 155.423 C 319.190 155.060,317.120 154.247,315.800 153.618 C 312.972 152.270,308.168 151.590,298.970 151.233 C 294.194 151.049,292.807 150.867,292.300 150.359 C 291.176 149.232,287.592 143.508,287.338 142.436 C 286.913 140.634,285.634 138.077,284.599 136.961 C 284.049 136.368,283.600 135.712,283.600 135.502 C 283.600 134.760,282.206 132.189,281.376 131.400 C 280.913 130.960,279.903 129.515,279.132 128.189 C 277.737 125.791,276.881 124.721,273.775 121.490 C 272.881 120.561,271.807 119.215,271.388 118.499 C 270.970 117.784,270.313 117.099,269.929 116.978 C 269.546 116.856,268.550 115.956,267.716 114.978 C 266.882 114.000,266.012 113.200,265.783 113.200 C 265.553 113.200,264.516 112.300,263.478 111.200 C 262.440 110.100,261.329 109.200,261.009 109.200 C 260.689 109.200,259.907 108.691,259.271 108.070 C 258.207 107.029,254.269 104.400,253.775 104.400 C 253.658 104.400,253.155 103.961,252.658 103.424 C 252.160 102.888,250.864 102.096,249.777 101.664 C 248.690 101.232,246.543 100.141,245.006 99.239 C 243.470 98.338,241.898 97.600,241.514 97.600 C 240.489 97.600,237.579 96.387,236.200 95.384 C 235.418 94.815,233.396 94.203,230.400 93.628 C 227.870 93.142,224.701 92.318,223.357 91.797 C 218.533 89.925,205.250 89.234,193.600 90.247 M216.189 91.756 C 217.827 92.829,222.258 93.939,226.044 94.226 C 230.400 94.555,232.368 95.061,233.600 96.169 C 234.898 97.337,237.615 98.312,240.500 98.645 C 241.765 98.791,242.800 99.094,242.800 99.319 C 242.800 100.294,245.255 101.851,247.535 102.322 C 249.491 102.726,250.103 103.060,250.965 104.190 C 251.636 105.069,252.482 105.655,253.308 105.812 C 254.826 106.100,255.703 106.687,256.306 107.820 C 256.546 108.271,257.707 109.128,258.885 109.724 C 260.063 110.320,261.788 111.616,262.718 112.604 C 263.762 113.714,264.756 114.400,265.321 114.400 C 266.007 114.400,266.330 114.725,266.617 115.700 C 266.886 116.611,267.437 117.214,268.463 117.715 C 269.476 118.210,270.113 118.899,270.536 119.957 C 270.953 120.998,271.587 121.692,272.530 122.140 C 273.382 122.544,274.009 123.182,274.165 123.804 C 274.441 124.903,275.015 125.691,277.300 128.109 C 278.125 128.982,278.800 130.010,278.800 130.394 C 278.800 131.301,280.298 133.200,281.013 133.200 C 281.325 133.200,281.774 133.944,282.040 134.900 C 282.875 137.907,283.701 139.519,284.673 140.039 C 285.195 140.318,285.717 141.009,285.833 141.573 C 286.853 146.527,287.693 148.289,289.331 148.918 C 289.699 149.059,290.000 149.527,290.000 149.958 C 290.000 151.727,291.763 152.400,296.397 152.400 C 306.671 152.400,313.980 153.587,313.997 155.258 C 313.999 155.399,315.747 155.844,317.881 156.246 C 321.064 156.846,321.953 157.176,322.819 158.083 C 323.952 159.269,326.272 160.400,327.570 160.400 C 328.008 160.400,328.869 161.034,329.483 161.809 C 330.097 162.583,331.392 163.602,332.359 164.073 C 333.327 164.544,334.752 165.630,335.526 166.487 C 336.300 167.344,337.540 168.299,338.281 168.608 C 339.142 168.968,339.832 169.646,340.192 170.486 C 340.501 171.209,341.457 172.451,342.316 173.247 C 343.175 174.043,344.283 175.531,344.778 176.554 C 345.273 177.577,346.006 178.589,346.408 178.804 C 347.665 179.477,348.400 180.423,348.400 181.367 C 348.400 182.607,349.454 184.623,350.846 186.047 C 351.481 186.696,352.000 187.626,352.000 188.114 C 352.001 190.524,353.308 195.012,354.516 196.751 L 355.800 198.600 355.800 211.000 L 355.800 223.400 354.505 225.011 C 353.228 226.599,352.808 227.940,352.018 232.942 C 351.815 234.231,351.593 235.311,351.524 235.342 C 349.661 236.207,348.629 237.866,348.175 240.730 C 347.944 242.184,347.684 242.564,346.545 243.107 C 345.521 243.595,345.087 244.132,344.772 245.303 C 344.475 246.408,343.963 247.085,342.995 247.656 C 342.247 248.097,341.519 248.824,341.377 249.272 C 341.028 250.371,339.938 251.600,339.311 251.600 C 338.617 251.600,337.200 253.064,337.200 253.781 C 337.200 254.101,336.351 254.786,335.313 255.304 C 334.073 255.922,333.349 256.570,333.202 257.191 C 333.040 257.879,332.476 258.311,331.142 258.769 C 330.132 259.116,328.337 260.143,327.153 261.052 C 325.628 262.222,324.446 262.783,323.103 262.976 C 321.698 263.178,320.816 263.618,319.703 264.672 C 318.470 265.840,317.769 266.153,315.800 266.416 C 307.770 267.487,306.208 267.844,302.540 269.449 C 301.479 269.913,283.575 270.000,189.388 270.000 L 77.497 270.000 75.449 268.840 C 74.322 268.202,72.320 267.467,71.000 267.208 C 67.557 266.531,65.600 265.925,65.600 265.534 C 65.600 264.913,63.602 263.409,61.908 262.753 C 60.709 262.289,60.128 261.783,59.856 260.967 C 59.415 259.645,58.107 258.432,57.100 258.413 C 56.715 258.406,56.400 258.183,56.400 257.918 C 56.400 256.127,54.585 251.662,53.583 250.989 C 50.945 249.216,51.306 232.242,54.013 230.793 C 54.402 230.585,55.030 229.432,55.408 228.231 C 56.062 226.150,56.740 225.247,61.253 220.450 C 61.951 219.707,63.456 218.672,64.597 218.150 C 65.804 217.598,66.853 216.801,67.106 216.247 C 67.391 215.622,68.057 215.171,69.042 214.938 C 70.471 214.600,71.890 213.041,71.971 211.721 C 71.987 211.457,72.443 210.764,72.983 210.180 C 73.999 209.085,74.934 206.347,75.371 203.190 C 75.564 201.795,75.976 201.037,77.168 199.880 C 78.111 198.965,78.814 197.849,78.969 197.022 C 79.152 196.048,79.604 195.440,80.573 194.869 C 81.314 194.432,82.164 193.562,82.461 192.937 C 82.757 192.312,83.565 191.551,84.256 191.247 C 84.963 190.935,85.893 190.017,86.382 189.147 C 87.032 187.990,87.505 187.600,88.260 187.600 C 89.240 187.600,92.800 185.373,92.800 184.759 C 92.800 184.592,94.195 184.159,95.900 183.797 C 100.075 182.912,101.150 182.541,102.798 181.418 C 103.851 180.699,105.144 180.353,108.000 180.026 C 113.710 179.372,113.806 179.216,114.116 170.191 C 114.348 163.464,114.395 163.153,115.394 161.843 C 116.910 159.856,117.180 158.802,118.251 150.700 C 118.395 149.611,118.710 148.800,118.989 148.800 C 120.147 148.800,121.146 146.528,122.167 141.573 C 122.283 141.009,122.815 140.313,123.349 140.027 C 124.347 139.493,125.172 137.882,125.975 134.900 C 126.234 133.937,126.673 133.200,126.987 133.200 C 127.693 133.200,129.200 131.306,129.200 130.419 C 129.200 130.049,130.183 128.690,131.385 127.399 C 132.586 126.108,133.680 124.547,133.815 123.930 C 133.982 123.170,134.504 122.598,135.433 122.158 C 136.385 121.706,137.041 120.971,137.579 119.754 C 138.120 118.532,138.596 118.000,139.148 118.000 C 140.076 118.000,141.600 116.225,141.600 115.146 C 141.600 114.621,141.890 114.400,142.578 114.400 C 143.208 114.400,144.239 113.724,145.478 112.500 C 146.535 111.455,148.270 110.150,149.334 109.600 C 150.398 109.050,151.462 108.240,151.699 107.800 C 152.301 106.685,153.184 106.098,154.692 105.812 C 155.518 105.655,156.364 105.069,157.035 104.190 C 157.897 103.060,158.509 102.726,160.465 102.322 C 162.745 101.851,165.200 100.294,165.200 99.319 C 165.200 99.094,166.235 98.791,167.500 98.645 C 170.385 98.312,173.102 97.337,174.400 96.169 C 175.653 95.041,177.632 94.547,182.142 94.234 C 185.814 93.980,188.932 93.231,191.000 92.107 C 193.752 90.611,214.010 90.329,216.189 91.756 M191.800 97.019 C 190.700 97.320,189.122 97.947,188.294 98.412 C 187.229 99.010,185.590 99.366,182.694 99.629 C 177.761 100.076,176.179 100.540,174.600 102.006 C 173.730 102.814,172.795 103.199,171.200 103.408 C 168.517 103.760,165.746 105.000,165.495 105.960 C 165.369 106.440,164.439 106.917,162.625 107.435 C 159.881 108.217,158.400 109.186,158.400 110.200 C 158.400 110.529,157.698 110.958,156.735 111.218 C 155.754 111.482,154.414 112.309,153.471 113.233 C 152.592 114.095,151.709 114.800,151.510 114.800 C 151.048 114.800,148.348 116.806,147.741 117.600 C 146.564 119.140,145.735 119.906,144.997 120.139 C 144.555 120.278,143.746 121.116,143.200 122.000 C 142.654 122.884,141.897 123.706,141.520 123.826 C 140.847 124.039,138.400 126.841,138.400 127.398 C 138.400 127.553,137.603 128.489,136.629 129.477 C 135.408 130.715,134.779 131.740,134.604 132.775 C 134.404 133.961,134.085 134.395,133.085 134.838 C 132.094 135.278,131.644 135.881,131.010 137.619 C 130.564 138.840,129.779 140.251,129.265 140.755 C 128.174 141.823,127.392 143.559,126.788 146.253 C 126.551 147.313,126.222 148.274,126.057 148.390 C 124.557 149.443,123.603 151.650,123.230 154.931 C 123.012 156.850,122.564 158.911,122.234 159.511 C 119.862 163.822,119.522 166.198,119.100 181.400 L 119.000 185.000 111.800 185.435 C 104.456 185.879,102.879 186.217,101.313 187.684 C 100.815 188.151,99.530 188.657,98.385 188.838 C 95.805 189.246,93.506 190.358,93.037 191.426 C 92.837 191.881,91.794 192.643,90.719 193.120 C 89.234 193.780,88.623 194.326,88.177 195.394 C 87.808 196.276,87.316 196.800,86.857 196.800 C 85.919 196.800,84.838 197.994,84.452 199.457 C 84.286 200.086,83.590 200.960,82.904 201.400 C 81.526 202.285,80.603 204.300,80.167 207.371 C 79.994 208.595,79.559 209.656,79.021 210.171 C 78.265 210.894,77.303 213.767,76.233 218.500 C 76.046 219.330,75.746 219.600,75.012 219.600 C 72.361 219.600,68.400 221.141,68.400 222.172 C 68.400 222.433,67.677 222.965,66.794 223.355 C 64.315 224.449,60.800 228.371,60.800 230.043 C 60.800 231.111,59.915 232.400,59.182 232.400 C 56.402 232.400,56.714 248.554,59.527 250.272 C 59.952 250.531,60.423 251.251,60.574 251.872 C 61.126 254.139,62.232 255.886,63.705 256.816 C 64.534 257.340,65.602 258.337,66.077 259.031 C 66.937 260.286,69.017 261.257,71.918 261.759 C 72.644 261.885,73.889 262.485,74.687 263.094 L 76.138 264.200 139.769 264.297 C 209.789 264.403,204.736 264.594,206.268 261.789 L 207.136 260.200 207.168 202.480 C 207.204 137.060,207.485 142.000,203.729 142.000 C 200.796 142.000,197.973 143.398,197.012 145.327 C 196.765 145.822,196.020 146.286,195.206 146.452 C 193.817 146.736,192.400 148.029,192.400 149.013 C 192.400 149.301,191.858 149.655,191.196 149.801 C 188.741 150.340,186.000 152.124,186.000 153.183 C 186.000 153.412,185.730 153.600,185.400 153.600 C 185.070 153.600,184.800 153.780,184.800 154.000 C 184.800 154.220,184.350 154.400,183.800 154.400 C 182.704 154.400,181.200 155.662,181.200 156.582 C 181.200 156.926,180.649 157.267,179.852 157.417 C 177.503 157.857,176.669 157.527,175.776 155.800 C 175.320 154.920,174.554 154.003,174.073 153.763 C 173.206 153.329,173.205 153.319,173.984 152.614 C 174.416 152.223,174.959 151.330,175.191 150.628 C 175.448 149.849,176.211 148.975,177.155 148.378 C 178.004 147.842,178.972 146.926,179.307 146.342 C 179.666 145.717,180.417 145.172,181.139 145.013 C 182.741 144.661,184.400 143.334,184.400 142.403 C 184.400 141.892,184.802 141.578,185.700 141.386 C 187.977 140.901,190.218 139.687,190.782 138.634 C 191.082 138.073,191.704 137.509,192.164 137.381 C 193.852 136.914,194.846 136.221,195.616 134.975 C 196.100 134.192,196.843 133.611,197.541 133.472 C 199.018 133.176,201.508 131.582,201.798 130.746 C 201.923 130.386,202.964 129.756,204.112 129.346 C 205.682 128.785,206.349 128.292,206.799 127.360 C 207.652 125.593,214.229 124.836,216.000 126.301 C 216.110 126.392,216.290 156.812,216.400 193.900 C 216.559 247.349,216.704 261.368,217.100 261.500 C 217.375 261.592,217.600 261.832,217.600 262.033 C 217.600 262.235,218.005 262.805,218.500 263.300 L 219.400 264.200 262.000 264.200 L 304.600 264.200 306.262 263.119 C 307.288 262.452,308.743 261.945,310.062 261.795 C 315.066 261.226,317.948 260.391,318.891 259.235 C 319.468 258.528,320.531 257.925,321.800 257.584 C 324.274 256.919,326.294 255.765,326.584 254.849 C 326.705 254.469,327.706 253.776,328.809 253.310 C 330.379 252.647,330.945 252.151,331.413 251.031 C 331.793 250.120,332.280 249.600,332.751 249.600 C 333.812 249.600,335.600 248.079,335.600 247.176 C 335.600 246.691,336.075 246.212,336.900 245.867 C 337.619 245.567,338.444 244.804,338.746 244.162 C 339.047 243.523,339.422 242.730,339.579 242.400 C 339.737 242.070,340.263 241.620,340.750 241.400 C 341.649 240.993,343.600 237.411,343.600 236.167 C 343.600 235.792,344.261 234.914,345.068 234.215 C 346.439 233.030,346.571 232.712,347.051 229.423 C 347.431 226.819,347.763 225.761,348.321 225.371 C 351.561 223.101,351.676 196.400,348.445 196.400 C 347.964 196.400,347.342 194.406,347.010 191.800 C 346.688 189.271,345.819 187.362,344.637 186.588 C 344.113 186.244,343.436 185.117,343.067 183.972 C 342.413 181.950,341.609 180.800,340.847 180.800 C 340.622 180.800,340.094 180.035,339.674 179.100 C 339.255 178.165,337.626 176.055,336.056 174.412 C 334.485 172.768,333.200 171.283,333.200 171.112 C 333.200 170.940,333.003 170.800,332.763 170.800 C 332.523 170.800,331.869 170.440,331.309 170.000 C 330.750 169.560,330.034 169.200,329.717 169.200 C 329.075 169.200,328.000 168.255,328.000 167.691 C 328.000 167.022,326.619 166.093,325.200 165.807 C 324.392 165.644,323.277 164.969,322.563 164.209 C 321.350 162.919,319.154 162.056,315.454 161.414 C 314.603 161.267,313.442 160.715,312.872 160.187 C 310.995 158.446,307.576 158.000,296.101 158.000 C 284.765 158.000,284.803 158.008,284.796 155.620 C 284.787 152.714,284.292 151.142,282.932 149.700 C 281.923 148.630,281.423 147.581,280.966 145.570 C 280.540 143.697,279.963 142.421,279.076 141.393 C 278.374 140.578,277.436 138.897,276.990 137.656 C 276.351 135.874,275.914 135.282,274.915 134.838 C 273.915 134.395,273.596 133.961,273.396 132.775 C 273.221 131.740,272.592 130.715,271.371 129.477 C 270.397 128.489,269.600 127.553,269.600 127.398 C 269.600 126.841,267.153 124.039,266.480 123.826 C 266.103 123.706,265.345 122.879,264.797 121.988 C 264.249 121.098,263.440 120.271,263.000 120.152 C 262.560 120.033,261.666 119.267,261.013 118.449 C 259.851 116.993,257.114 114.800,256.458 114.800 C 256.276 114.800,255.408 114.095,254.529 113.233 C 253.586 112.309,252.246 111.482,251.265 111.218 C 250.302 110.958,249.600 110.529,249.600 110.200 C 249.600 109.175,248.013 108.122,245.404 107.416 C 243.624 106.934,242.649 106.429,242.213 105.763 C 241.425 104.562,239.507 103.746,236.621 103.385 C 234.964 103.178,234.194 102.864,233.650 102.173 C 232.564 100.793,230.311 100.098,225.485 99.656 C 222.392 99.373,220.775 99.028,219.777 98.439 C 216.302 96.389,197.573 95.438,191.800 97.019 M212.874 98.833 C 213.603 99.049,216.000 99.482,218.200 99.795 C 227.727 101.152,228.852 101.413,230.400 102.624 C 230.730 102.882,232.080 103.406,233.400 103.788 C 237.033 104.840,239.825 105.978,240.655 106.745 C 241.065 107.124,242.480 107.838,243.800 108.331 C 245.120 108.824,246.826 109.776,247.592 110.447 C 248.358 111.118,249.571 111.911,250.288 112.211 C 251.006 112.511,252.060 113.224,252.632 113.796 C 253.204 114.367,254.381 115.283,255.249 115.831 C 257.698 117.377,266.598 125.939,268.730 128.800 C 269.304 129.570,270.364 130.876,271.087 131.701 C 271.809 132.527,272.400 133.432,272.400 133.712 C 272.400 133.992,272.920 134.791,273.556 135.488 C 275.349 137.451,276.320 138.942,276.640 140.224 C 276.802 140.871,277.601 142.390,278.416 143.600 C 279.231 144.810,280.116 146.734,280.383 147.875 C 280.650 149.017,281.401 150.791,282.053 151.819 C 282.704 152.846,283.345 154.252,283.476 154.943 C 283.608 155.634,284.053 156.875,284.466 157.700 L 285.216 159.200 294.708 159.193 L 304.200 159.186 309.200 160.773 C 311.950 161.646,315.271 162.675,316.580 163.060 C 317.889 163.445,319.266 164.066,319.639 164.439 C 320.013 164.813,321.462 165.627,322.859 166.247 C 324.257 166.868,325.914 167.882,326.542 168.500 C 327.171 169.118,328.192 169.886,328.812 170.206 C 329.826 170.731,333.986 174.629,335.655 176.619 C 336.015 177.049,336.665 177.670,337.099 178.000 C 337.534 178.330,338.203 179.212,338.586 179.961 C 338.970 180.709,339.773 181.789,340.372 182.361 C 340.971 182.932,341.919 184.482,342.478 185.804 C 343.037 187.126,343.972 188.913,344.557 189.775 C 345.142 190.637,345.720 191.805,345.843 192.371 C 345.965 192.937,346.217 193.850,346.402 194.400 C 346.588 194.950,346.856 196.120,346.997 197.000 C 347.139 197.880,347.724 199.860,348.297 201.400 C 349.832 205.526,349.835 215.931,348.303 220.200 C 347.750 221.740,346.993 224.350,346.621 226.000 C 345.860 229.373,345.098 231.242,343.769 233.000 C 343.270 233.660,342.730 234.740,342.568 235.400 C 342.259 236.657,341.415 238.147,340.400 239.223 C 339.326 240.363,338.000 242.166,338.000 242.487 C 338.000 242.659,337.010 243.782,335.800 244.983 C 334.590 246.183,333.600 247.341,333.600 247.556 C 333.600 247.770,333.285 248.048,332.900 248.174 C 332.515 248.299,331.267 249.276,330.127 250.346 C 328.987 251.416,327.277 252.692,326.327 253.183 C 325.377 253.673,324.235 254.411,323.789 254.823 C 323.343 255.235,321.723 256.096,320.189 256.737 C 318.655 257.378,316.441 258.407,315.270 259.023 C 313.172 260.128,310.521 260.694,303.200 261.598 C 297.544 262.297,220.837 261.958,219.740 261.229 C 217.474 259.723,217.600 263.702,217.600 193.748 C 217.600 122.897,217.687 125.467,215.272 124.989 C 214.682 124.873,213.671 124.605,213.025 124.395 C 212.287 124.155,211.320 124.152,210.425 124.388 C 209.641 124.595,208.546 124.855,207.992 124.966 C 207.437 125.078,206.442 125.699,205.780 126.346 C 205.118 126.993,203.457 128.091,202.089 128.787 C 200.720 129.482,199.416 130.397,199.189 130.821 C 198.962 131.244,198.017 131.938,197.088 132.363 C 196.160 132.788,194.880 133.682,194.243 134.349 C 193.607 135.016,192.077 136.065,190.843 136.681 C 189.610 137.296,188.264 138.215,187.854 138.722 C 187.444 139.229,186.426 139.916,185.593 140.250 C 184.760 140.583,183.517 141.472,182.831 142.226 C 182.145 142.979,180.989 143.845,180.261 144.149 C 179.533 144.453,177.961 145.544,176.769 146.574 C 175.576 147.603,174.209 148.769,173.731 149.165 C 172.775 149.956,171.833 152.843,172.177 153.927 C 172.634 155.368,176.409 158.800,177.525 158.790 C 179.666 158.771,181.772 158.027,182.803 156.925 C 183.382 156.306,184.564 155.440,185.428 155.000 C 186.293 154.560,187.060 154.065,187.133 153.900 C 187.207 153.735,187.515 153.600,187.819 153.600 C 188.123 153.600,188.555 153.258,188.779 152.839 C 189.003 152.420,190.022 151.673,191.044 151.179 C 192.065 150.684,193.354 149.772,193.907 149.151 C 194.460 148.530,195.614 147.657,196.471 147.210 C 197.328 146.763,198.557 145.858,199.201 145.199 C 199.846 144.539,200.731 144.000,201.168 144.000 C 201.605 144.000,202.442 143.781,203.028 143.514 C 203.993 143.075,204.185 143.134,205.047 144.137 L 206.000 145.245 206.000 202.137 L 206.000 259.030 204.844 260.415 L 203.688 261.800 140.144 261.800 C 92.778 261.800,76.193 261.681,75.000 261.332 C 74.120 261.074,72.662 260.670,71.761 260.434 C 70.859 260.198,69.635 259.553,69.040 259.002 C 68.445 258.451,67.820 258.000,67.651 258.000 C 67.049 258.000,62.108 252.583,61.814 251.600 C 61.650 251.050,60.878 249.340,60.099 247.800 C 58.047 243.745,58.057 238.684,60.123 234.719 C 60.874 233.280,61.601 231.651,61.739 231.100 C 61.959 230.225,62.948 229.024,66.520 225.300 C 66.995 224.805,67.580 224.400,67.820 224.400 C 68.060 224.400,68.991 223.771,69.890 223.002 C 70.972 222.075,72.370 221.386,74.031 220.961 C 76.345 220.368,77.600 219.671,77.600 218.978 C 77.600 218.824,78.132 217.596,78.783 216.249 C 79.433 214.902,80.141 212.900,80.356 211.800 C 81.356 206.680,81.830 205.481,83.800 203.086 C 84.020 202.819,84.470 202.071,84.800 201.424 C 86.555 197.985,95.366 190.887,99.000 189.985 C 102.205 189.189,103.825 188.742,105.000 188.329 C 107.043 187.612,110.029 187.260,114.329 187.229 C 119.766 187.191,120.394 186.582,120.409 181.326 C 120.427 175.599,121.123 168.945,121.997 166.145 C 122.469 164.635,123.112 162.050,123.427 160.400 C 124.529 154.623,124.686 154.065,125.699 152.335 C 126.261 151.377,127.025 149.605,127.396 148.396 C 128.279 145.526,128.768 144.493,130.048 142.800 C 130.630 142.030,131.229 140.871,131.380 140.224 C 131.676 138.949,132.633 137.470,134.444 135.488 C 135.080 134.791,135.600 133.992,135.600 133.712 C 135.600 133.432,136.191 132.527,136.913 131.701 C 137.636 130.876,138.695 129.570,139.266 128.800 C 140.241 127.487,145.990 121.637,149.571 118.314 C 150.452 117.496,151.883 116.379,152.751 115.831 C 153.619 115.283,154.796 114.367,155.368 113.796 C 155.940 113.224,156.991 112.512,157.704 112.213 C 158.417 111.915,159.450 111.298,160.000 110.843 C 160.550 110.387,161.197 109.851,161.438 109.650 C 162.147 109.058,164.322 108.000,164.828 108.000 C 165.085 108.000,166.309 107.398,167.548 106.663 C 169.951 105.237,170.827 104.879,174.600 103.787 C 175.920 103.405,177.270 102.882,177.600 102.624 C 179.159 101.405,180.399 101.121,189.908 99.806 C 192.167 99.493,194.212 99.116,194.453 98.967 C 195.936 98.051,209.886 97.949,212.874 98.833 " stroke="none" fill="#ffc1c1" fill-rule="evenodd"></path></g></svg>